<svg id="bullet_3_2x.svg_50_bullet_3.svg" data-name="bullet_3_2x.svg, 50% bullet_3.svg" xmlns="http://www.w3.org/2000/svg" width="28" height="28" viewBox="0 0 56 56">
  <defs>
    <style>
      .cls-1 {
        fill: #cad8dc;
      }

      .cls-2 {
        fill: #fff;
        fill-rule: evenodd;
      }
    </style>
  </defs>
  <circle class="cls-1" cx="28" cy="28" r="28"/>
  <path id="_3" data-name="3" class="cls-2" d="M1296.17,1509.93h2.88a4.212,4.212,0,0,1,2.98.94,3.82,3.82,0,0,1,1.01,2.95,3.518,3.518,0,0,1-1.03,2.67,3.9,3.9,0,0,1-2.8.98,3.843,3.843,0,0,1-2.67-.95,3.125,3.125,0,0,1-1.06-2.43h-4.97l-0.04.11a6.033,6.033,0,0,0,2.47,5.33,10.041,10.041,0,0,0,6.13,1.89,10.3,10.3,0,0,0,6.55-2.01,6.65,6.65,0,0,0,2.55-5.53,6.152,6.152,0,0,0-1.11-3.64,6.635,6.635,0,0,0-3.24-2.32,7.04,7.04,0,0,0,2.9-2.34,5.452,5.452,0,0,0,1.05-3.18,6.559,6.559,0,0,0-2.36-5.41,9.818,9.818,0,0,0-6.34-1.9,9.206,9.206,0,0,0-5.98,1.95,5.845,5.845,0,0,0-2.3,4.96l0.04,0.11h4.97a2.79,2.79,0,0,1,.98-2.22,3.628,3.628,0,0,1,2.43-.84,3.354,3.354,0,0,1,2.55.93,3.5,3.5,0,0,1,.88,2.48,3.826,3.826,0,0,1-.88,2.66,3.508,3.508,0,0,1-2.71.96h-2.88v3.85Z" transform="translate(-1271 -1481)"/>
</svg>
