<svg id="bullet_2_2x.svg_50_bullet_2.svg" data-name="bullet_2_2x.svg, 50% bullet_2.svg" xmlns="http://www.w3.org/2000/svg" width="28" height="28" viewBox="0 0 56 56">
  <defs>
    <style>
      .cls-1 {
        fill: #cad8dc;
      }

      .cls-2 {
        fill: #fff;
        fill-rule: evenodd;
      }
    </style>
  </defs>
  <circle class="cls-1" cx="28" cy="28" r="28"/>
  <path id="_2" data-name="2" class="cls-2" d="M1308.46,1186.1H1297.7l-0.04-.09,4.56-4.96a42.663,42.663,0,0,0,4.21-5.14,7.665,7.665,0,0,0,1.27-4.28,7.04,7.04,0,0,0-2.26-5.48,8.883,8.883,0,0,0-6.21-2.06,8.527,8.527,0,0,0-6.37,2.4,7.729,7.729,0,0,0-2.28,5.86l0.03,0.11h5a5.1,5.1,0,0,1,.92-3.21,3.185,3.185,0,0,1,2.7-1.2,3.053,3.053,0,0,1,2.47,1.03,3.926,3.926,0,0,1,.87,2.64,5.561,5.561,0,0,1-.76,2.63,19.685,19.685,0,0,1-2.55,3.47l-8.28,8.88v3.36h17.48v-3.96Z" transform="translate(-1271 -1150)"/>
</svg>
