<svg id="tech_diagram_hub_2x.svg_50_tech_diagram_hub.svg" data-name="tech_diagram_hub_2x.svg, 50% tech_diagram_hub.svg" xmlns="http://www.w3.org/2000/svg" width="739.5" height="228" viewBox="0 0 1479 456">
  <defs>
    <style>
      .cls-1 {
        fill: #ebeff1;
      }

      .cls-1, .cls-3, .cls-5, .cls-6, .cls-7 {
        fill-rule: evenodd;
      }

      .cls-2 {
        fill: #ffd600;
      }

      .cls-3 {
        fill: #fff;
      }

      .cls-4, .cls-7 {
        fill: #eaeff1;
      }

      .cls-5 {
        fill: #ffecb3;
      }

      .cls-6 {
        fill: #cfd8dc;
      }

      .cls-7 {
        opacity: 0.7;
      }
    </style>
  </defs>
  <path id="globe" class="cls-1" d="M1198,3778c-125.86,0-228,102.14-228,228s102.14,228,228,228,228-102.14,228-228S1323.86,3778,1198,3778ZM994.041,4006a203.588,203.588,0,0,1,8.629-58.53L1129.6,4074.4v22.8a45.734,45.734,0,0,0,45.6,45.6v65.81C1073.3,4197.26,994.041,4110.93,994.041,4006Zm407.919,0a203.266,203.266,0,0,1-69.44,153.04v-19.62a42.217,42.217,0,0,0-42.22-42.22h-23.9v-68.4a22.867,22.867,0,0,0-22.8-22.8H1106.8v-45.6h45.6a22.867,22.867,0,0,0,22.8-22.8V3892h45.6a45.734,45.734,0,0,0,45.6-45.6v-32.35C1345.34,3842.19,1401.96,3917.39,1401.96,4006Z" transform="translate(-462 -3778)"/>
  <g id="hub">
    <rect class="cls-2" x="668" y="160" width="136" height="136" rx="20" ry="20"/>
    <path class="cls-3" d="M1197.99,4019.76l12.99,7.81a15.042,15.042,0,0,0,6.8,15.45,13.821,13.821,0,0,0,19.32-5.4,15.081,15.081,0,0,0-5.18-20.15,13.738,13.738,0,0,0-16.23,1.59l-12.98-7.82v-15.63a14.762,14.762,0,0,0,9.43-13.86c0-8.16-6.32-14.75-14.15-14.75s-14.14,6.59-14.14,14.75a14.762,14.762,0,0,0,9.43,13.86v15.63l-12.99,7.82a13.738,13.738,0,0,0-16.23-1.59,15.078,15.078,0,0,0-5.17,20.15,13.819,13.819,0,0,0,19.32,5.4,15.042,15.042,0,0,0,6.8-15.45Z" transform="translate(-462 -3778)"/>
  </g>
  <g id="right_hub" data-name="right hub">
    <rect class="cls-4" x="1389" y="183" width="90" height="90" rx="20" ry="20"/>
    <path class="cls-3" d="M1896,4015.1l8.59,5.18a9.948,9.948,0,0,0,4.5,10.22,9.148,9.148,0,0,0,12.79-3.58,9.982,9.982,0,0,0-3.43-13.33,9.1,9.1,0,0,0-10.74,1.05l-8.59-5.17v-10.35a9.775,9.775,0,0,0,6.24-9.17,9.373,9.373,0,1,0-18.73,0,9.775,9.775,0,0,0,6.24,9.17v10.35l-8.59,5.17a9.1,9.1,0,0,0-10.74-1.05,9.991,9.991,0,0,0-3.43,13.33,9.148,9.148,0,0,0,12.79,3.58,9.948,9.948,0,0,0,4.5-10.22Z" transform="translate(-462 -3778)"/>
  </g>
  <g id="left_hub" data-name="left  hub">
    <rect class="cls-4" y="183" width="90" height="90" rx="20" ry="20"/>
    <path class="cls-3" d="M507,4015.1l8.593,5.18a9.952,9.952,0,0,0,4.5,10.22,9.143,9.143,0,0,0,12.787-3.58,9.975,9.975,0,0,0-3.426-13.33,9.1,9.1,0,0,0-10.74,1.05l-8.594-5.17v-10.35a9.762,9.762,0,0,0,6.241-9.17,9.369,9.369,0,1,0-18.722,0,9.762,9.762,0,0,0,6.241,9.17v10.35l-8.593,5.17a9.105,9.105,0,0,0-10.741-1.05,9.975,9.975,0,0,0-3.426,13.33,9.143,9.143,0,0,0,12.787,3.58,9.952,9.952,0,0,0,4.5-10.22Z" transform="translate(-462 -3778)"/>
  </g>
  <g id="clouds">
    <path id="Shape_25_copy_3" data-name="Shape 25 copy 3" class="cls-5" d="M1452.52,4153.92a43.642,43.642,0,0,1,60.79-40.19,70.97,70.97,0,0,1,132.3-20.82,53.3,53.3,0,1,1,14.72,104.55c-0.08,0-.16-0.01-0.24-0.01v0.01H1495.72v-0.01A43.63,43.63,0,0,1,1452.52,4153.92Z" transform="translate(-462 -3778)"/>
    <path id="Shape_25_copy_2" data-name="Shape 25 copy 2" class="cls-5" d="M1452.52,3877.92a43.642,43.642,0,0,1,60.79-40.19,70.97,70.97,0,0,1,132.3-20.82,53.3,53.3,0,1,1,14.72,104.55,1.927,1.927,0,0,1-.24-0.01v0.01H1495.72v-0.01A43.63,43.63,0,0,1,1452.52,3877.92Z" transform="translate(-462 -3778)"/>
    <path id="Shape_25_copy" data-name="Shape 25 copy" class="cls-5" d="M949.476,4153.92a43.638,43.638,0,0,0-60.785-40.19,70.969,70.969,0,0,0-132.3-20.82,53.3,53.3,0,1,0-14.725,104.55c0.082,0,.162-0.01.243-0.01v0.01H906.28v-0.01A43.625,43.625,0,0,0,949.476,4153.92Z" transform="translate(-462 -3778)"/>
    <path class="cls-5" d="M949.476,3877.92a43.638,43.638,0,0,0-60.785-40.19,70.969,70.969,0,0,0-132.3-20.82,53.3,53.3,0,1,0-14.725,104.55,1.967,1.967,0,0,0,.243-0.01v0.01H906.28v-0.01A43.625,43.625,0,0,0,949.476,3877.92Z" transform="translate(-462 -3778)"/>
  </g>
  <g id="dots">
    <g id="right">
      <path class="cls-6" d="M1417.11,3889.92a6.716,6.716,0,1,0-2.51,9.07A6.685,6.685,0,0,0,1417.11,3889.92Zm-29.34,16.9a6.714,6.714,0,1,0-2.51,9.06A6.682,6.682,0,0,0,1387.77,3906.82Zm-29.34,16.89a6.716,6.716,0,1,0-2.51,9.06A6.688,6.688,0,0,0,1358.43,3923.71Zm-28.76,16.78a6.716,6.716,0,1,0-2.51,9.07A6.683,6.683,0,0,0,1329.67,3940.49Zm87.44-50.57a6.716,6.716,0,1,0-2.51,9.07A6.685,6.685,0,0,0,1417.11,3889.92Z" transform="translate(-462 -3778)"/>
      <path class="cls-6" d="M1417.15,4122.14a6.715,6.715,0,1,0-9.11,2.36A6.692,6.692,0,0,0,1417.15,4122.14Zm-29.31-16.96a6.711,6.711,0,1,0-9.1,2.35A6.68,6.68,0,0,0,1387.84,4105.18Zm-29.3-16.97a6.715,6.715,0,1,0-9.1,2.36A6.68,6.68,0,0,0,1358.54,4088.21Zm-28.91-16.51a6.715,6.715,0,1,0-9.1,2.36A6.684,6.684,0,0,0,1329.63,4071.7Zm87.52,50.44a6.715,6.715,0,1,0-9.11,2.36A6.692,6.692,0,0,0,1417.15,4122.14Z" transform="translate(-462 -3778)"/>
    </g>
    <g id="left">
      <path class="cls-6" d="M982.921,4121.73a6.723,6.723,0,1,0,2.511-9.07A6.679,6.679,0,0,0,982.921,4121.73Zm29.369-16.91a6.723,6.723,0,1,0,2.51-9.07A6.7,6.7,0,0,0,1012.29,4104.82Zm29.37-16.91a6.723,6.723,0,1,0,2.51-9.08A6.7,6.7,0,0,0,1041.66,4087.91Zm28.78-16.8a6.723,6.723,0,1,0,2.51-9.08A6.7,6.7,0,0,0,1070.44,4071.11Zm-87.519,50.62a6.723,6.723,0,1,0,2.511-9.07A6.679,6.679,0,0,0,982.921,4121.73Z" transform="translate(-462 -3778)"/>
      <path class="cls-6" d="M982.887,3889.27a6.722,6.722,0,1,0,9.11-2.36A6.694,6.694,0,0,0,982.887,3889.27Zm29.323,16.98a6.722,6.722,0,1,0,9.12-2.36A6.7,6.7,0,0,0,1012.21,3906.25Zm29.33,16.98a6.722,6.722,0,1,0,9.11-2.36A6.693,6.693,0,0,0,1041.54,3923.23Zm28.94,16.53a6.722,6.722,0,1,0,9.11-2.36A6.7,6.7,0,0,0,1070.48,3939.76Zm-87.593-50.49a6.722,6.722,0,1,0,9.11-2.36A6.694,6.694,0,0,0,982.887,3889.27Z" transform="translate(-462 -3778)"/>
    </g>
    <g id="right_copy" data-name="right copy">
      <path class="cls-7" d="M658.111,3889.92a6.716,6.716,0,1,0-2.509,9.07A6.686,6.686,0,0,0,658.111,3889.92Zm-29.341,16.9a6.714,6.714,0,1,0-2.509,9.06A6.681,6.681,0,0,0,628.77,3906.82Zm-29.341,16.89a6.716,6.716,0,1,0-2.51,9.06A6.688,6.688,0,0,0,599.429,3923.71Zm-28.755,16.78a6.716,6.716,0,1,0-2.51,9.07A6.688,6.688,0,0,0,570.674,3940.49Zm87.437-50.57a6.716,6.716,0,1,0-2.509,9.07A6.686,6.686,0,0,0,658.111,3889.92Z" transform="translate(-462 -3778)"/>
      <path class="cls-7" d="M658.145,4122.14a6.715,6.715,0,1,0-9.1,2.36A6.684,6.684,0,0,0,658.145,4122.14Zm-29.3-16.96a6.715,6.715,0,1,0-9.1,2.35A6.686,6.686,0,0,0,628.845,4105.18Zm-29.3-16.97a6.715,6.715,0,1,0-9.1,2.36A6.686,6.686,0,0,0,599.544,4088.21Zm-28.912-16.51a6.715,6.715,0,1,0-9.1,2.36A6.686,6.686,0,0,0,570.632,4071.7Zm87.513,50.44a6.715,6.715,0,1,0-9.1,2.36A6.684,6.684,0,0,0,658.145,4122.14Z" transform="translate(-462 -3778)"/>
    </g>
    <g id="left_copy" data-name="left copy">
      <path class="cls-7" d="M1741.92,4121.73a6.723,6.723,0,1,0,2.51-9.07A6.68,6.68,0,0,0,1741.92,4121.73Zm29.37-16.91a6.723,6.723,0,1,0,2.51-9.07A6.7,6.7,0,0,0,1771.29,4104.82Zm29.37-16.91a6.723,6.723,0,1,0,2.51-9.08A6.7,6.7,0,0,0,1800.66,4087.91Zm28.78-16.8a6.723,6.723,0,1,0,2.51-9.08A6.7,6.7,0,0,0,1829.44,4071.11Zm-87.52,50.62a6.723,6.723,0,1,0,2.51-9.07A6.68,6.68,0,0,0,1741.92,4121.73Z" transform="translate(-462 -3778)"/>
      <path class="cls-7" d="M1741.89,3889.27a6.722,6.722,0,1,0,9.11-2.36A6.686,6.686,0,0,0,1741.89,3889.27Zm29.32,16.98a6.722,6.722,0,1,0,9.12-2.36A6.7,6.7,0,0,0,1771.21,3906.25Zm29.33,16.98a6.722,6.722,0,1,0,9.11-2.36A6.693,6.693,0,0,0,1800.54,3923.23Zm28.94,16.53a6.722,6.722,0,1,0,9.11-2.36A6.7,6.7,0,0,0,1829.48,3939.76Zm-87.59-50.49a6.722,6.722,0,1,0,9.11-2.36A6.686,6.686,0,0,0,1741.89,3889.27Z" transform="translate(-462 -3778)"/>
    </g>
  </g>
</svg>
