<?xml version="1.0" encoding="utf-8"?>
<!-- Generator: Adobe Illustrator 19.2.1, SVG Export Plug-In . SVG Version: 6.00 Build 0)  -->
<svg version="1.1" id="tech_diagram_cloud_mobile_2x.svg_50_tech_diagram_cloud_mobile.svg"
	 xmlns="http://www.w3.org/2000/svg" xmlns:xlink="http://www.w3.org/1999/xlink" x="0px" y="0px" viewBox="0 0 291.5 143.7"
	 style="enable-background:new 0 0 291.5 143.7;" xml:space="preserve">
<style type="text/css">
	.st0{fill:#FFECB3;}
	.st1{fill:#757575;}
	.st2{fill:#CAD8DC;}
	.st3{fill:#E5E9EB;}
	.st4{fill:#FFFFFF;}
	.st5{fill:#E6E9EB;}
	.st6{fill:#FFB74D;}
	.st7{fill:#FFD600;}
</style>
<g id="clouds">
	<path class="st0" d="M187,130c0-7.6-6.2-13.8-13.8-13.8c-1.9,0-3.7,0.4-5.4,1.1c-2.2-12.2-13.9-20.3-26.1-18
		c-6.7,1.2-12.5,5.4-15.7,11.4c-8.9-2.6-18.3,2.6-20.8,11.6c-2.6,8.9,2.6,18.3,11.6,20.8c1.5,0.4,3.1,0.6,4.6,0.6h0.1l0,0h52l0,0
		C180.9,143.6,187,137.5,187,130z"/>
	<path id="Jibe_Cloud_copy" class="st1" d="M122.2,129.2c0,0.5-0.1,0.9-0.5,1.3c-0.3,0.3-0.7,0.5-1.2,0.5s-0.9-0.1-1.3-0.4
		c-0.3-0.3-0.5-0.8-0.4-1.3h-0.6l0,0c-0.1,0.6,0.2,1.2,0.6,1.7c0.5,0.4,1.1,0.6,1.7,0.6s1.2-0.2,1.6-0.6c0.4-0.5,0.7-1.1,0.6-1.7
		v-5.6h-0.6v5.5H122.2z M125.7,125.6h-0.6v5.8h0.6V125.6z M125.7,123h-0.6v0.9h0.6V123z M132.3,128.6c0-0.8-0.2-1.6-0.6-2.2
		c-0.4-0.5-1-0.9-1.6-0.8c-0.4,0-0.7,0.1-1.1,0.3c-0.3,0.2-0.6,0.4-0.7,0.8V123h-0.6v8.4h0.6l0.1-0.9c0.2,0.3,0.4,0.6,0.7,0.7
		c0.3,0.2,0.7,0.3,1.1,0.3c0.6,0,1.2-0.3,1.6-0.8c0.4-0.6,0.6-1.3,0.6-2.1v0H132.3z M131.7,128.7c0,0.6-0.1,1.2-0.4,1.7
		c-0.3,0.4-0.8,0.7-1.3,0.6c-0.4,0-0.7-0.1-1-0.3s-0.5-0.5-0.6-0.8v-2.6c0.1-0.3,0.3-0.6,0.6-0.9c0.3-0.2,0.7-0.4,1.1-0.3
		c0.5,0,1,0.2,1.3,0.7c0.3,0.6,0.5,1.2,0.4,1.8L131.7,128.7L131.7,128.7z M137.4,131.3c0.3-0.1,0.6-0.3,0.8-0.6l-0.3-0.4
		c-0.2,0.2-0.4,0.4-0.7,0.5s-0.7,0.2-1,0.2c-0.5,0-1-0.2-1.3-0.7c-0.4-0.5-0.5-1.1-0.5-1.6v-0.2h4.1V128c0-0.7-0.2-1.3-0.6-1.8
		c-0.4-0.5-1-0.7-1.7-0.7s-1.3,0.3-1.7,0.8c-0.5,0.6-0.7,1.3-0.7,2.1v0.3c0,0.7,0.2,1.5,0.7,2c0.4,0.5,1.1,0.8,1.8,0.8
		C136.6,131.5,137,131.5,137.4,131.3L137.4,131.3z M137.3,126.5c0.3,0.4,0.5,0.8,0.4,1.3v0.2h-3.4l0,0c0-0.5,0.2-1,0.6-1.4
		c0.3-0.4,0.7-0.6,1.2-0.5C136.6,126,137,126.2,137.3,126.5L137.3,126.5z M147.7,129c0,0.6-0.3,1.1-0.7,1.5s-1,0.5-1.5,0.5
		c-0.6,0-1.2-0.3-1.6-0.8c-0.4-0.6-0.6-1.3-0.6-2.1v-1.3c0-0.7,0.2-1.4,0.6-2c0.4-0.5,1-0.8,1.6-0.8s1.1,0.1,1.5,0.5
		s0.6,0.9,0.7,1.5h0.6l0,0c0-0.7-0.3-1.4-0.8-1.9s-1.2-0.7-2-0.7s-1.6,0.3-2.1,0.9c-0.5,0.7-0.8,1.6-0.8,2.4v1.3
		c0,0.9,0.2,1.8,0.8,2.4c0.5,0.6,1.3,1,2.1,0.9c1.4,0.1,2.7-0.9,2.8-2.4c0-0.1,0-0.1,0-0.2l0,0L147.7,129L147.7,129z M150.8,123
		h-0.6v8.4h0.6V123z M152.4,128.6c0,0.8,0.2,1.5,0.7,2.1c0.9,1,2.5,1.1,3.5,0.2c0.1-0.1,0.1-0.1,0.2-0.2c0.5-0.6,0.7-1.3,0.7-2.1
		v-0.2c0-0.8-0.2-1.5-0.7-2.1c-0.9-1-2.5-1.1-3.5-0.2c-0.1,0.1-0.1,0.1-0.2,0.2c-0.5,0.6-0.7,1.3-0.7,2.1V128.6z M153.1,128.4
		c0-0.6,0.2-1.2,0.5-1.7s0.8-0.7,1.4-0.7c0.6,0,1.1,0.2,1.4,0.7c0.3,0.5,0.5,1.1,0.5,1.7v0.2c0,0.6-0.2,1.2-0.5,1.7
		c-0.6,0.8-1.7,0.9-2.5,0.3c-0.1-0.1-0.2-0.2-0.3-0.3c-0.3-0.5-0.5-1.1-0.5-1.7L153.1,128.4L153.1,128.4z M162.9,131.4h0.6v-5.8
		h-0.6v4.2c-0.1,0.4-0.3,0.7-0.6,0.9s-0.7,0.4-1.2,0.3c-0.4,0-0.8-0.2-1-0.5c-0.3-0.5-0.4-1-0.4-1.5v-3.4h-0.6v3.4
		c-0.1,0.7,0.1,1.4,0.5,1.9c0.3,0.4,0.9,0.7,1.4,0.6c0.4,0,0.8-0.1,1.1-0.3s0.6-0.5,0.7-0.8L162.9,131.4z M165.2,128.7
		c0,0.7,0.2,1.5,0.6,2.1c0.4,0.5,1,0.8,1.6,0.8c0.4,0,0.7-0.1,1.1-0.2c0.3-0.2,0.6-0.4,0.7-0.7l0.1,0.8h0.6V123h-0.6v3.5
		c-0.2-0.3-0.4-0.6-0.7-0.7c-0.3-0.2-0.7-0.3-1-0.3c-0.6,0-1.3,0.3-1.6,0.8c-0.4,0.7-0.6,1.4-0.6,2.2L165.2,128.7L165.2,128.7z
		 M165.8,128.6c0-0.6,0.1-1.3,0.4-1.8c0.3-0.5,0.7-0.7,1.3-0.7c0.4,0,0.7,0.1,1,0.3c0.3,0.2,0.5,0.5,0.6,0.8v2.7
		c-0.1,0.3-0.4,0.6-0.6,0.8c-0.3,0.2-0.7,0.3-1,0.3c-0.5,0-1-0.2-1.3-0.6c-0.3-0.5-0.4-1.1-0.4-1.7V128.6z"/>
</g>
<g id="dots">
	<path class="st2" d="M116.1,75.8c0.8-0.8,2.2-0.9,3-0.1s0.9,2.2,0.1,3s-2.2,0.9-3,0.1l0,0C115.3,78,115.3,76.6,116.1,75.8z
		 M122,81.8c0.8-0.8,2.2-0.9,3-0.1s0.9,2.2,0.1,3c-0.8,0.8-2.2,0.9-3,0.1l0,0C121.2,83.9,121.2,82.6,122,81.8z M128,87.8
		c0.8-0.8,2.2-0.9,3-0.1s0.9,2.2,0.1,3s-2.2,0.9-3,0.1l0,0C127.2,89.9,127.2,88.6,128,87.8z"/>
	<path id="Ellipse_2_copy_3" class="st2" d="M175.4,75.8c-0.8-0.8-2.2-0.9-3-0.1s-0.9,2.2-0.1,3s2.2,0.9,3,0.1l0,0
		C176.2,78,176.2,76.6,175.4,75.8z M169.5,81.8c-0.8-0.8-2.2-0.9-3-0.1s-0.9,2.2-0.1,3c0.8,0.8,2.2,0.9,3,0.1l0,0
		C170.3,83.9,170.3,82.6,169.5,81.8z M163.5,87.8c-0.8-0.8-2.2-0.9-3-0.1s-0.9,2.2-0.1,3s2.2,0.9,3,0.1l0,0
		C164.3,89.9,164.3,88.6,163.5,87.8z"/>
</g>
<g id="phones-2">
	<g id="phone">
		<path class="st3" d="M182.2,6.2h28c2.8,0,5,2.2,5,5V62c0,2.8-2.2,5-5,5h-28c-2.8,0-5-2.2-5-5V11.2C177.2,8.4,179.5,6.2,182.2,6.2z
			"/>
		<rect x="181.5" y="13.3" class="st4" width="29.4" height="46.5"/>
	</g>
	<g id="phone-2">
		<path class="st5" d="M81.2,6.2h28c2.8,0,5,2.2,5,5V62c0,2.8-2.2,5-5,5h-28c-2.8,0-5-2.2-5-5V11.2C76.2,8.4,78.4,6.2,81.2,6.2z"/>
		<rect x="80.6" y="13.3" class="st4" width="29.4" height="46.5"/>
	</g>
</g>
<polygon class="st2" points="158,31.5 156.8,32.7 159.6,35.5 131.8,35.5 134.7,32.6 133.5,31.4 128.4,36.5 133.5,41.6 134.7,40.4 
	131.8,37.5 159.8,37.5 156.8,40.5 158,41.7 163.1,36.6 "/>
<g>
	<g>
		<g id="emoji_bubble">
			<path id="Shape_1_copy_2" class="st6" d="M291.3,3.9V29c0,2.2-1.8,3.9-4,3.8H235l7.9-7.7V3.9c0-2.2,1.8-3.9,4-3.9h40.4
				C289.5,0,291.3,1.7,291.3,3.9z"/>
			<path class="st4" d="M261.2,19.6c-1.1,0.8-2.7,0.8-3.8,0c-0.2-0.1-0.4-0.1-0.5,0.1l0,0c-0.1,0.2-0.1,0.4,0.1,0.5l0,0
				c0.7,0.5,1.5,0.8,2.3,0.8s1.7-0.3,2.3-0.8c0.2-0.1,0.2-0.3,0.1-0.5l0,0C261.6,19.5,261.4,19.4,261.2,19.6
				C261.3,19.6,261.3,19.6,261.2,19.6z M256.9,15.6c0.4,0,0.7,0.3,0.7,0.7c0,0.4-0.3,0.7-0.7,0.7c-0.4,0-0.7-0.3-0.7-0.7
				C256.1,15.9,256.5,15.6,256.9,15.6L256.9,15.6L256.9,15.6z M259.3,7.5c-4.7,0-8.4,3.9-8.4,8.5c0,4.7,3.9,8.4,8.5,8.4
				s8.4-3.8,8.4-8.4C267.8,11.3,264,7.5,259.3,7.5L259.3,7.5L259.3,7.5z M265,18c-0.8,2.6-3,4.5-5.7,4.5c-2.7-0.1-5-1.9-5.7-4.5
				c-1-0.2-1.6-1.1-1.5-2.1c0.1-0.7,0.7-1.3,1.4-1.5c1.5-1,2.7-2.5,2.9-3.6l0,0c1,1.8,4.5,3.7,8.4,3.6h0.2c1,0.1,1.7,0.9,1.6,1.9
				C266.5,17.2,265.9,17.9,265,18L265,18z M261.8,15.6c0.4,0,0.7,0.3,0.7,0.7c0,0.4-0.3,0.7-0.7,0.7c-0.4,0-0.7-0.3-0.7-0.7
				C261.1,15.9,261.4,15.6,261.8,15.6L261.8,15.6L261.8,15.6z"/>
			<path class="st4" d="M277.8,23.2l-1.1-1c-4-3.6-6.7-6-6.7-9c0-2.3,1.9-4.3,4.2-4.3h0.1c1.4,0,2.6,0.6,3.5,1.6
				c0.9-1,2.2-1.6,3.5-1.6c2.3,0,4.3,1.9,4.3,4.2v0.1c0,2.9-2.7,5.3-6.7,9L277.8,23.2z"/>
		</g>
		<g id="friends_bubble">
			<path id="Shape_1_copy_2-2" class="st7" d="M291.5,75.7V38c0-2.2-1.8-3.9-4-3.8h-53l7.9,7.7v33.8c0,2.2,1.8,3.9,4,3.9h41.1
				C289.7,79.6,291.5,77.9,291.5,75.7z"/>
			<path id="Shape_12_copy_4" class="st4" d="M278.7,58.4h-8.9c-0.7,0-1.3,0.6-1.3,1.3l0,0v8.9c0,0.7,0.6,1.3,1.3,1.3l0,0h2.5
				l1.9,1.9l1.9-1.9h2.5c0.7,0,1.3-0.6,1.3-1.3l0,0v-8.9C280,58.9,279.4,58.4,278.7,58.4L278.7,58.4z M274.3,60.5
				c1,0,1.7,0.8,1.7,1.7c0,1-0.8,1.7-1.7,1.7c-1,0-1.7-0.8-1.7-1.7l0,0C272.6,61.3,273.3,60.5,274.3,60.5L274.3,60.5L274.3,60.5z
				 M278.1,67.3h-7.6v-0.6c0-1.3,2.5-2,3.8-2s3.8,0.7,3.8,2L278.1,67.3L278.1,67.3z"/>
			<path id="Shape_12_copy_3" class="st4" d="M263.5,58.4h-8.9c-0.7,0-1.3,0.6-1.3,1.3l0,0v8.9c0,0.7,0.6,1.3,1.3,1.3l0,0h2.5
				l1.9,1.9l1.9-1.9h2.5c0.7,0,1.3-0.6,1.3-1.3l0,0v-8.9C264.8,58.9,264.2,58.4,263.5,58.4L263.5,58.4z M259,60.5
				c1,0,1.7,0.8,1.7,1.7c0,1-0.8,1.7-1.7,1.7c-1,0-1.7-0.8-1.7-1.7l0,0C257.3,61.3,258.1,60.5,259,60.5L259,60.5L259,60.5z
				 M262.8,67.3h-7.6v-0.6c0-1.3,2.5-2,3.8-2s3.8,0.7,3.8,2L262.8,67.3L262.8,67.3z"/>
			<path id="Shape_12_copy" class="st4" d="M278.7,42.6h-8.9c-0.7,0-1.3,0.6-1.3,1.3l0,0v8.9c0,0.7,0.6,1.3,1.3,1.3l0,0h2.5l1.9,1.9
				l1.9-1.9h2.5c0.7,0,1.3-0.6,1.3-1.3l0,0v-8.9C280,43.2,279.4,42.6,278.7,42.6L278.7,42.6z M274.3,44.7c1,0,1.7,0.8,1.7,1.7
				c0,1-0.8,1.7-1.7,1.7c-1,0-1.7-0.8-1.7-1.7l0,0C272.6,45.5,273.3,44.7,274.3,44.7L274.3,44.7L274.3,44.7z M278.1,51.6h-7.6V51
				c0-1.3,2.5-2,3.8-2s3.8,0.7,3.8,2L278.1,51.6L278.1,51.6z"/>
			<path id="Shape_12_copy_2" class="st4" d="M263.5,42.6h-8.9c-0.7,0-1.3,0.6-1.3,1.3l0,0v8.9c0,0.7,0.6,1.3,1.3,1.3l0,0h2.5
				L259,56l1.9-1.9h2.5c0.7,0,1.3-0.6,1.3-1.3l0,0v-8.9C264.8,43.2,264.2,42.6,263.5,42.6L263.5,42.6z M259,44.7
				c1,0,1.7,0.8,1.7,1.7c0,1-0.8,1.7-1.7,1.7c-1,0-1.7-0.8-1.7-1.7l0,0C257.3,45.5,258.1,44.7,259,44.7L259,44.7L259,44.7z
				 M262.8,51.6h-7.6V51c0-1.3,2.5-2,3.8-2s3.8,0.7,3.8,2L262.8,51.6L262.8,51.6z"/>
		</g>
	</g>
	<g>
		<g id="text_bubble">
			<path id="Shape_1_copy_2-3" class="st7" d="M0.1,5.6v25.2c0,2.2,1.8,3.9,4,3.8h60l-7.9-7.7V5.6c0-2.2-1.8-3.9-4-3.9H4.1
				C1.9,1.7,0.1,3.4,0.1,5.6z"/>
			<path class="st4" d="M32.3,25H11.9v2.7h20.4V25z M44.6,14.3H11.9V17h32.6L44.6,14.3L44.6,14.3z M11.9,22.3h32.6v-2.7H11.9V22.3z
				 M11.9,8.9v2.7h32.6V8.9H11.9z"/>
		</g>
		<g id="photo_bubble">
			<path id="Shape_1_copy_2-4" class="st6" d="M0,73.2V40.8c0-2.8,2.3-5,5.1-5h58.5l-10.2,10v27.4c0,2.8-2.3,5-5.1,5H5.1
				C2.3,78.2,0,76,0,73.2z"/>
			<path class="st4" d="M38.5,42.7H10.9c-1.3,0-2.4,1.1-2.4,2.4v19.1c0,1.3,1,2.4,2.3,2.4h0.1h27.6c1.3,0,2.4-1,2.4-2.2
				c0-0.1,0-0.1,0-0.2V45.1C40.9,43.8,39.8,42.7,38.5,42.7z M38.5,64.3H10.9V45.1h27.6V64.3z M12.1,63L12.1,63L12.1,63L12.1,63z
				 M37.2,58.4l-5.9-8.5l-4.8,6.2l-2.3-2.5l-6,7.1l-2.5-2.3L12.1,63h25.1V58.4L37.2,58.4z M17.9,52.3c1.3-0.2,2.3-1.2,2.5-2.5
				c0.3-1.6-0.8-3.2-2.5-3.5c-0.3-0.1-0.7-0.1-1,0c-1.3,0.2-2.3,1.2-2.5,2.5c-0.3,1.6,0.8,3.2,2.5,3.5
				C17.2,52.3,17.6,52.3,17.9,52.3L17.9,52.3z M42.1,64.6V46.3c0.6,0,2.4,1.7,2.4,2.4v19.1c0,1.4-1.1,2.5-2.5,2.5H14.5
				c-0.6,0-2.4-1.7-2.4-2.4h28.1C42.7,67.9,42.1,64.6,42.1,64.6L42.1,64.6z"/>
		</g>
	</g>
</g>
</svg>
