<?xml version="1.0" encoding="utf-8"?>
<!-- Generator: Adobe Illustrator 19.2.1, SVG Export Plug-In . SVG Version: 6.00 Build 0)  -->
<svg version="1.1" id="_50_tech_diagram_eco_mobile.svg"
	 xmlns="http://www.w3.org/2000/svg" xmlns:xlink="http://www.w3.org/1999/xlink" x="0px" y="0px" viewBox="0 0 277.5 379.5"
	 style="enable-background:new 0 0 277.5 379.5;" xml:space="preserve">
<style type="text/css">
	.st0{fill:#FFD600;}
	.st1{fill:#FFFFFF;}
	.st2{fill:#CAD8DC;}
	.st3{fill:#FFECB3;}
	.st4{fill:#757575;}
</style>
<g id="hub">
	<g>
		<path class="st0" d="M114.4,266.5h48c5.5,0,10,4.5,10,10v48c0,5.5-4.5,10-10,10h-48c-5.5,0-10-4.5-10-10v-48
			C104.4,271,108.9,266.5,114.4,266.5z"/>
		<path class="st1" d="M138.4,307.4l6.5,3.9c-0.6,3,0.8,6.1,3.4,7.7c3.3,2,7.5,0.9,9.5-2.4c0.1-0.1,0.1-0.2,0.2-0.3
			c2-3.5,0.8-7.9-2.6-10.1c-2.6-1.5-5.9-1.2-8.1,0.8l-6.5-3.9v-7.8c2.9-1.1,4.7-3.9,4.7-6.9c0-4.1-3.2-7.4-7.1-7.4s-7.1,3.3-7.1,7.4
			c0,3.1,1.9,5.8,4.7,6.9v7.8l-6.5,3.9c-2.2-2-5.5-2.3-8.1-0.8c-3.4,2.1-4.5,6.6-2.6,10.1c1.8,3.4,6,4.7,9.3,2.9
			c0.1-0.1,0.2-0.1,0.3-0.2c2.6-1.6,4-4.7,3.4-7.7L138.4,307.4z"/>
	</g>
	<g id="dots">
		<path class="st2" d="M133.4,257.3c-1.2,0.7-2.7,0.3-3.4-0.9c-0.7-1.2-0.3-2.7,0.9-3.4c1.2-0.7,2.7-0.3,3.4,0.9c0,0,0,0,0,0
			C135,255.1,134.6,256.6,133.4,257.3C133.4,257.3,133.4,257.3,133.4,257.3z M128.4,248.7c-1.2,0.7-2.7,0.3-3.4-0.9
			c-0.7-1.2-0.3-2.7,0.9-3.4c1.2-0.7,2.7-0.3,3.4,0.9c0,0,0,0,0,0C130,246.4,129.6,248,128.4,248.7
			C128.4,248.7,128.4,248.7,128.4,248.7L128.4,248.7z M123.4,240c-1.2,0.7-2.7,0.3-3.4-0.9c-0.7-1.2-0.3-2.7,0.9-3.4
			c1.2-0.7,2.7-0.3,3.4,0.9c0,0,0,0,0,0C125,237.8,124.6,239.3,123.4,240L123.4,240z"/>
		<path class="st2" d="M155.4,235.7c1.2,0.7,1.6,2.2,0.9,3.4c-0.7,1.2-2.2,1.6-3.4,0.9c-1.2-0.7-1.6-2.2-0.9-3.4v0
			C152.7,235.4,154.2,235,155.4,235.7z M150.4,244.3c1.2,0.7,1.6,2.2,0.9,3.4c-0.7,1.2-2.2,1.6-3.4,0.9c-1.2-0.7-1.6-2.2-0.9-3.4v0
			C147.7,244,149.2,243.6,150.4,244.3L150.4,244.3z M145.4,253c1.2,0.7,1.6,2.2,0.9,3.4c-0.7,1.2-2.2,1.6-3.4,0.9
			c-1.2-0.7-1.6-2.2-0.9-3.4v0C142.7,252.7,144.2,252.3,145.4,253L145.4,253z"/>
	</g>
</g>
<g>
	<g id="left-cloud">
		<g id="cloud">
			<path class="st3" d="M130.1,204.8c0-12-9.7-21.8-21.8-21.8c-3,0-5.9,0.6-8.6,1.8c-3.5-19.3-22-32-41.3-28.5
				c-10.6,1.9-19.7,8.6-24.8,18.1c-14.1-4-28.9,4.1-32.9,18.3c-4,14.1,4.1,28.9,18.3,32.9c2.4,0.7,4.8,1,7.3,1c0,0,0.1,0,0.1,0v0
				h82.2v0C120.5,226.5,130.1,216.8,130.1,204.8z"/>
			<path id="Mobile_Operator_1" class="st4" d="M44.2,183.4v10H45V189l-0.1-4.3l0,0l3.7,8.7h0.6l3.7-8.8l0,0l-0.1,4.4v4.4h0.8v-10
				h-1.1l-3.7,8.8h0l-3.7-8.8L44.2,183.4L44.2,183.4z M56,189.8c0,1,0.3,1.9,0.9,2.7c1.2,1.3,3.2,1.4,4.6,0.2
				c0.1-0.1,0.1-0.1,0.2-0.2c0.6-0.8,0.9-1.7,0.9-2.7v-0.2c0-1-0.3-1.9-0.9-2.7c-1.2-1.3-3.2-1.4-4.6-0.2c-0.1,0.1-0.1,0.1-0.2,0.2
				c-0.6,0.8-0.9,1.7-0.9,2.7V189.8z M56.8,189.6c0-0.8,0.2-1.5,0.7-2.1c0.4-0.6,1.1-0.9,1.8-0.9c0.7,0,1.4,0.3,1.8,0.9
				c0.5,0.6,0.7,1.4,0.7,2.1v0.2c0,0.8-0.2,1.5-0.7,2.2c-0.8,1-2.2,1.2-3.2,0.4c-0.1-0.1-0.3-0.2-0.4-0.4c-0.4-0.6-0.7-1.4-0.7-2.2
				L56.8,189.6L56.8,189.6z M70.5,189.7c0-1-0.2-2-0.8-2.8c-0.5-0.7-1.3-1.1-2.1-1.1c-1,0-1.8,0.5-2.3,1.3v-4.4h-0.8v10.7h0.7
				l0.1-1.1c0.2,0.4,0.6,0.7,0.9,0.9c0.4,0.2,0.9,0.3,1.4,0.3c0.8,0,1.6-0.3,2.1-1c0.5-0.8,0.8-1.7,0.8-2.7L70.5,189.7L70.5,189.7z
				 M69.7,189.9c0,0.8-0.1,1.5-0.5,2.1c-0.4,0.5-1,0.8-1.6,0.8c-0.5,0-1-0.1-1.3-0.4c-0.4-0.3-0.6-0.6-0.8-1V188
				c0.2-0.4,0.4-0.8,0.8-1.1c0.4-0.3,0.9-0.4,1.4-0.4c0.7,0,1.3,0.3,1.6,0.9c0.4,0.7,0.6,1.5,0.6,2.3L69.7,189.9L69.7,189.9z
				 M73.6,186h-0.8v7.4h0.8V186z M73.6,182.7h-0.8v1.2h0.8V182.7z M77.1,182.7h-0.8v10.7h0.8V182.7z M84,193.2
				c0.4-0.2,0.8-0.4,1.1-0.7l-0.3-0.6c-0.3,0.3-0.6,0.5-0.9,0.6c-0.4,0.1-0.9,0.2-1.3,0.2c-0.7,0-1.3-0.3-1.7-0.8
				c-0.5-0.6-0.7-1.3-0.7-2.1v-0.2h5.2V189c0-0.8-0.2-1.7-0.8-2.3c-0.6-0.6-1.3-0.9-2.1-0.9c-0.9,0-1.7,0.4-2.2,1
				c-0.6,0.7-0.9,1.7-0.9,2.6v0.4c0,1,0.3,1.9,0.9,2.6c0.6,0.7,1.4,1,2.3,1C83,193.5,83.6,193.4,84,193.2L84,193.2z M84,187.2
				c0.4,0.4,0.6,1,0.6,1.6v0.2h-4.3l0,0c0-0.6,0.3-1.2,0.7-1.7c0.4-0.4,0.9-0.7,1.5-0.7C83,186.5,83.6,186.7,84,187.2L84,187.2z
				 M38.9,204.6c0.1-1.1-0.3-2.2-1.1-3.1c-0.7-0.8-1.8-1.2-2.8-1.2c-1.1,0-2.1,0.4-2.8,1.2c-0.7,0.9-1.1,2-1,3.1v1.6
				c-0.1,1.1,0.3,2.2,1,3.1c0.7,0.8,1.7,1.2,2.8,1.2c1.1,0,2.1-0.4,2.8-1.2c0.7-0.9,1.1-2,1.1-3.1V204.6z M38.1,206.2
				c0.1,0.9-0.2,1.9-0.8,2.6c-0.6,0.7-1.4,1-2.3,1c-0.9,0-1.7-0.3-2.2-1c-0.6-0.8-0.8-1.7-0.8-2.6v-1.6c0-0.9,0.2-1.9,0.8-2.6
				c0.5-0.7,1.4-1,2.2-1c0.9,0,1.7,0.3,2.3,1c0.6,0.7,0.9,1.7,0.8,2.6L38.1,206.2L38.1,206.2z M47.1,206.7c0-1-0.2-2-0.8-2.8
				c-0.5-0.7-1.3-1.1-2.1-1.1c-0.5,0-1,0.1-1.4,0.3c-0.4,0.2-0.7,0.6-1,1l-0.1-1.1h-0.7v10.2H42v-3.8c0.2,0.4,0.6,0.6,1,0.8
				c0.4,0.2,0.9,0.3,1.4,0.3c0.8,0,1.6-0.3,2.1-1c0.5-0.8,0.8-1.7,0.8-2.7V206.7L47.1,206.7z M46.3,206.9c0,0.8-0.2,1.5-0.6,2.1
				c-0.4,0.5-1,0.8-1.6,0.8c-0.5,0-0.9-0.1-1.3-0.3c-0.4-0.2-0.6-0.6-0.8-1v-3.6c0.2-0.4,0.4-0.8,0.8-1c0.4-0.3,0.9-0.4,1.3-0.4
				c0.7,0,1.3,0.3,1.6,0.9c0.4,0.7,0.6,1.5,0.6,2.3L46.3,206.9L46.3,206.9z M53.6,210.2c0.4-0.2,0.8-0.4,1.1-0.7l-0.3-0.6
				c-0.3,0.3-0.6,0.5-0.9,0.6c-0.4,0.1-0.9,0.2-1.3,0.2c-0.7,0-1.3-0.3-1.7-0.8c-0.5-0.6-0.7-1.3-0.7-2.1v-0.2h5.2V206
				c0-0.8-0.2-1.7-0.8-2.3c-0.6-0.6-1.3-0.9-2.1-0.9c-0.9,0-1.7,0.4-2.2,1c-0.6,0.7-0.9,1.7-0.9,2.6v0.4c0,1,0.3,1.9,0.9,2.6
				c0.6,0.7,1.4,1,2.3,1C52.6,210.5,53.1,210.4,53.6,210.2L53.6,210.2z M53.5,204.2c0.4,0.4,0.6,1,0.6,1.6v0.2h-4.3l0,0
				c0-0.6,0.3-1.2,0.7-1.7c0.8-0.9,2.1-0.9,3-0.1C53.5,204.1,53.5,204.1,53.5,204.2L53.5,204.2z M60.4,202.9c-0.1,0-0.2,0-0.2,0
				c-0.1,0-0.2,0-0.3,0c-0.5,0-0.9,0.1-1.3,0.4c-0.4,0.3-0.7,0.6-0.9,1.1v-0.1l-0.1-1.2h-0.7v7.4h0.8v-5.1c0.1-0.5,0.4-0.9,0.7-1.2
				c0.4-0.3,0.8-0.5,1.3-0.4l0.6,0L60.4,202.9z M67.5,210.4c-0.1-0.2-0.1-0.5-0.1-0.7c0-0.3,0-0.5,0-0.8v-3.6c0-0.7-0.2-1.3-0.7-1.8
				c-0.6-0.4-1.3-0.7-2-0.6c-0.7,0-1.4,0.2-2,0.7c-0.5,0.3-0.8,0.9-0.8,1.5l0,0l0.8,0c0-0.4,0.2-0.8,0.6-1c0.4-0.3,0.9-0.5,1.4-0.4
				c0.5,0,1,0.1,1.4,0.5c0.3,0.3,0.5,0.8,0.5,1.2v0.9h-1.6c-0.8,0-1.7,0.2-2.4,0.6c-0.6,0.4-0.9,1-0.9,1.6c0,0.6,0.2,1.1,0.6,1.5
				c0.5,0.4,1.1,0.6,1.7,0.6c0.5,0,1.1-0.1,1.5-0.4c0.4-0.2,0.8-0.6,1.1-1c0,0.2,0,0.4,0,0.6c0,0.2,0.1,0.4,0.1,0.7L67.5,210.4
				L67.5,210.4z M62.8,209.4c-0.3-0.3-0.4-0.6-0.4-1c0-0.5,0.3-0.9,0.7-1.2c0.5-0.3,1.2-0.5,1.8-0.5h1.6v1.5c-0.2,0.4-0.6,0.8-1,1.1
				c-0.5,0.3-1,0.4-1.6,0.4C63.6,209.8,63.2,209.7,62.8,209.4L62.8,209.4z M70.3,201.1v1.9H69v0.7h1.3v4.8c0,0.6,0.1,1.1,0.4,1.6
				c0.3,0.3,0.8,0.5,1.2,0.5c0.2,0,0.4,0,0.6,0c0.2,0,0.3-0.1,0.5-0.1l-0.1-0.6c-0.2,0-0.3,0-0.4,0.1c-0.1,0-0.3,0-0.4,0
				c-0.3,0-0.5-0.1-0.7-0.3c-0.2-0.3-0.3-0.7-0.3-1v-4.8h1.6V203h-1.6v-1.9H70.3z M74.3,206.8c0,1,0.3,1.9,0.9,2.7
				c1.2,1.3,3.2,1.4,4.6,0.2c0.1-0.1,0.1-0.1,0.2-0.2c0.6-0.8,0.9-1.7,0.9-2.7v-0.2c0-1-0.3-1.9-0.9-2.7c-1.2-1.3-3.2-1.4-4.6-0.2
				c-0.1,0.1-0.1,0.1-0.2,0.2c-0.6,0.8-0.9,1.7-0.9,2.7V206.8z M75.1,206.6c0-0.8,0.2-1.5,0.7-2.1c0.4-0.6,1.1-0.9,1.8-0.9
				c0.7,0,1.4,0.3,1.8,0.9c0.5,0.6,0.7,1.4,0.7,2.1v0.2c0,0.8-0.2,1.5-0.7,2.2c-0.8,1-2.2,1.2-3.2,0.4c-0.1-0.1-0.3-0.2-0.4-0.4
				c-0.4-0.6-0.7-1.4-0.7-2.2L75.1,206.6L75.1,206.6z M86.4,202.9c-0.1,0-0.1,0-0.2,0c-0.1,0-0.2,0-0.3,0c-0.5,0-0.9,0.1-1.3,0.4
				c-0.4,0.3-0.7,0.6-0.9,1.1v-0.1l-0.1-1.2h-0.7v7.4h0.8v-5.1c0.1-0.5,0.4-0.9,0.7-1.2c0.4-0.3,0.8-0.5,1.3-0.4l0.6,0L86.4,202.9z
				 M95.3,200.4l-3.3,0.6v0.6l2.5-0.3v9.1h0.8V200.4z"/>
		</g>
		<g id="dots-2">
			<path class="st2" d="M30.5,130.2c1.2-0.7,2.7-0.3,3.4,0.9c0.7,1.2,0.3,2.7-0.9,3.4c-1.2,0.7-2.7,0.3-3.4-0.9c0,0,0,0,0,0
				C28.9,132.4,29.3,130.9,30.5,130.2z M35.5,138.8c1.2-0.7,2.7-0.3,3.4,0.9c0.7,1.2,0.3,2.7-0.9,3.4c-1.2,0.7-2.7,0.3-3.4-0.9
				c0,0,0,0,0,0C33.9,141.1,34.3,139.5,35.5,138.8L35.5,138.8z M40.5,147.5c1.2-0.7,2.7-0.3,3.4,0.9c0.7,1.2,0.3,2.7-0.9,3.4
				c-1.2,0.7-2.7,0.3-3.4-0.9c0,0,0,0,0,0C38.9,149.7,39.3,148.2,40.5,147.5L40.5,147.5z"/>
			<path class="st2" d="M97.5,130.2c1.2,0.7,1.6,2.2,0.9,3.4c-0.7,1.2-2.2,1.6-3.4,0.9c-1.2-0.7-1.6-2.2-0.9-3.4v0
				C94.8,129.9,96.3,129.5,97.5,130.2z M92.5,138.8c1.2,0.7,1.6,2.2,0.9,3.4c-0.7,1.2-2.2,1.6-3.4,0.9c-1.2-0.7-1.6-2.2-0.9-3.4v0
				C89.8,138.6,91.3,138.1,92.5,138.8L92.5,138.8z M87.5,147.5c1.2,0.7,1.6,2.2,0.9,3.4c-0.7,1.2-2.2,1.6-3.4,0.9
				c-1.2-0.7-1.6-2.2-0.9-3.4v0C84.8,147.2,86.3,146.8,87.5,147.5L87.5,147.5z"/>
		</g>
	</g>
	<g id="right-cloud">
		<g id="cloud-2">
			<path id="Shape_32_copy" class="st3" d="M277.1,204.8c0-12-9.7-21.8-21.8-21.8c-3,0-5.9,0.6-8.6,1.8c-3.5-19.3-22-32-41.3-28.5
				c-10.6,1.9-19.7,8.6-24.8,18.1c-14.1-4-28.9,4.1-32.9,18.3c-4,14.1,4.1,28.9,18.3,32.9c2.4,0.7,4.8,1,7.3,1c0,0,0.1,0,0.1,0v0
				h82.2v0C267.5,226.5,277.1,216.8,277.1,204.8z"/>
			<path id="Mobile_Operator_2" class="st4" d="M189.2,183.4v10h0.8V189l-0.1-4.3l0,0l3.7,8.7h0.6l3.7-8.8l0,0l-0.1,4.4v4.4h0.8v-10
				h-1.1l-3.7,8.8h0l-3.7-8.8L189.2,183.4L189.2,183.4z M201,189.8c0,1,0.3,1.9,0.9,2.7c1.2,1.3,3.2,1.4,4.6,0.2
				c0.1-0.1,0.1-0.1,0.2-0.2c0.6-0.8,0.9-1.7,0.9-2.7v-0.2c0-1-0.3-1.9-0.9-2.7c-1.2-1.3-3.2-1.4-4.6-0.2c-0.1,0.1-0.1,0.1-0.2,0.2
				c-0.6,0.8-0.9,1.7-0.9,2.7V189.8z M201.8,189.6c0-0.8,0.2-1.5,0.7-2.1c0.4-0.6,1.1-0.9,1.8-0.9c0.7,0,1.4,0.3,1.8,0.9
				c0.5,0.6,0.7,1.4,0.7,2.1v0.2c0,0.8-0.2,1.5-0.7,2.2c-0.8,1-2.2,1.2-3.2,0.4c-0.1-0.1-0.3-0.2-0.4-0.4c-0.4-0.6-0.7-1.4-0.7-2.2
				L201.8,189.6L201.8,189.6z M215.5,189.7c0-1-0.2-2-0.8-2.8c-0.5-0.7-1.3-1.1-2.1-1.1c-1,0-1.8,0.5-2.3,1.3v-4.4h-0.8v10.7h0.7
				l0.1-1.1c0.2,0.4,0.6,0.7,0.9,0.9c0.4,0.2,0.9,0.3,1.4,0.3c0.8,0,1.6-0.3,2.1-1c0.5-0.8,0.8-1.7,0.8-2.7L215.5,189.7L215.5,189.7
				z M214.7,189.9c0,0.8-0.1,1.5-0.5,2.1c-0.4,0.5-1,0.8-1.6,0.8c-0.5,0-1-0.1-1.3-0.4c-0.4-0.3-0.6-0.6-0.8-1V188
				c0.2-0.4,0.4-0.8,0.8-1.1c0.4-0.3,0.9-0.4,1.4-0.4c0.7,0,1.3,0.3,1.6,0.9c0.4,0.7,0.6,1.5,0.6,2.3L214.7,189.9L214.7,189.9z
				 M218.6,186h-0.8v7.4h0.8V186z M218.6,182.7h-0.8v1.2h0.8V182.7z M222.1,182.7h-0.8v10.7h0.8V182.7z M229,193.2
				c0.4-0.2,0.8-0.4,1.1-0.7l-0.3-0.6c-0.3,0.3-0.6,0.5-0.9,0.6c-0.4,0.1-0.9,0.2-1.3,0.2c-0.7,0-1.3-0.3-1.7-0.8
				c-0.5-0.6-0.7-1.3-0.7-2.1v-0.2h5.2V189c0-0.8-0.2-1.7-0.8-2.3c-0.6-0.6-1.3-0.9-2.1-0.9c-0.9,0-1.7,0.4-2.2,1
				c-0.6,0.7-0.9,1.7-0.9,2.6v0.4c0,1,0.3,1.9,0.9,2.6c0.6,0.7,1.4,1,2.3,1C228,193.5,228.6,193.4,229,193.2L229,193.2z M229,187.2
				c0.4,0.4,0.6,1,0.6,1.6v0.2h-4.3l0,0c0-0.6,0.3-1.2,0.7-1.7c0.4-0.4,0.9-0.7,1.5-0.7C228,186.5,228.6,186.7,229,187.2L229,187.2z
				 M183.9,204.6c0.1-1.1-0.3-2.2-1.1-3.1c-0.7-0.8-1.8-1.2-2.8-1.2c-1.1,0-2.1,0.4-2.8,1.2c-0.7,0.9-1.1,2-1,3.1v1.6
				c-0.1,1.1,0.3,2.2,1,3.1c0.7,0.8,1.7,1.2,2.8,1.2c1.1,0,2.1-0.4,2.8-1.2c0.7-0.9,1.1-2,1.1-3.1V204.6z M183.1,206.2
				c0,0.9-0.2,1.9-0.8,2.6c-0.6,0.7-1.4,1-2.3,1c-0.9,0-1.7-0.3-2.2-1c-0.6-0.8-0.8-1.7-0.8-2.6v-1.6c0-0.9,0.2-1.9,0.8-2.6
				c0.5-0.7,1.4-1,2.2-1c0.9,0,1.7,0.3,2.3,1c0.6,0.7,0.9,1.7,0.8,2.6L183.1,206.2L183.1,206.2z M192.1,206.7c0-1-0.2-2-0.8-2.8
				c-0.5-0.7-1.3-1.1-2.1-1.1c-0.5,0-1,0.1-1.4,0.3c-0.4,0.2-0.7,0.6-1,1l-0.1-1.1h-0.7v10.2h0.8v-3.8c0.2,0.4,0.6,0.6,1,0.8
				c0.4,0.2,0.9,0.3,1.4,0.3c0.8,0,1.6-0.3,2.1-1c0.5-0.8,0.8-1.7,0.8-2.7V206.7L192.1,206.7z M191.3,206.9c0,0.8-0.2,1.5-0.6,2.1
				c-0.4,0.5-1,0.8-1.6,0.8c-0.5,0-0.9-0.1-1.3-0.3c-0.4-0.2-0.6-0.6-0.8-1v-3.6c0.2-0.4,0.4-0.8,0.8-1c0.4-0.3,0.9-0.4,1.3-0.4
				c0.7,0,1.3,0.3,1.6,0.9c0.4,0.7,0.6,1.5,0.6,2.3V206.9z M198.6,210.2c0.4-0.2,0.8-0.4,1.1-0.7l-0.3-0.6c-0.3,0.3-0.6,0.5-0.9,0.6
				c-0.4,0.1-0.9,0.2-1.3,0.2c-0.7,0-1.3-0.3-1.7-0.8c-0.5-0.6-0.7-1.3-0.7-2.1v-0.2h5.2V206c0-0.8-0.2-1.7-0.8-2.3
				c-0.6-0.6-1.3-0.9-2.1-0.9c-0.9,0-1.7,0.4-2.2,1c-0.6,0.7-0.9,1.7-0.9,2.6v0.4c0,1,0.3,1.9,0.9,2.6c0.6,0.7,1.4,1,2.3,1
				C197.6,210.5,198.1,210.4,198.6,210.2L198.6,210.2z M198.5,204.2c0.4,0.4,0.6,1,0.6,1.6v0.2h-4.3l0,0c0-0.6,0.3-1.2,0.7-1.7
				c0.8-0.9,2.1-0.9,3-0.1C198.5,204.1,198.5,204.1,198.5,204.2L198.5,204.2z M205.4,202.9c-0.1,0-0.2,0-0.2,0c-0.1,0-0.2,0-0.3,0
				c-0.5,0-0.9,0.1-1.3,0.4c-0.4,0.3-0.7,0.6-0.9,1.1v-0.1l-0.1-1.2h-0.7v7.4h0.8v-5.1c0.1-0.5,0.4-0.9,0.7-1.2
				c0.4-0.3,0.8-0.5,1.3-0.4l0.6,0L205.4,202.9z M212.5,210.4c-0.1-0.2-0.1-0.5-0.1-0.7c0-0.3,0-0.5,0-0.8v-3.6
				c0-0.7-0.2-1.3-0.7-1.8c-0.6-0.4-1.3-0.7-2-0.6c-0.7,0-1.4,0.2-2,0.7c-0.5,0.3-0.8,0.9-0.8,1.5l0,0l0.8,0c0-0.4,0.2-0.8,0.6-1
				c0.4-0.3,0.9-0.5,1.4-0.4c0.5,0,1,0.1,1.4,0.5c0.3,0.3,0.5,0.8,0.5,1.2v0.9h-1.6c-0.8,0-1.7,0.2-2.4,0.6c-0.6,0.4-0.9,1-0.9,1.6
				c0,0.6,0.2,1.1,0.6,1.5c0.5,0.4,1.1,0.6,1.7,0.6c0.5,0,1.1-0.1,1.5-0.4c0.4-0.2,0.8-0.6,1.1-1c0,0.2,0,0.4,0,0.6
				c0,0.2,0.1,0.4,0.1,0.7L212.5,210.4L212.5,210.4z M207.8,209.4c-0.3-0.3-0.4-0.6-0.4-1c0-0.5,0.3-0.9,0.7-1.2
				c0.5-0.3,1.2-0.5,1.8-0.5h1.6v1.5c-0.2,0.4-0.6,0.8-1,1.1c-0.5,0.3-1,0.4-1.6,0.4C208.6,209.8,208.2,209.7,207.8,209.4
				L207.8,209.4z M215.3,201.1v1.9H214v0.7h1.3v4.8c0,0.6,0.1,1.1,0.4,1.6c0.3,0.3,0.8,0.5,1.2,0.5c0.2,0,0.4,0,0.6,0
				c0.2,0,0.3-0.1,0.5-0.1l-0.1-0.6c-0.2,0-0.3,0-0.4,0.1c-0.1,0-0.3,0-0.4,0c-0.3,0-0.5-0.1-0.7-0.3c-0.2-0.3-0.3-0.7-0.3-1v-4.8
				h1.6V203h-1.6v-1.9H215.3z M219.3,206.8c0,1,0.3,1.9,0.9,2.7c1.2,1.3,3.2,1.4,4.6,0.2c0.1-0.1,0.1-0.1,0.2-0.2
				c0.6-0.8,0.9-1.7,0.9-2.7v-0.2c0-1-0.3-1.9-0.9-2.7c-1.2-1.3-3.2-1.4-4.6-0.2c-0.1,0.1-0.1,0.1-0.2,0.2c-0.6,0.8-0.9,1.7-0.9,2.7
				V206.8z M220.1,206.6c0-0.8,0.2-1.5,0.7-2.1c0.4-0.6,1.1-0.9,1.8-0.9c0.7,0,1.4,0.3,1.8,0.9c0.5,0.6,0.7,1.4,0.7,2.1v0.2
				c0,0.8-0.2,1.5-0.7,2.2c-0.8,1-2.2,1.2-3.2,0.4c-0.1-0.1-0.3-0.2-0.4-0.4c-0.4-0.6-0.7-1.4-0.7-2.2L220.1,206.6L220.1,206.6z
				 M231.4,202.9c-0.1,0-0.1,0-0.2,0c-0.1,0-0.2,0-0.3,0c-0.5,0-0.9,0.1-1.3,0.4c-0.4,0.3-0.7,0.6-0.9,1.1v-0.1l-0.1-1.2h-0.7v7.4
				h0.8v-5.1c0.1-0.5,0.4-0.9,0.7-1.2c0.4-0.3,0.8-0.5,1.3-0.4l0.6,0L231.4,202.9z M242.8,209.7h-5.1l0,0l2.7-3.1
				c0.5-0.6,1-1.2,1.4-1.9c0.3-0.5,0.5-1.1,0.5-1.7c0-0.7-0.2-1.5-0.8-2c-0.6-0.5-1.3-0.8-2.1-0.7c-0.8,0-1.7,0.3-2.3,0.9
				c-0.6,0.6-0.8,1.3-0.8,2.1l0,0h0.8c0-0.6,0.2-1.2,0.6-1.7c0.5-0.4,1.1-0.7,1.7-0.6c0.6,0,1.1,0.2,1.5,0.6
				c0.4,0.4,0.6,0.9,0.5,1.5c0,0.5-0.1,0.9-0.4,1.3c-0.4,0.6-0.8,1.2-1.3,1.7l-3.3,3.7v0.6h6.2L242.8,209.7L242.8,209.7z"/>
		</g>
		<g id="dots-3">
			<path class="st2" d="M176,130.2c1.2-0.7,2.7-0.3,3.4,0.9c0.7,1.2,0.3,2.7-0.9,3.4c-1.2,0.7-2.7,0.3-3.4-0.9c0,0,0,0,0,0
				C174.4,132.4,174.8,130.9,176,130.2z M181,138.8c1.2-0.7,2.7-0.3,3.4,0.9c0.7,1.2,0.3,2.7-0.9,3.4c-1.2,0.7-2.7,0.3-3.4-0.9
				c0,0,0,0,0,0C179.4,141.1,179.8,139.5,181,138.8L181,138.8z M186,147.5c1.2-0.7,2.7-0.3,3.4,0.9c0.7,1.2,0.3,2.7-0.9,3.4
				c-1.2,0.7-2.7,0.3-3.4-0.9c0,0,0,0,0,0C184.4,149.7,184.8,148.2,186,147.5L186,147.5z"/>
			<path class="st2" d="M243,130.2c1.2,0.7,1.6,2.2,0.9,3.4c-0.7,1.2-2.2,1.6-3.4,0.9c-1.2-0.7-1.6-2.2-0.9-3.4v0
				C240.3,129.9,241.8,129.5,243,130.2z M238,138.8c1.2,0.7,1.6,2.2,0.9,3.4c-0.7,1.2-2.2,1.6-3.4,0.9c-1.2-0.7-1.6-2.2-0.9-3.4v0
				C235.3,138.6,236.8,138.1,238,138.8L238,138.8z M233,147.5c1.2,0.7,1.6,2.2,0.9,3.4c-0.7,1.2-2.2,1.6-3.4,0.9
				c-1.2-0.7-1.6-2.2-0.9-3.4v0C230.3,147.2,231.8,146.8,233,147.5L233,147.5z"/>
		</g>
	</g>
</g>
<g id="_3_copy_2">
	<circle class="st2" cx="138.4" cy="365.5" r="14"/>
	<path id="_3" class="st1" d="M137,366h1.4c0.5,0,1.1,0.1,1.5,0.5c0.4,0.4,0.6,0.9,0.5,1.5c0,0.5-0.2,1-0.5,1.3
		c-0.4,0.3-0.9,0.5-1.4,0.5c-0.5,0-1-0.2-1.3-0.5c-0.3-0.3-0.5-0.8-0.5-1.2h-2.5l0,0.1c-0.1,1,0.4,2.1,1.2,2.7c0.9,0.6,2,1,3.1,0.9
		c1.2,0,2.3-0.3,3.3-1c0.8-0.7,1.3-1.7,1.3-2.8c0-0.7-0.2-1.3-0.6-1.8c-0.4-0.5-1-0.9-1.6-1.2c0.6-0.3,1.1-0.7,1.4-1.2
		c0.3-0.5,0.5-1,0.5-1.6c0.1-1-0.4-2-1.2-2.7c-0.9-0.7-2-1-3.2-1c-1.1,0-2.1,0.3-3,1c-0.8,0.6-1.2,1.5-1.2,2.5l0,0.1h2.5
		c0-0.4,0.2-0.8,0.5-1.1c0.3-0.3,0.8-0.4,1.2-0.4c0.5,0,0.9,0.1,1.3,0.5c0.3,0.3,0.5,0.8,0.4,1.2c0,0.5-0.1,1-0.4,1.3
		c-0.4,0.3-0.9,0.5-1.4,0.5H137L137,366L137,366z"/>
</g>
<g id="_2_copy_3">
	<circle class="st2" cx="138.4" cy="149.5" r="14"/>
	<path id="_2" class="st1" d="M143.1,153.5h-5.4l0,0l2.3-2.5c0.8-0.8,1.5-1.7,2.1-2.6c0.4-0.6,0.6-1.4,0.6-2.1c0-1-0.4-2-1.1-2.7
		c-0.9-0.7-2-1.1-3.1-1c-1.2-0.1-2.3,0.4-3.2,1.2c-0.8,0.8-1.2,1.8-1.1,2.9l0,0.1h2.5c0-0.6,0.1-1.1,0.5-1.6
		c0.3-0.4,0.8-0.6,1.3-0.6c0.5,0,0.9,0.2,1.2,0.5c0.3,0.4,0.5,0.8,0.4,1.3c0,0.5-0.1,0.9-0.4,1.3c-0.4,0.6-0.8,1.2-1.3,1.7l-4.1,4.4
		v1.7h8.7L143.1,153.5L143.1,153.5z"/>
</g>
<g id="_1_copy_5">
	<circle class="st2" cx="138.4" cy="14" r="14"/>
	<path id="_1" class="st1" d="M140.2,7.2L135,7.7v1.8h2.6V20h2.6L140.2,7.2L140.2,7.2z"/>
</g>
<path class="st2" d="M38.2,42H5.6c-1.1,0-2,0.9-2,2v66.5c0,1.1,0.9,2,2,2h32.5c1.1,0,2-0.9,2-2V44C40.2,42.9,39.3,42,38.2,42z
	 M25.5,109.3h-7.3v-2.5h7.3V109.3z M36.9,103.6h-30V49.3h30V103.6z"/>
<path class="st2" d="M115.9,42H84.6c-1.8,0-3.2,1.4-3.2,3.2v64.2c0,1.8,1.4,3.2,3.2,3.2h31.2c1.8,0,3.2-1.4,3.2-3.2V45.2
	C119.1,43.4,117.6,42,115.9,42z M96.7,45.2h8v2.4h-8V45.2z M107.9,109.3H93.4V107h14.4V109.3z M115.9,103.8H84.6V49.9h31.2V103.8z"
	/>
<path class="st2" d="M159.9,42v67.2c0,0,0,0,0,0c0,1.8,1.5,3.3,3.3,3.3h29.3c0,0,0,0,0,0c1.8,0,3.3-1.5,3.3-3.3V42H159.9z
	 M174.1,45.3h6.7v2.5h-6.7V45.3z M192.5,103.4h-29.3V50.3h29.3V103.4z"/>
<path class="st2" d="M271.1,42h-29.8c-1.1,0-2,0.9-2,2v66.5c0,1.1,0.9,2,2,2h29.8c1.1,0,2-0.9,2-2V44C273.1,42.9,272.2,42,271.1,42z
	 M257,44.3c1.3,0,2.3,1,2.3,2.3c0,1.3-1,2.3-2.3,2.3c-1.3,0-2.3-1-2.3-2.3C254.7,45.3,255.7,44.3,257,44.3z M270.1,104.1h-27.6V51.2
	h27.6V104.1z"/>
</svg>
