<?xml version="1.0" encoding="utf-8"?>
<!-- Generator: Adobe Illustrator 19.2.1, SVG Export Plug-In . SVG Version: 6.00 Build 0)  -->
<svg version="1.1" id="_50_tech_diagram_eco.svg" xmlns="http://www.w3.org/2000/svg" xmlns:xlink="http://www.w3.org/1999/xlink"
	 x="0px" y="0px" viewBox="0 0 333 454" style="enable-background:new 0 0 333 454;" xml:space="preserve">
<style type="text/css">
	.st0{fill:#FFD600;}
	.st1{fill:#FFFFFF;}
	.st2{fill:#CAD8DC;}
	.st3{fill:#FFECB3;}
	.st4{fill:#757575;}
</style>
<g id="hub">
	<g id="hub-2">
		<path class="st0" d="M135.3,326h62.4c5.5,0,10,4.5,10,10v62.4c0,5.5-4.5,10-10,10h-62.4c-5.5,0-10-4.5-10-10V336
			C125.3,330.5,129.8,326,135.3,326z"/>
		<path class="st1" d="M166.5,375.6l7.9,4.7c-0.7,3.7,1,7.4,4.1,9.4c4,2.4,9.1,1.1,11.5-2.9c0.1-0.1,0.2-0.3,0.2-0.4
			c2.4-4.3,1-9.6-3.1-12.2c-3.1-1.9-7.1-1.5-9.8,1l-7.9-4.7V361c3.5-1.3,5.7-4.7,5.7-8.4c0-4.9-3.8-8.9-8.6-8.9
			c-4.7,0-8.6,4-8.6,8.9c0,3.7,2.2,7.1,5.7,8.4v9.5l-7.9,4.7c-2.7-2.4-6.7-2.8-9.8-1c-4.1,2.6-5.5,8-3.1,12.2
			c2.2,4.1,7.2,5.7,11.3,3.5c0.1-0.1,0.3-0.1,0.4-0.2c3.2-2,4.8-5.7,4.1-9.4L166.5,375.6z"/>
	</g>
	<g id="dots">
		<path class="st2" d="M160.5,314.9c-1.4,0.8-3.3,0.3-4.1-1.1s-0.3-3.3,1.1-4.1c1.4-0.8,3.3-0.3,4.1,1.1l0,0
			C162.4,312.2,161.9,314.1,160.5,314.9L160.5,314.9z M154.4,304.4c-1.4,0.8-3.3,0.3-4.1-1.1s-0.3-3.3,1.1-4.1
			c1.4-0.8,3.3-0.3,4.1,1.1C156.4,301.7,155.9,303.6,154.4,304.4L154.4,304.4z M148.4,293.9c-1.4,0.8-3.3,0.3-4.1-1.1
			s-0.3-3.3,1.1-4.1c1.4-0.8,3.3-0.3,4.1,1.1C150.3,291.2,149.8,293.1,148.4,293.9L148.4,293.9L148.4,293.9z"/>
		<path class="st2" d="M187.1,288.7c1.5,0.8,1.9,2.7,1.1,4.1c-0.8,1.5-2.7,1.9-4.1,1.1c-1.5-0.8-1.9-2.7-1.1-4.1l0,0
			C183.8,288.3,185.7,287.8,187.1,288.7z M181.1,299.2c1.5,0.8,1.9,2.7,1.1,4.1c-0.8,1.5-2.7,1.9-4.1,1.1c-1.5-0.8-1.9-2.7-1.1-4.1
			l0,0C177.8,298.8,179.6,298.3,181.1,299.2L181.1,299.2z M175,309.7c1.5,0.8,1.9,2.7,1.1,4.1c-0.8,1.5-2.7,1.9-4.1,1.1
			c-1.5-0.8-1.9-2.7-1.1-4.1l0,0C171.7,309.3,173.6,308.8,175,309.7L175,309.7z"/>
	</g>
</g>
<g>
	<g id="left-cloud">
		<g id="cloud">
			<path id="Shape_24_copy" class="st3" d="M158,251.1c0-14.6-11.8-26.5-26.5-26.5c-3.5,0-7,0.7-10.2,2.1
				c-4.3-23.4-26.8-38.8-50.2-34.5c-12.8,2.4-23.8,10.4-30,21.9c-17.2-4.9-35,5.1-39.9,22.3s5.1,35,22.3,39.9
				c2.9,0.8,5.8,1.2,8.8,1.2h99.4l0,0C146.3,277.4,158,265.6,158,251.1z"/>
			<path id="Mobile_Operator_1" class="st4" d="M26.7,245.7v9.2h0.8v-4.1l-0.1-4l0,0l3.4,8.1h0.5l3.4-8.1l0,0l-0.1,4v4.1h0.8v-9.2
				h-1l-3.4,8.1l0,0l-3.4-8.1H26.7z M37.6,251.7c0,0.9,0.3,1.8,0.8,2.5c1.1,1.2,3,1.3,4.2,0.2c0.1-0.1,0.1-0.1,0.2-0.2
				c0.6-0.7,0.9-1.6,0.8-2.5v-0.2c0-0.9-0.3-1.8-0.8-2.5c-1.1-1.2-3-1.3-4.2-0.2c-0.1,0.1-0.1,0.1-0.2,0.2c-0.6,0.7-0.9,1.6-0.8,2.5
				V251.7z M38.4,251.5c0-0.7,0.2-1.4,0.6-2c0.7-0.9,2-1.1,3-0.4c0.1,0.1,0.3,0.2,0.4,0.4c0.4,0.6,0.6,1.3,0.6,2v0.2
				c0,0.7-0.2,1.4-0.6,2c-0.7,0.9-2.1,1.1-3,0.4c-0.1-0.1-0.3-0.2-0.4-0.4c-0.4-0.6-0.6-1.3-0.6-2V251.5L38.4,251.5z M51.1,251.6
				c0-0.9-0.2-1.8-0.7-2.6c-0.4-0.6-1.2-1-1.9-1c-0.4,0-0.9,0.1-1.3,0.3c-0.4,0.2-0.7,0.5-0.9,0.9v-4.1h-0.8v9.9h0.7l0.1-1
				c0.2,0.4,0.5,0.7,0.9,0.9s0.8,0.3,1.3,0.3c0.8,0,1.5-0.3,1.9-0.9c0.5-0.7,0.7-1.6,0.7-2.5V251.6L51.1,251.6z M50.4,251.7
				c0,0.7-0.1,1.4-0.5,2c-0.3,0.5-0.9,0.8-1.5,0.7c-0.4,0-0.9-0.1-1.3-0.4c-0.3-0.2-0.6-0.6-0.8-1v-3.1c0.1-0.4,0.4-0.7,0.7-1
				c0.4-0.3,0.8-0.4,1.3-0.4c0.6,0,1.2,0.3,1.5,0.8c0.4,0.7,0.5,1.4,0.5,2.1L50.4,251.7L50.4,251.7z M54,248.1h-0.8v6.9H54V248.1
				L54,248.1z M54,245.1h-0.8v1.1H54V245.1L54,245.1z M57.3,245.1h-0.8v9.9h0.8V245.1z M63.7,254.9c0.4-0.1,0.7-0.4,1-0.7l-0.3-0.5
				c-0.2,0.2-0.5,0.4-0.9,0.6c-0.4,0.1-0.8,0.2-1.2,0.2c-0.6,0-1.2-0.3-1.6-0.8c-0.4-0.6-0.6-1.2-0.6-1.9v-0.2h4.8V251
				c0-0.8-0.2-1.5-0.7-2.1c-0.5-0.5-1.2-0.8-2-0.8s-1.6,0.4-2.1,1c-0.6,0.7-0.9,1.5-0.9,2.4v0.3c0,0.9,0.3,1.7,0.9,2.4
				c0.5,0.6,1.3,1,2.1,1C62.8,255.1,63.3,255.1,63.7,254.9L63.7,254.9z M63.6,249.2c0.4,0.4,0.5,0.9,0.5,1.5v0.2h-4l0,0
				c0-0.6,0.3-1.2,0.7-1.6c0.4-0.4,0.9-0.6,1.4-0.6C62.7,248.6,63.3,248.8,63.6,249.2L63.6,249.2z M77.2,249.6c0-1.1-0.3-2.1-1-2.9
				c-0.7-0.7-1.6-1.2-2.6-1.1c-1,0-1.9,0.4-2.6,1.1c-0.7,0.8-1,1.8-1,2.9v1.5c0,1.1,0.3,2.1,1,2.9c0.7,0.7,1.6,1.1,2.6,1.1
				s2-0.4,2.6-1.1c0.7-0.8,1-1.8,1-2.9V249.6L77.2,249.6z M76.4,251.1c0,0.9-0.2,1.7-0.8,2.4c-0.5,0.6-1.3,1-2.1,0.9
				c-0.8,0-1.6-0.3-2.1-0.9c-0.5-0.7-0.8-1.6-0.7-2.4v-1.5c0-0.9,0.2-1.7,0.7-2.4c0.5-0.6,1.3-1,2.1-0.9c0.8,0,1.6,0.3,2.1,0.9
				c0.5,0.7,0.8,1.5,0.8,2.4V251.1L76.4,251.1z M84.8,251.6c0-0.9-0.2-1.8-0.7-2.6c-0.4-0.6-1.2-1-1.9-1c-0.4,0-0.9,0.1-1.3,0.3
				s-0.7,0.5-0.9,0.9l-0.1-1.1h-0.6v9.5h0.8V254c0.2,0.3,0.5,0.6,0.9,0.8s0.8,0.3,1.3,0.3c0.8,0,1.5-0.3,1.9-0.9
				c0.5-0.7,0.7-1.6,0.7-2.5v-0.1H84.8z M84.1,251.7c0,0.7-0.1,1.4-0.5,2c-0.3,0.5-0.9,0.8-1.5,0.8c-0.4,0-0.9-0.1-1.2-0.3
				c-0.3-0.2-0.6-0.5-0.8-0.9V250c0.2-0.4,0.4-0.7,0.7-1c0.4-0.3,0.8-0.4,1.2-0.4c0.6,0,1.2,0.3,1.5,0.8c0.4,0.6,0.6,1.4,0.5,2.1
				L84.1,251.7L84.1,251.7z M90.9,254.9c0.4-0.1,0.7-0.4,1-0.7l-0.3-0.5c-0.2,0.2-0.5,0.4-0.9,0.6c-0.4,0.1-0.8,0.2-1.2,0.2
				c-0.6,0-1.2-0.3-1.6-0.8c-0.4-0.6-0.6-1.2-0.6-1.9v-0.2h4.8V251c0-0.8-0.2-1.5-0.7-2.1c-0.5-0.5-1.2-0.8-2-0.8s-1.6,0.4-2.1,1
				c-0.6,0.7-0.9,1.5-0.8,2.4v0.3c0,0.9,0.3,1.7,0.9,2.4c0.5,0.6,1.3,1,2.1,1C89.9,255.1,90.4,255.1,90.9,254.9L90.9,254.9z
				 M90.8,249.2c0.4,0.4,0.5,0.9,0.5,1.5v0.2h-4l0,0c0-0.6,0.3-1.2,0.7-1.6c0.4-0.4,0.9-0.6,1.4-0.6
				C89.9,248.6,90.4,248.8,90.8,249.2L90.8,249.2z M97.2,248.1c-0.1,0-0.1,0-0.2,0s-0.2,0-0.3,0c-0.4,0-0.8,0.1-1.2,0.4
				c-0.3,0.3-0.6,0.6-0.8,1v-0.1l-0.1-1.1h-0.7v6.9h0.8v-4.7c0.1-0.4,0.3-0.8,0.7-1.1c0.3-0.3,0.7-0.4,1.2-0.4h0.6V248.1z
				 M103.8,255c-0.1-0.2-0.1-0.4-0.1-0.7c0-0.2,0-0.5,0-0.7v-3.4c0-0.6-0.2-1.2-0.7-1.7c-0.5-0.4-1.2-0.6-1.8-0.6
				c-0.7,0-1.3,0.2-1.9,0.6c-0.4,0.3-0.7,0.8-0.7,1.4l0,0h0.7c0-0.4,0.2-0.8,0.5-1c0.4-0.3,0.8-0.4,1.3-0.4s0.9,0.1,1.3,0.4
				c0.3,0.3,0.5,0.7,0.5,1.2v0.8h-1.5c-0.8,0-1.6,0.2-2.2,0.6c-0.5,0.3-0.8,0.9-0.8,1.5c0,0.5,0.2,1.1,0.6,1.4
				c0.4,0.4,1,0.6,1.6,0.5c0.5,0,1-0.1,1.4-0.4c0.4-0.2,0.7-0.5,1-0.9c0,0.2,0,0.3,0,0.5s0.1,0.4,0.1,0.6L103.8,255L103.8,255z
				 M99.4,254.1c-0.3-0.2-0.4-0.6-0.4-0.9c0-0.4,0.2-0.9,0.6-1.1c0.5-0.3,1.1-0.5,1.7-0.4h1.5v1.4c-0.2,0.4-0.5,0.8-0.9,1
				c-0.4,0.3-0.9,0.4-1.4,0.4C100.1,254.5,99.7,254.4,99.4,254.1L99.4,254.1z M106.4,246.4v1.8h-1.2v0.6h1.2v4.5
				c0,0.5,0.1,1,0.4,1.5c0.3,0.3,0.7,0.5,1.1,0.5c0.2,0,0.4,0,0.5,0c0.2,0,0.3-0.1,0.5-0.1l-0.1-0.6c-0.1,0-0.3,0-0.4,0.1
				s-0.2,0-0.4,0c-0.2,0-0.5-0.1-0.6-0.3c-0.2-0.3-0.3-0.6-0.2-1v-4.5h1.5v-0.6h-1.5v-1.8L106.4,246.4L106.4,246.4z M110,251.7
				c0,0.9,0.3,1.8,0.8,2.5c1.1,1.2,3,1.3,4.2,0.2c0.1-0.1,0.1-0.1,0.2-0.2c0.6-0.7,0.9-1.6,0.8-2.5v-0.2c0-0.9-0.3-1.8-0.8-2.5
				c-1.1-1.2-3-1.3-4.2-0.2c-0.1,0.1-0.1,0.1-0.2,0.2c-0.6,0.7-0.9,1.6-0.8,2.5V251.7L110,251.7z M110.8,251.5c0-0.7,0.2-1.4,0.6-2
				c0.7-0.9,2-1.1,3-0.4c0.1,0.1,0.3,0.2,0.4,0.4c0.4,0.6,0.6,1.3,0.6,2v0.2c0,0.7-0.2,1.4-0.6,2c-0.7,0.9-2.1,1.1-3,0.4
				c-0.1-0.1-0.3-0.2-0.4-0.4c-0.4-0.6-0.6-1.3-0.6-2V251.5L110.8,251.5z M121.3,248.1c-0.1,0-0.1,0-0.2,0s-0.2,0-0.3,0
				c-0.4,0-0.8,0.1-1.2,0.4c-0.3,0.3-0.6,0.6-0.8,1v-0.1l-0.1-1.1H118v6.9h0.8v-4.7c0.1-0.4,0.3-0.8,0.7-1.1
				c0.3-0.3,0.7-0.4,1.2-0.4h0.6L121.3,248.1z M129.6,245.7l-3.1,0.6v0.5l2.3-0.3v8.5h0.8V245.7L129.6,245.7z"/>
		</g>
		<g id="dots-2">
			<path class="st2" d="M36.2,160.8c1.4-0.8,3.3-0.3,4.1,1.1c0.8,1.4,0.3,3.3-1.1,4.1c-1.4,0.8-3.3,0.3-4.1-1.1
				C34.2,163.5,34.7,161.6,36.2,160.8z M42.2,171.3c1.4-0.8,3.3-0.3,4.1,1.1s0.3,3.3-1.1,4.1c-1.4,0.8-3.3,0.3-4.1-1.1l0,0
				C40.3,174,40.8,172.1,42.2,171.3L42.2,171.3L42.2,171.3z M48.3,181.8c1.4-0.8,3.3-0.3,4.1,1.1c0.8,1.4,0.3,3.3-1.1,4.1
				c-1.4,0.8-3.3,0.3-4.1-1.1S46.8,182.6,48.3,181.8L48.3,181.8L48.3,181.8z"/>
			<path class="st2" d="M117.3,160.8c1.5,0.8,1.9,2.7,1.1,4.1c-0.8,1.5-2.7,1.9-4.1,1.1c-1.5-0.8-1.9-2.7-1.1-4.1l0,0
				C114,160.5,115.9,160,117.3,160.8z M111.3,171.3c1.5,0.8,1.9,2.7,1.1,4.1c-0.8,1.5-2.7,1.9-4.1,1.1c-1.5-0.8-1.9-2.7-1.1-4.1l0,0
				C108,170.9,109.8,170.5,111.3,171.3z M105.2,181.8c1.5,0.8,1.9,2.7,1.1,4.1c-0.8,1.5-2.7,1.9-4.1,1.1c-1.5-0.8-1.9-2.7-1.1-4.1
				l0,0C101.9,181.4,103.8,181,105.2,181.8L105.2,181.8z"/>
		</g>
	</g>
	<g id="right-cloud">
		<g id="cloud-2">
			<path class="st3" d="M175,251.1c0-14.6,11.8-26.5,26.5-26.5c3.5,0,7,0.7,10.2,2.1c4.3-23.4,26.8-38.8,50.2-34.5
				c12.8,2.4,23.9,10.4,30,21.9c17.2-4.9,35,5.1,39.9,22.3s-5.1,35-22.3,39.9c-2.9,0.8-5.8,1.2-8.8,1.2h-99.4l0,0
				C186.8,277.4,175.1,265.6,175,251.1z"/>
			<path id="Mobile_Operator_2" class="st4" d="M203.2,245.7v9.2h0.8v-4.1l-0.1-4l0,0l3.4,8.1h0.5l3.4-8.1l0,0l-0.1,4v4.1h0.8v-9.2
				h-1l-3.4,8.1l0,0l-3.4-8.1H203.2z M214.1,251.7c0,0.9,0.3,1.8,0.8,2.5c1.1,1.2,3,1.3,4.2,0.2c0.1-0.1,0.1-0.1,0.2-0.2
				c0.6-0.7,0.9-1.6,0.8-2.5v-0.2c0-0.9-0.3-1.8-0.8-2.5c-1.1-1.2-3-1.3-4.2-0.2c-0.1,0.1-0.1,0.1-0.2,0.2c-0.6,0.7-0.9,1.6-0.8,2.5
				V251.7z M214.9,251.5c0-0.7,0.2-1.4,0.6-2c0.7-0.9,2-1.1,3-0.4c0.1,0.1,0.3,0.2,0.4,0.4c0.4,0.6,0.6,1.3,0.6,2v0.2
				c0,0.7-0.2,1.4-0.6,2c-0.7,0.9-2.1,1.1-3,0.4c-0.1-0.1-0.3-0.2-0.4-0.4c-0.4-0.6-0.6-1.3-0.6-2V251.5L214.9,251.5z M227.6,251.6
				c0-0.9-0.2-1.8-0.7-2.6c-0.4-0.6-1.2-1-1.9-1c-0.4,0-0.9,0.1-1.3,0.3c-0.4,0.2-0.7,0.5-0.9,0.9v-4.1H222v9.9h0.7l0.1-1
				c0.2,0.4,0.5,0.7,0.9,0.9s0.8,0.3,1.3,0.3c0.8,0,1.5-0.3,1.9-0.9c0.5-0.7,0.7-1.6,0.7-2.5L227.6,251.6L227.6,251.6z M226.9,251.7
				c0,0.7-0.1,1.4-0.5,2c-0.3,0.5-0.9,0.8-1.5,0.7c-0.4,0-0.9-0.1-1.3-0.4c-0.3-0.2-0.6-0.6-0.8-1v-3.1c0.1-0.4,0.4-0.7,0.7-1
				c0.4-0.3,0.8-0.4,1.3-0.4c0.6,0,1.2,0.3,1.5,0.8c0.4,0.7,0.5,1.4,0.5,2.1L226.9,251.7L226.9,251.7z M230.5,248.1h-0.8v6.9h0.8
				V248.1L230.5,248.1z M230.5,245.1h-0.8v1.1h0.8V245.1L230.5,245.1z M233.8,245.1H233v9.9h0.8V245.1z M240.2,254.9
				c0.4-0.1,0.7-0.4,1-0.7l-0.3-0.5c-0.2,0.2-0.5,0.4-0.9,0.6c-0.4,0.1-0.8,0.2-1.2,0.2c-0.6,0-1.2-0.3-1.6-0.8
				c-0.4-0.6-0.6-1.2-0.6-1.9v-0.2h4.8V251c0-0.8-0.2-1.5-0.7-2.1c-0.5-0.5-1.2-0.8-2-0.8s-1.6,0.4-2.1,1c-0.6,0.7-0.9,1.5-0.9,2.4
				v0.3c0,0.9,0.3,1.7,0.9,2.4c0.5,0.6,1.3,1,2.1,1C239.3,255.1,239.8,255.1,240.2,254.9L240.2,254.9z M240.1,249.2
				c0.4,0.4,0.5,0.9,0.5,1.5v0.2h-4l0,0c0-0.6,0.3-1.2,0.7-1.6c0.4-0.4,0.9-0.6,1.4-0.6C239.2,248.6,239.8,248.8,240.1,249.2
				L240.1,249.2z M253.7,249.6c0-1.1-0.3-2.1-1-2.9c-0.7-0.7-1.6-1.2-2.6-1.1c-1,0-1.9,0.4-2.6,1.1c-0.7,0.8-1,1.8-1,2.9v1.5
				c0,1.1,0.3,2.1,1,2.9c0.7,0.7,1.6,1.1,2.6,1.1s2-0.4,2.6-1.1c0.7-0.8,1-1.8,1-2.9V249.6L253.7,249.6z M252.9,251.1
				c0,0.9-0.2,1.7-0.8,2.4c-0.5,0.6-1.3,1-2.1,0.9c-0.8,0-1.6-0.3-2.1-0.9c-0.5-0.7-0.8-1.6-0.7-2.4v-1.5c0-0.9,0.2-1.7,0.7-2.4
				c0.5-0.6,1.3-1,2.1-0.9c0.8,0,1.6,0.3,2.1,0.9c0.5,0.7,0.8,1.5,0.8,2.4V251.1L252.9,251.1z M261.3,251.6c0-0.9-0.2-1.8-0.7-2.6
				c-0.4-0.6-1.2-1-1.9-1c-0.4,0-0.9,0.1-1.3,0.3s-0.7,0.5-0.9,0.9l-0.1-1.1h-0.6v9.5h0.8V254c0.2,0.3,0.5,0.6,0.9,0.8
				s0.8,0.3,1.3,0.3c0.8,0,1.5-0.3,1.9-0.9C261.2,253.5,261.4,252.6,261.3,251.6L261.3,251.6L261.3,251.6z M260.6,251.7
				c0,0.7-0.1,1.4-0.5,2c-0.3,0.5-0.9,0.8-1.5,0.8c-0.4,0-0.9-0.1-1.2-0.3c-0.3-0.2-0.6-0.5-0.8-0.9V250c0.2-0.4,0.4-0.7,0.7-1
				c0.4-0.3,0.8-0.4,1.2-0.4c0.6,0,1.2,0.3,1.5,0.8c0.4,0.6,0.6,1.4,0.5,2.1L260.6,251.7L260.6,251.7z M267.4,254.9
				c0.4-0.1,0.7-0.4,1-0.7l-0.3-0.5c-0.2,0.2-0.5,0.4-0.9,0.6c-0.4,0.1-0.8,0.2-1.2,0.2c-0.6,0-1.2-0.3-1.6-0.8
				c-0.4-0.6-0.6-1.2-0.6-1.9v-0.2h4.9V251c0-0.8-0.2-1.5-0.7-2.1c-0.5-0.5-1.2-0.8-2-0.8s-1.6,0.4-2.1,1c-0.6,0.7-0.9,1.5-0.8,2.4
				v0.3c0,0.9,0.3,1.7,0.9,2.4c0.5,0.6,1.3,1,2.1,1C266.4,255.1,266.9,255.1,267.4,254.9L267.4,254.9z M267.3,249.2
				c0.4,0.4,0.5,0.9,0.5,1.5v0.2h-4l0,0c0-0.6,0.3-1.2,0.7-1.6c0.4-0.4,0.9-0.6,1.4-0.6C266.4,248.6,266.9,248.8,267.3,249.2
				L267.3,249.2z M273.7,248.1c-0.1,0-0.1,0-0.2,0s-0.2,0-0.3,0c-0.4,0-0.8,0.1-1.2,0.4c-0.3,0.3-0.6,0.6-0.8,1v-0.1l-0.1-1.1h-0.7
				v6.9h0.8v-4.7c0.1-0.4,0.3-0.8,0.7-1.1c0.3-0.3,0.7-0.4,1.2-0.4h0.6V248.1z M280.3,255c-0.1-0.2-0.1-0.4-0.1-0.7
				c0-0.2,0-0.5,0-0.7v-3.4c0-0.6-0.2-1.2-0.7-1.7c-0.5-0.4-1.2-0.6-1.8-0.6c-0.7,0-1.3,0.2-1.9,0.6c-0.4,0.3-0.7,0.8-0.7,1.4l0,0
				h0.7c0-0.4,0.2-0.8,0.5-1c0.4-0.3,0.8-0.4,1.3-0.4s0.9,0.1,1.3,0.4c0.3,0.3,0.5,0.7,0.5,1.2v0.8h-1.5c-0.8,0-1.6,0.2-2.2,0.6
				c-0.5,0.3-0.8,0.9-0.8,1.5c0,0.5,0.2,1,0.6,1.4s1,0.6,1.6,0.5c0.5,0,1-0.1,1.4-0.4c0.4-0.2,0.7-0.5,1-0.9c0,0.2,0,0.3,0,0.5
				s0.1,0.4,0.1,0.6L280.3,255L280.3,255z M275.9,254.1c-0.3-0.2-0.4-0.6-0.4-0.9c0-0.4,0.2-0.9,0.6-1.1c0.5-0.3,1.1-0.5,1.7-0.4
				h1.5v1.4c-0.2,0.4-0.5,0.8-0.9,1c-0.4,0.3-0.9,0.4-1.4,0.4C276.6,254.5,276.2,254.4,275.9,254.1L275.9,254.1z M282.9,246.4v1.8
				h-1.2v0.6h1.2v4.5c0,0.5,0.1,1,0.4,1.5c0.3,0.3,0.7,0.5,1.1,0.5c0.2,0,0.4,0,0.5,0c0.2,0,0.3-0.1,0.5-0.1l-0.1-0.6
				c-0.1,0-0.3,0-0.4,0.1s-0.2,0-0.4,0c-0.2,0-0.5-0.1-0.6-0.3c-0.2-0.3-0.3-0.6-0.2-1v-4.5h1.5v-0.6h-1.5v-1.8L282.9,246.4
				L282.9,246.4z M286.5,251.7c0,0.9,0.3,1.8,0.8,2.5c1.1,1.2,3,1.3,4.2,0.2c0.1-0.1,0.1-0.1,0.2-0.2c0.6-0.7,0.9-1.6,0.8-2.5v-0.2
				c0-0.9-0.3-1.8-0.8-2.5c-1.1-1.2-3-1.3-4.2-0.2c-0.1,0.1-0.1,0.1-0.2,0.2c-0.6,0.7-0.9,1.6-0.8,2.5V251.7L286.5,251.7z
				 M287.3,251.5c0-0.7,0.2-1.4,0.6-2c0.7-0.9,2-1.1,3-0.4c0.1,0.1,0.3,0.2,0.4,0.4c0.4,0.6,0.6,1.3,0.6,2v0.2c0,0.7-0.2,1.4-0.6,2
				c-0.7,0.9-2.1,1.1-3,0.4c-0.1-0.1-0.3-0.2-0.4-0.4c-0.4-0.6-0.6-1.3-0.6-2V251.5L287.3,251.5z M297.8,248.1c-0.1,0-0.1,0-0.2,0
				s-0.2,0-0.3,0c-0.4,0-0.8,0.1-1.2,0.4c-0.3,0.3-0.6,0.6-0.8,1v-0.1l-0.1-1.1h-0.7v6.9h0.8v-4.7c0.1-0.4,0.3-0.8,0.7-1.1
				c0.3-0.3,0.7-0.4,1.2-0.4h0.6V248.1z M308.4,254.3h-4.8l0,0l2.5-2.9c0.5-0.5,0.9-1.1,1.3-1.7c0.3-0.5,0.5-1,0.5-1.5
				c0-0.7-0.2-1.4-0.7-1.8c-0.5-0.5-1.2-0.7-1.9-0.7c-0.8,0-1.6,0.3-2.1,0.8s-0.8,1.2-0.8,2l0,0h0.7c0-0.6,0.2-1.1,0.5-1.6
				c0.4-0.4,1-0.6,1.6-0.6c0.5,0,1,0.2,1.4,0.5c0.3,0.4,0.5,0.9,0.5,1.4c0,0.4-0.1,0.8-0.3,1.2c-0.3,0.6-0.7,1.1-1.2,1.6l-3,3.4v0.6
				h5.7L308.4,254.3L308.4,254.3z"/>
		</g>
		<g id="dots-3">
			<path class="st2" d="M212.4,160.8c1.4-0.8,3.3-0.3,4.1,1.1c0.8,1.4,0.3,3.3-1.1,4.1c-1.4,0.8-3.3,0.3-4.1-1.1
				C210.4,163.5,210.9,161.6,212.4,160.8z M218.4,171.3c1.4-0.8,3.3-0.3,4.1,1.1c0.8,1.4,0.3,3.3-1.1,4.1c-1.4,0.8-3.3,0.3-4.1-1.1
				l0,0C216.5,174,217,172.1,218.4,171.3L218.4,171.3L218.4,171.3z M224.5,181.8c1.4-0.8,3.3-0.3,4.1,1.1s0.3,3.3-1.1,4.1
				c-1.4,0.8-3.3,0.3-4.1-1.1C222.6,184.5,223.1,182.6,224.5,181.8L224.5,181.8L224.5,181.8z"/>
			<path class="st2" d="M293.5,160.8c1.5,0.8,1.9,2.7,1.1,4.1c-0.8,1.5-2.7,1.9-4.1,1.1c-1.5-0.8-1.9-2.7-1.1-4.1l0,0
				C290.2,160.5,292.1,160,293.5,160.8z M287.5,171.3c1.5,0.8,1.9,2.7,1.1,4.1c-0.8,1.5-2.7,1.9-4.1,1.1c-1.5-0.8-1.9-2.7-1.1-4.1
				l0,0C284.2,170.9,286,170.5,287.5,171.3z M281.4,181.8c1.5,0.8,1.9,2.7,1.1,4.1c-0.8,1.5-2.7,1.9-4.1,1.1
				c-1.5-0.8-1.9-2.7-1.1-4.1l0,0C278.1,181.4,280,181,281.4,181.8L281.4,181.8z"/>
		</g>
	</g>
</g>
<g id="_3_copy">
	<circle class="st2" cx="166.5" cy="440" r="14"/>
	<path id="_3" class="st1" d="M165.1,440.5h1.4c0.5,0,1.1,0.1,1.5,0.5s0.6,0.9,0.5,1.5c0,0.5-0.2,1-0.5,1.3
		c-0.4,0.3-0.9,0.5-1.4,0.5s-1-0.2-1.3-0.5s-0.5-0.8-0.5-1.2h-2.5v0.1c-0.1,1,0.4,2.1,1.2,2.7c0.9,0.6,2,1,3.1,0.9
		c1.2,0,2.3-0.3,3.3-1c0.8-0.7,1.3-1.7,1.3-2.8c0-0.7-0.2-1.3-0.6-1.8c-0.4-0.5-1-1-1.6-1.2c0.6-0.3,1.1-0.7,1.4-1.2
		c0.3-0.5,0.5-1,0.5-1.6c0.1-1-0.4-2-1.2-2.7c-0.9-0.7-2-1-3.2-1c-1.1,0-2.1,0.3-3,1c-0.8,0.6-1.2,1.5-1.1,2.5v0.1h2.5
		c0-0.4,0.2-0.8,0.5-1.1c0.3-0.3,0.8-0.4,1.2-0.4c0.5,0,0.9,0.1,1.3,0.5c0.3,0.3,0.5,0.8,0.4,1.2c0,0.5-0.1,1-0.4,1.3
		c-0.4,0.3-0.9,0.5-1.4,0.5h-1.4V440.5L165.1,440.5z"/>
</g>
<g id="_2_copy">
	<circle class="st2" cx="166.5" cy="210" r="14"/>
	<path id="_2" class="st1" d="M171.2,214.1h-5.4l0,0l2.3-2.5c0.8-0.8,1.5-1.7,2.1-2.6c0.4-0.6,0.6-1.4,0.6-2.1c0-1-0.4-2-1.1-2.7
		c-0.9-0.7-2-1.1-3.1-1c-1.2-0.1-2.3,0.4-3.2,1.2c-0.8,0.8-1.2,1.8-1.1,2.9v0.1h2.5c0-0.6,0.1-1.1,0.5-1.6c0.3-0.4,0.8-0.6,1.4-0.6
		c0.5,0,0.9,0.2,1.2,0.5c0.3,0.4,0.5,0.8,0.4,1.3c0,0.5-0.1,0.9-0.4,1.3c-0.4,0.6-0.8,1.2-1.3,1.7l-4.1,4.4v1.7h8.7L171.2,214.1
		L171.2,214.1z"/>
</g>
<g id="_1_copy">
	<circle class="st2" cx="166.5" cy="14" r="14"/>
	<path id="_1" class="st1" d="M168.3,7.2l-5.2,0.5v1.8h2.6V20h2.6L168.3,7.2L168.3,7.2z"/>
</g>
<g>
	<path class="st2" d="M45.5,53.9H5.3c-1.1,0-2,0.9-2,2v81.4c0,1.1,0.9,2,2,2h40.2c1.1,0,2-0.9,2-2V55.9
		C47.5,54.8,46.6,53.9,45.5,53.9z M29.8,135.4H21v-3h8.8V135.4z M43.6,128.5H7.2V62.8h36.4C43.6,62.8,43.6,128.5,43.6,128.5z"/>
	<path class="st2" d="M138.9,53.9h-37.8c-2.1,0-3.9,1.7-3.9,3.8v77.8c0,2.1,1.7,3.9,3.9,3.8h37.8c2.1,0,3.9-1.7,3.9-3.8V57.8
		C142.8,55.6,141.1,53.9,138.9,53.9z M115.6,57.8h9.7v2.9h-9.7V57.8z M129.2,135.5h-17.5v-2.9h17.5V135.5z M138.9,128.8h-37.8V63.5
		l0,0h37.8V128.8z"/>
	<path class="st2" d="M192.8,53.9v81.4l0,0c0,2.2,1.8,4,4.1,4h35.5l0,0c2.2,0,4-1.8,4-4V53.9H192.8z M218.1,57.9v3H210v-3H218.1z
		 M232.3,128.3h-35.5V64l0,0h35.5V128.3z"/>
	<path class="st2" d="M327.7,53.9h-36.9c-1.1,0-2,0.9-2,2v81.4c0,1.1,0.9,2,2,2h36.9c1.1,0,2-0.9,2-2V55.9
		C329.7,54.8,328.8,53.9,327.7,53.9z M310.2,56.7L310.2,56.7c1.5,0,2.8,1.3,2.8,2.8s-1.3,2.8-2.8,2.8s-2.8-1.3-2.8-2.8
		S308.6,56.7,310.2,56.7z M326,129.1h-33.5V65H326V129.1z"/>
</g>
</svg>
