<?xml version="1.0" encoding="utf-8"?>
<!-- Generator: Adobe Illustrator 19.2.1, SVG Export Plug-In . SVG Version: 6.00 Build 0)  -->
<svg version="1.1" xmlns="http://www.w3.org/2000/svg" xmlns:xlink="http://www.w3.org/1999/xlink" x="0px" y="0px"
	 viewBox="0 0 734.9 300.1" style="enable-background:new 0 0 734.9 300.1;" xml:space="preserve">
<style type="text/css">
	.st0{fill:#FFECB3;}
	.st1{fill:#757575;}
	.st2{fill:#CAD8DC;}
	.st3{fill:#E5E9EB;}
	.st4{fill:#FFFFFF;}
	.st5{fill:#E6E9EB;}
	.st6{fill:#FFB74D;}
	.st7{fill:#FFD600;}
	.st8{fill:none;enable-background:new    ;}
</style>
<g id="tech_diagram_cloud_2x.svg_50_tech_diagram_cloud.svg">
	<path id="cloud" class="st0" d="M464.9,271.4c0-15.9-12.8-28.8-28.7-28.8c-3.9,0-7.7,0.8-11.3,2.3c-4.7-25.4-29-42.2-54.4-37.5
		c-14,2.6-26,11.3-32.7,23.8c-18.6-5.3-38.1,5.5-43.4,24.1c-5.3,18.6,5.5,38.1,24.1,43.4c3.1,0.9,6.3,1.3,9.6,1.3c0.1,0,0.1,0,0.2,0
		v0h108.3v0C452.2,299.9,464.9,287.2,464.9,271.4z"/>
	<path id="Jibe_Cloud" class="st1" d="M344.1,267.4c0,0.7-0.2,1.4-0.7,1.9c-0.4,0.5-1.1,0.7-1.7,0.7c-0.7,0-1.4-0.2-1.9-0.6
		c-0.5-0.5-0.7-1.2-0.7-1.9h-0.9l0,0c-0.1,0.9,0.2,1.8,0.9,2.4c0.7,0.6,1.6,0.9,2.5,0.8c0.9,0,1.8-0.3,2.4-0.9
		c0.6-0.7,1-1.6,0.9-2.5v-8.1h-0.9V267.4z M349.1,262.2h-0.9v8.5h0.9V262.2z M349.1,258.4h-0.9v1.3h0.9V258.4z M358.9,266.5
		c0.1-1.1-0.2-2.3-0.9-3.2c-0.5-0.8-1.4-1.2-2.4-1.2c-0.5,0-1.1,0.1-1.6,0.4c-0.4,0.3-0.8,0.6-1.1,1.1v-5.1h-0.9v12.2h0.8l0.1-1.3
		c0.3,0.4,0.6,0.8,1.1,1.1c0.5,0.3,1,0.4,1.6,0.4c0.9,0,1.8-0.4,2.4-1.1c0.6-0.9,0.9-2,0.9-3L358.9,266.5L358.9,266.5z M358,266.6
		c0,0.9-0.2,1.7-0.6,2.4c-0.4,0.6-1.1,1-1.8,0.9c-0.5,0-1.1-0.1-1.5-0.4c-0.4-0.3-0.7-0.7-0.9-1.2v-3.8c0.2-0.5,0.5-0.9,0.9-1.2
		c0.5-0.3,1-0.5,1.6-0.5c0.8,0,1.5,0.4,1.9,1c0.4,0.8,0.7,1.7,0.6,2.6L358,266.6L358,266.6z M366.3,270.5c0.5-0.2,0.9-0.4,1.2-0.8
		l-0.4-0.6c-0.3,0.3-0.7,0.5-1.1,0.7c-0.5,0.2-1,0.3-1.5,0.2c-0.8,0-1.5-0.3-2-1c-0.5-0.7-0.8-1.5-0.8-2.4v-0.2h6v-0.8
		c0-1-0.3-1.9-0.9-2.6c-0.6-0.7-1.5-1-2.4-1c-1,0-1.9,0.4-2.5,1.2c-0.7,0.8-1.1,1.9-1,3v0.4c0,1.1,0.3,2.1,1,3
		c0.7,0.8,1.6,1.2,2.6,1.2C365.2,270.8,365.8,270.7,366.3,270.5L366.3,270.5z M366.2,263.5c0.4,0.5,0.7,1.2,0.7,1.8v0.2h-5l0,0
		c0.1-0.7,0.3-1.4,0.8-2c0.4-0.5,1.1-0.8,1.7-0.8C365.1,262.8,365.8,263,366.2,263.5L366.2,263.5z M381.6,267.1
		c-0.1,0.8-0.4,1.6-1,2.2c-0.6,0.5-1.4,0.8-2.2,0.7c-0.9,0-1.8-0.4-2.4-1.2c-0.6-0.9-1-1.9-0.9-3V264c0-1.1,0.3-2.1,0.9-3
		c0.6-0.8,1.5-1.2,2.4-1.2c0.8-0.1,1.6,0.2,2.2,0.8c0.6,0.6,0.9,1.4,1,2.2h0.9l0,0c0-1-0.5-2-1.2-2.7c-0.8-0.7-1.8-1-2.9-1
		c-1.2,0-2.3,0.5-3.1,1.4c-0.8,1-1.2,2.3-1.2,3.6v1.8c-0.1,1.3,0.4,2.5,1.2,3.6c0.8,0.9,1.9,1.4,3.1,1.4c1,0.1,2.1-0.3,2.9-1
		c0.7-0.7,1.2-1.7,1.2-2.7l0,0L381.6,267.1L381.6,267.1z M386.1,258.4h-0.9v12.2h0.9V258.4z M388.5,266.5c0,1.1,0.3,2.2,1,3.1
		c1.4,1.5,3.7,1.6,5.2,0.2c0.1-0.1,0.1-0.1,0.2-0.2c0.7-0.9,1.1-2,1-3.1v-0.3c0-1.1-0.3-2.2-1-3.1c-1.4-1.5-3.7-1.6-5.2-0.2
		c-0.1,0.1-0.2,0.1-0.2,0.2c-0.7,0.9-1.1,1.9-1,3.1V266.5z M389.5,266.3c0-0.9,0.2-1.7,0.7-2.4c0.5-0.7,1.2-1,2.1-1
		c0.8,0,1.6,0.3,2.1,1c0.5,0.7,0.8,1.6,0.8,2.4v0.3c0,0.9-0.2,1.7-0.7,2.5c-0.9,1.1-2.6,1.3-3.7,0.4c-0.2-0.1-0.3-0.3-0.4-0.4
		c-0.5-0.7-0.8-1.6-0.7-2.5V266.3z M404,270.6h0.8v-8.5h-0.9v6c-0.1,0.5-0.5,1-0.9,1.3c-0.5,0.3-1.1,0.5-1.7,0.5
		c-0.6,0-1.1-0.2-1.5-0.7c-0.4-0.7-0.6-1.4-0.5-2.2v-4.9h-0.9v4.9c0,1.3,0.3,2.2,0.8,2.8c0.5,0.6,1.3,0.9,2.1,0.9
		c0.6,0,1.1-0.1,1.6-0.4c0.5-0.3,0.8-0.7,1.1-1.1L404,270.6z M407.3,266.6c-0.1,1.1,0.2,2.1,0.9,3c0.6,0.7,1.4,1.2,2.4,1.1
		c0.5,0,1.1-0.1,1.6-0.4c0.4-0.2,0.8-0.6,1.1-1l0.1,1.2h0.8v-12.2h-0.9v5c-0.3-0.4-0.6-0.8-1.1-1.1c-0.5-0.3-1-0.4-1.5-0.4
		c-1,0-1.9,0.4-2.4,1.2c-0.6,1-0.9,2.1-0.9,3.2V266.6z M408.2,266.5c0-0.9,0.2-1.8,0.6-2.6c0.4-0.7,1.1-1,1.9-1
		c0.5,0,1.1,0.1,1.5,0.5c0.4,0.3,0.7,0.7,0.9,1.2v4c-0.4,1-1.4,1.6-2.5,1.5c-0.7,0-1.4-0.3-1.8-0.9c-0.4-0.7-0.7-1.6-0.6-2.4
		L408.2,266.5L408.2,266.5z"/>
	<g id="dots">
		<path class="st2" d="M527.3,167.1c1.8,1.7,1.9,4.6,0.1,6.4s-4.6,1.9-6.4,0.1s-1.9-4.6-0.1-6.4c0,0,0,0,0.1-0.1
			C522.7,165.4,525.5,165.3,527.3,167.1z M514.4,179.9c1.8,1.7,1.9,4.6,0.1,6.4s-4.6,1.9-6.4,0.1s-1.9-4.6-0.1-6.4c0,0,0,0,0.1-0.1
			C509.8,178.2,512.7,178.2,514.4,179.9L514.4,179.9z M501.6,192.8c1.8,1.7,1.9,4.6,0.1,6.4s-4.6,1.9-6.4,0.1
			c-1.8-1.7-1.9-4.6-0.1-6.4c0,0,0,0,0.1-0.1C497,191,499.9,191,501.6,192.8L501.6,192.8z M488.9,205.3c1.8,1.7,1.9,4.6,0.1,6.4
			s-4.6,1.9-6.4,0.1s-1.9-4.6-0.1-6.4c0,0,0,0,0.1-0.1C484.3,203.6,487.1,203.6,488.9,205.3L488.9,205.3z M476.1,218.1
			c1.8,1.7,1.9,4.6,0.1,6.4s-4.6,1.9-6.4,0.1c-1.8-1.7-1.9-4.6-0.1-6.4c0,0,0,0,0.1-0.1C471.5,216.4,474.3,216.4,476.1,218.1
			L476.1,218.1z"/>
		<path class="st2" d="M220.2,167.1c1.8-1.7,4.6-1.7,6.4,0.1c1.8,1.7,1.8,4.6,0.1,6.3c0,0,0,0,0,0c-1.8,1.7-4.6,1.7-6.4-0.1
			C218.5,171.7,218.5,168.8,220.2,167.1C220.2,167.1,220.2,167.1,220.2,167.1z M233.1,179.9c1.8-1.7,4.6-1.7,6.4,0.1
			c1.8,1.7,1.8,4.6,0.1,6.3c0,0,0,0,0,0c-1.8,1.7-4.6,1.7-6.4-0.1C231.4,184.5,231.4,181.7,233.1,179.9
			C233.1,179.9,233.1,179.9,233.1,179.9L233.1,179.9z M246,192.7c1.7-1.8,4.6-1.9,6.4-0.1c1.8,1.7,1.9,4.6,0.1,6.4
			c-1.7,1.8-4.6,1.9-6.4,0.1c0,0,0,0-0.1-0.1C244.3,197.3,244.2,194.4,246,192.7L246,192.7z M258.5,205.4c1.7-1.8,4.6-1.9,6.4-0.1
			c1.8,1.7,1.9,4.6,0.1,6.4c-1.7,1.8-4.6,1.9-6.4,0.1c0,0,0,0-0.1-0.1C256.8,210,256.8,207.2,258.5,205.4L258.5,205.4z M271.4,218.2
			c1.7-1.8,4.6-1.9,6.4-0.1c1.8,1.7,1.9,4.6,0.1,6.4c-1.7,1.8-4.6,1.9-6.4,0.1c0,0,0,0-0.1-0.1C269.7,222.8,269.6,220,271.4,218.2
			L271.4,218.2z"/>
	</g>
	<g id="phone">
		<path class="st3" d="M502.5,13.1h71.1c2.8,0,5,2.2,5,5v119.7c0,2.8-2.2,5-5,5h-71.1c-2.8,0-5-2.2-5-5V18.1
			C497.5,15.4,499.7,13.1,502.5,13.1z"/>
		<rect x="506.6" y="28.3" class="st4" width="62.9" height="99.3"/>
	</g>
	<g id="phone-2">
		<path class="st5" d="M174.6,13.1h71.1c2.8,0,5,2.2,5,5v119.7c0,2.8-2.2,5-5,5h-71.1c-2.8,0-5-2.2-5-5V18.1
			C169.6,15.4,171.8,13.1,174.6,13.1z"/>
		<rect x="178.7" y="28.3" class="st4" width="62.9" height="99.3"/>
	</g>
	<path class="st2" d="M455.4,67.2l-2.6,2.5l6.3,6.2H288.4l6.3-6.2l-2.6-2.5l-11,10.8l11,10.8l2.6-2.5l-6.3-6.2h170.8l-6.3,6.2
		l2.6,2.5l11-10.8L455.4,67.2z M461,77.7l0.2,0.2l-0.2,0.2V77.7z"/>
	<path id="Shape_1_copy_2" class="st6" d="M734.5,8.3v53.7c0,4.5-3.8,8.2-8.5,8.2l-111.7,0l17-16.5V8.3c0.1-4.6,3.9-8.3,8.5-8.3H726
		C730.6,0,734.4,3.6,734.5,8.3z"/>
	<path id="Shape_1_copy_2-2" class="st7" d="M734.9,161.5V81.1c0-4.5-3.8-8.2-8.5-8.2l-113.3,0l17,16.5v72.2
		c0.1,4.6,3.9,8.3,8.5,8.3h87.8C731,169.8,734.8,166.2,734.9,161.5z"/>
	<path id="Shape_1_copy_2-3" class="st7" d="M0.2,11.9v53.7c0,4.5,3.8,8.2,8.5,8.2l128.2,0l-17-16.5V11.9c-0.1-4.6-3.9-8.3-8.5-8.3
		H8.7C4.1,3.6,0.3,7.3,0.2,11.9z"/>
	<path id="Shape_1_copy_2-4" class="st6" d="M0,156.2V87.2c0-5.8,4.9-10.6,10.9-10.6l125-0.1l-21.8,21.2v58.4
		c0,5.8-4.9,10.6-10.9,10.6H10.9C4.9,166.8,0,162.1,0,156.2z"/>
	<path class="st8" d="z"/>
</g>
<g id="Layer_2">
	<path class="st4" d="M670.3,41.8c-2.4,1.8-5.7,1.8-8.2,0c-0.3-0.3-0.8-0.2-1.1,0.1c0,0,0,0,0,0c-0.3,0.3-0.2,0.8,0.1,1c0,0,0,0,0,0
		c1.4,1.1,3.2,1.7,5,1.7c1.8,0,3.6-0.6,5-1.7c0.3-0.2,0.4-0.7,0.2-1c0,0,0,0,0,0C671.1,41.6,670.6,41.5,670.3,41.8z M660.9,33.4
		c0.8,0,1.5,0.7,1.5,1.5c0,0.8-0.7,1.5-1.5,1.5c-0.8,0-1.5-0.7-1.5-1.5C659.4,34,660,33.4,660.9,33.4L660.9,33.4z M666.2,16.1
		c-9.9,0.1-17.9,8.3-17.8,18.2s8.3,17.9,18.2,17.8c9.9-0.1,17.8-8.1,17.8-18C684.3,24.1,676.2,16.1,666.2,16.1
		C666.2,16.1,666.2,16.1,666.2,16.1L666.2,16.1z M678.2,38.3c-1.7,5.6-6.5,9.7-12.2,9.7c-5.7,0-10.6-4.1-12.2-9.7
		c-2.1-0.3-3.5-2.3-3.2-4.4c0.2-1.5,1.4-2.8,2.9-3.1c3.2-2.2,5.8-5.2,6.2-7.6v0c2,3.9,9.6,7.8,17.9,7.6l0.5,0c1.9,0,3.5,1.7,3.5,3.8
		C681.8,36.6,680.2,38.2,678.2,38.3L678.2,38.3z M671.5,33.4c0.8,0,1.5,0.7,1.5,1.5c0,0.8-0.7,1.5-1.5,1.5c-0.8,0-1.5-0.7-1.5-1.5
		C670,34,670.7,33.4,671.5,33.4C671.5,33.4,671.5,33.4,671.5,33.4L671.5,33.4z"/>
	<path class="st4" d="M704.3,47.9l-2.2-2c-7.8-7.1-13-11.7-13-17.4c0-4.6,3.6-8.3,8.2-8.3c0.1,0,0.1,0,0.2,0c2.6,0,5.1,1.2,6.8,3.2
		c1.7-2,4.2-3.1,6.8-3.2c4.6-0.1,8.3,3.6,8.3,8.1c0,0.1,0,0.1,0,0.2c0,5.7-5.2,10.4-13,17.4L704.3,47.9z"/>
	<path id="Shape_12_copy_4" class="st4" d="M707.6,124.5h-18.9c-1.5,0-2.7,1.2-2.7,2.7v19.1c0,1.5,1.2,2.7,2.7,2.7h5.4l4.1,4.1
		l4.1-4.1h5.4c1.5,0,2.7-1.2,2.7-2.7c0,0,0,0,0,0v-19.1C710.3,125.8,709.1,124.5,707.6,124.5C707.6,124.5,707.6,124.5,707.6,124.5z
		 M698.1,129c2,0,3.7,1.6,3.7,3.6s-1.6,3.7-3.6,3.7c-2,0-3.7-1.6-3.7-3.6c0,0,0,0,0,0C694.5,130.7,696.1,129,698.1,129L698.1,129z
		 M706.2,143.6H690v-1.2c0-2.7,5.4-4.2,8.1-4.2s8.1,1.5,8.1,4.2V143.6z"/>
	<path id="Shape_12_copy_3" class="st4" d="M675,124.5h-18.9c-1.5,0-2.7,1.2-2.7,2.7c0,0,0,0,0,0v19.1c0,1.5,1.2,2.7,2.7,2.7
		c0,0,0,0,0,0h5.4l4.1,4.1l4.1-4.1h5.4c1.5,0,2.7-1.2,2.7-2.7c0,0,0,0,0,0v-19.1C677.7,125.8,676.5,124.5,675,124.5
		C675,124.5,675,124.5,675,124.5z M665.6,129c2,0,3.7,1.6,3.7,3.6s-1.6,3.7-3.6,3.7c-2,0-3.7-1.6-3.7-3.6c0,0,0,0,0,0
		C661.9,130.7,663.5,129,665.6,129L665.6,129z M673.7,143.6h-16.2v-1.2c0-2.7,5.4-4.2,8.1-4.2s8.1,1.5,8.1,4.2V143.6z"/>
	<path id="Shape_12_copy" class="st4" d="M707.6,90.9h-18.9c-1.5,0-2.7,1.2-2.7,2.7v19.1c0,1.5,1.2,2.7,2.7,2.7c0,0,0,0,0,0h5.4
		l4.1,4.1l4.1-4.1h5.4c1.5,0,2.7-1.2,2.7-2.7c0,0,0,0,0,0V93.7C710.3,92.2,709.1,90.9,707.6,90.9C707.6,90.9,707.6,90.9,707.6,90.9z
		 M698.1,95.4c2,0,3.7,1.6,3.7,3.6s-1.6,3.7-3.6,3.7c-2,0-3.7-1.6-3.7-3.6c0,0,0,0,0,0C694.5,97.1,696.1,95.4,698.1,95.4L698.1,95.4
		z M706.2,110H690v-1.2c0-2.7,5.4-4.2,8.1-4.2s8.1,1.5,8.1,4.2V110z"/>
	<path id="Shape_12_copy_2" class="st4" d="M675,90.9h-18.9c-1.5,0-2.7,1.2-2.7,2.7c0,0,0,0,0,0v19.1c0,1.5,1.2,2.7,2.7,2.7
		c0,0,0,0,0,0h5.4l4.1,4.1l4.1-4.1h5.4c1.5,0,2.7-1.2,2.7-2.7c0,0,0,0,0,0V93.7C677.7,92.2,676.5,90.9,675,90.9
		C675,90.9,675,90.9,675,90.9z M665.6,95.4c2,0,3.7,1.6,3.7,3.6s-1.6,3.7-3.6,3.7c-2,0-3.7-1.6-3.7-3.6c0,0,0,0,0,0
		C661.9,97.1,663.5,95.4,665.6,95.4C665.6,95.4,665.6,95.4,665.6,95.4L665.6,95.4z M673.7,110h-16.2v-1.2c0-2.7,5.4-4.2,8.1-4.2
		s8.1,1.5,8.1,4.2V110z"/>
	<path class="st4" d="M69.1,53.3H25.5V59h43.6L69.1,53.3L69.1,53.3z M95.2,30.4H25.5v5.7h69.7V30.4z M25.5,47.5h69.7v-5.7H25.5V47.5
		z M25.5,19v5.7h69.7V19L25.5,19L25.5,19z"/>
	<path class="st4" d="M80.9,93.4H22.4c-2.8,0-5.1,2.3-5.1,5.1v40.6c-0.1,2.7,2.1,5,4.8,5.1h0.3H81c2.7,0.1,5-2,5.1-4.7c0,0,0,0,0,0
		c0-0.1,0-0.3,0-0.4V98.5C86.1,95.7,83.8,93.4,80.9,93.4C80.9,93.4,80.9,93.4,80.9,93.4z M80.9,139.3H22.4V98.5H81L80.9,139.3
		L80.9,139.3z M24.9,136.5L24.9,136.5L24.9,136.5L24.9,136.5z M78.3,126.7l-12.5-18l-10.1,13.1l-5-5.3l-12.9,15.1l-5.3-4.8l-7.6,9.7
		h53.3L78.3,126.7L78.3,126.7z M37.3,113.7c2.7-0.5,4.8-2.6,5.3-5.3c0.6-3.5-1.7-6.8-5.2-7.5c-0.8-0.1-1.5-0.1-2.3,0
		c-2.7,0.4-4.9,2.5-5.3,5.3c-0.6,3.5,1.7,6.8,5.2,7.5C35.7,113.8,36.5,113.8,37.3,113.7L37.3,113.7z M88.6,139.9v-38.8
		c1.4,0,5.1,3.7,5.1,5.1v40.6c0,2.9-2.4,5.3-5.3,5.3l0,0H30c-1.4,0-5.1-3.7-5.1-5.1h59.7C89.9,147,88.7,139.9,88.6,139.9L88.6,139.9
		L88.6,139.9z"/>
</g>
</svg>
