<svg id="home_diagram01_2x.svg_50_home_diagram01.svg" data-name="home_diagram01_2x.svg, 50% home_diagram01.svg" xmlns="http://www.w3.org/2000/svg" width="384.5" height="521" viewBox="0 0 769 1042">
  <defs>
    <style>
      .cls-1 {
        fill: #ffb74d;
      }

      .cls-1, .cls-3, .cls-4 {
        fill-rule: evenodd;
      }

      .cls-2, .cls-3 {
        fill: #fff;
      }

      .cls-4 {
        fill: #ffd600;
      }
    </style>
  </defs>
  <g id="type_bubble" data-name="type bubble">
    <path id="Shape_1_copy_2" data-name="Shape 1 copy 2" class="cls-1" d="M2114.01,1107.81V995.177c0-13.3-11.17-24.065-24.82-24.065l-207.18-.121,49.65,48.369v88.45c0,13.31,11.18,24.19,24.83,24.19h132.7C2102.84,1132,2114.01,1121.12,2114.01,1107.81Z" transform="translate(-1500 -292)"/>
    <circle id="Ellipse_7_copy_2" data-name="Ellipse 7 copy 2" class="cls-2" cx="562.5" cy="761.5" r="11.5"/>
    <circle id="Ellipse_7_copy" data-name="Ellipse 7 copy" class="cls-2" cx="522.5" cy="761.5" r="11.5"/>
    <circle class="cls-2" cx="482.5" cy="761.5" r="11.5"/>
  </g>
  <g id="video_bubble" data-name="video bubble">
    <path id="Shape_1_copy_2-2" data-name="Shape 1 copy 2" class="cls-1" d="M1549,1309.83V1086.17c0-13.3,11.19-24.06,24.87-24.06l318.14-.12-49.74,48.36v199.48c0,13.3-11.19,24.18-24.86,24.18H1573.87C1560.19,1334.01,1549,1323.13,1549,1309.83Z" transform="translate(-1500 -292)"/>
    <path class="cls-3" d="M1641.35,1280.17v-18.39h18.45v18.39h73.79v-18.39h18.45v18.39h18.45V1114.61h-18.45v18.4h-18.45v-18.4H1659.8v18.4h-18.45v-18.4H1622.9v165.56h18.45Zm92.24-128.76h18.45v18.39h-18.45v-18.39Zm0,36.79h18.45v18.39h-18.45V1188.2Zm0,36.79h18.45v18.39h-18.45v-18.39Zm-92.24-73.58h18.45v18.39h-18.45v-18.39Zm0,36.79h18.45v18.39h-18.45V1188.2Zm0,36.79h18.45v18.39h-18.45v-18.39Z" transform="translate(-1500 -292)"/>
  </g>
  <g id="location_bubble" data-name="location bubble">
    <path id="Shape_1_copy_2-3" data-name="Shape 1 copy 2" class="cls-4" d="M1639,836.513V1018.48a15.7,15.7,0,0,0,15.91,15.45l233.1,0.08-31.81-31.06V836.513a15.759,15.759,0,0,0-15.9-15.525H1654.91A15.767,15.767,0,0,0,1639,836.513Z" transform="translate(-1500 -292)"/>
    <path class="cls-3" d="M1746.79,864.679a44.234,44.234,0,0,0-44.32,44.222c0,33.167,44.32,82.126,44.32,82.126s44.31-48.959,44.31-82.126A44.232,44.232,0,0,0,1746.79,864.679Zm0,60.016a15.794,15.794,0,1,1,15.82-15.794A15.817,15.817,0,0,1,1746.79,924.7Z" transform="translate(-1500 -292)"/>
  </g>
  <g id="emoji_bubble" data-name="emoji bubble">
    <path id="Shape_1_copy_2-4" data-name="Shape 1 copy 2" class="cls-1" d="M2115.01,398.859V549.164a19.028,19.028,0,0,1-19.25,18.755l-202.75.094,38.51-37.7V398.859a19.116,19.116,0,0,1,19.26-18.849h144.98A19.108,19.108,0,0,1,2115.01,398.859Z" transform="translate(-1500 -292)"/>
    <path class="cls-3" d="M2033.52,500.656a22.082,22.082,0,0,1-26.58,0,2.465,2.465,0,0,0-3.01,3.9,26.391,26.391,0,0,0,16.3,5.485,26.864,26.864,0,0,0,16.35-5.436,2.449,2.449,0,0,0,.45-3.459A2.519,2.519,0,0,0,2033.52,500.656Zm-30.58-27.676a4.943,4.943,0,1,1-4.94,4.943A4.941,4.941,0,0,1,2002.94,472.98Zm17.29-56.832a59.3,59.3,0,1,0,59.28,59.3A59.269,59.269,0,0,0,2020.23,416.148Zm39.32,73.24c-5.38,18.483-21.09,31.925-39.71,31.925-18.67,0-34.38-13.442-39.72-31.975-5.88-.543-10.52-5.831-10.52-12.453,0-6.276,4.2-11.415,9.73-12.355,10.33-7.216,18.77-17.247,20.21-24.957v-0.049c6.66,13,31.11,25.649,58.43,25.006l1.48-.148c6.33,0,11.41,5.633,11.41,12.552C2070.86,483.755,2065.82,489.338,2059.55,489.388Zm-22.03-16.408a4.943,4.943,0,1,1-4.94,4.943A4.941,4.941,0,0,1,2037.52,472.98Z" transform="translate(-1500 -292)"/>
  </g>
  <g id="friends_bubble" data-name="friends bubble">
    <path id="Shape_1_copy_2-5" data-name="Shape 1 copy 2" class="cls-4" d="M2268.99,931.183V676.8c0-10.348-8.69-18.72-19.32-18.72l-356.68-.094,38.65,37.629V931.183c0,10.349,8.7,18.815,19.33,18.815h298.7C2260.3,950,2268.99,941.532,2268.99,931.183Z" transform="translate(-1500 -292)"/>
    <path class="cls-3" d="M2209.74,777.35H2197.5v18.372h-18.37v12.247h18.37v18.372h12.24V807.969h18.37V795.722h-18.37V777.35Z" transform="translate(-1500 -292)"/>
    <path id="Shape_12_copy_3" data-name="Shape 12 copy 3" class="cls-3" d="M2133.46,715.357H2006.78a18.114,18.114,0,0,0-18.09,18.156V860.608a18.114,18.114,0,0,0,18.09,18.156h36.2L2070.12,906l27.15-27.234h36.19a18.123,18.123,0,0,0,18.1-18.156V733.513A18.123,18.123,0,0,0,2133.46,715.357Zm-63.34,29.958a24.511,24.511,0,1,1-24.43,24.511A24.485,24.485,0,0,1,2070.12,745.315Zm54.29,97.136H2015.83v-8.169c0-18.158,36.2-28.143,54.29-28.143s54.29,9.985,54.29,28.143v8.169Z" transform="translate(-1500 -292)"/>
  </g>
  <g id="photo_bubble" data-name="photo bubble">
    <path id="Shape_1_copy_2-6" data-name="Shape 1 copy 2" class="cls-1" d="M1600.01,699.766V542.227c0-13.331,11.16-24.116,24.8-24.116l284.18-.122-49.62,48.474v133.3c0,13.331-11.16,24.237-24.81,24.237H1624.81C1611.17,724,1600.01,713.1,1600.01,699.766Z" transform="translate(-1500 -292)"/>
    <path id="Shape_30_copy_2" data-name="Shape 30 copy 2" class="cls-3" d="M1786.94,554.226H1653.66a11.655,11.655,0,0,0-11.66,11.65v92.336c0,9.738,8.52,11.651,11.66,11.651l133.28,0.174c7.66,0,11.66-5.738,11.66-11.825V565.876A11.655,11.655,0,0,0,1786.94,554.226Zm0.18,104.508H1653.66V565.876h133.46v92.858ZM1659.4,652.3v0.174l0.13-.174h-0.13Zm121.45-22.258L1752.32,589l-22.97,29.909-11.31-12-29.23,34.256-12.01-10.955L1659.53,652.3h121.32V630.042Zm-93.26-29.735a14.79,14.79,0,0,0,12-12,14.6,14.6,0,0,0-16.88-16.867,14.384,14.384,0,0,0-12,12A14.6,14.6,0,0,0,1687.59,600.307Zm116.93,59.818-0.18-88.336c3.14,0,11.66,8.346,11.66,11.65v92.336a12.023,12.023,0,0,1-12,12H1671.06c-3.14,0-11.66-8.347-11.66-11.651h135.72C1807.13,675.949,1804.52,660.125,1804.52,660.125Z" transform="translate(-1500 -292)"/>
  </g>
  <g id="text_bubble" data-name="text bubble">
    <path id="Shape_1_copy_2-7" data-name="Shape 1 copy 2" class="cls-4" d="M1499.99,310.791v166.43c0,10.333,8.69,18.693,19.3,18.693L1911,496.008l-38.6-37.575V310.791c0-10.333-8.68-18.788-19.3-18.788H1519.29C1508.68,292,1499.99,300.458,1499.99,310.791Z" transform="translate(-1500 -292)"/>
    <path class="cls-3" d="M1711.72,435.123h-129.5v16.943h129.5V435.123Zm77.7-67.775h-207.2v16.944h207.2V367.348Zm-207.2,50.831h207.2V401.236h-207.2v16.943Zm0-84.718V350.4h207.2V333.461h-207.2Z" transform="translate(-1500 -292)"/>
    <path class="cls-3" d="M1784.59,452.831l-16.12-16.492-5.49,5.576,21.61,22.109L1831,416.563l-5.46-5.576Z" transform="translate(-1500 -292)"/>
  </g>
</svg>
