<svg id="home_diagram01_mobile_2x.svg_50_home_diagram01_mobile.svg" data-name="home_diagram01_mobile_2x.svg, 50% home_diagram01_mobile.svg" xmlns="http://www.w3.org/2000/svg" width="249.5" height="259.5" viewBox="0 0 499 519">
  <defs>
    <style>
      .cls-1 {
        fill: #ffb74d;
      }

      .cls-1, .cls-3, .cls-4 {
        fill-rule: evenodd;
      }

      .cls-2, .cls-3 {
        fill: #fff;
      }

      .cls-4 {
        fill: #ffd600;
      }
    </style>
  </defs>
  <g id="fave_bubble" data-name="fave bubble">
    <path id="Shape_1_copy_2" data-name="Shape 1 copy 2" class="cls-1" d="M2980.68,1224.23v-53.4a11.586,11.586,0,0,0-11.73-11.41l-97.87-.06,23.45,22.93v41.94a11.634,11.634,0,0,0,11.73,11.46h62.69A11.634,11.634,0,0,0,2980.68,1224.23Z" transform="translate(-2698 -814)"/>
    <circle id="Ellipse_7_copy_5" data-name="Ellipse 7 copy 5" class="cls-2" cx="261.39" cy="386.22" r="6.23"/>
    <path id="Ellipse_7_copy_4" data-name="Ellipse 7 copy 4" class="cls-3" d="M2937.75,1194.16a6.057,6.057,0,1,1-6.23,6.06A6.148,6.148,0,0,1,2937.75,1194.16Z" transform="translate(-2698 -814)"/>
    <path id="Ellipse_7_copy_3" data-name="Ellipse 7 copy 3" class="cls-3" d="M2916.1,1194.16a6.058,6.058,0,1,1-6.24,6.06A6.154,6.154,0,0,1,2916.1,1194.16Z" transform="translate(-2698 -814)"/>
  </g>
  <g id="video_bubble" data-name="video bubble">
    <path id="Shape_1_copy_2-2" data-name="Shape 1 copy 2" class="cls-1" d="M3012.12,1323.85v-84.73a9.273,9.273,0,0,1,9.4-9.11l120.21-.04-18.79,18.31v75.57a9.315,9.315,0,0,1-9.4,9.16h-92.02A9.315,9.315,0,0,1,3012.12,1323.85Z" transform="translate(-2698 -814)"/>
    <path class="cls-3" d="M3047.02,1312.61v-6.97h6.97v6.97h27.88v-6.97h6.97v6.97h6.97V1249.9h-6.97v6.97h-6.97v-6.97h-27.88v6.97h-6.97v-6.97h-6.98v62.71h6.98Zm34.85-48.78h6.97v6.97h-6.97v-6.97Zm0,13.94h6.97v6.97h-6.97v-6.97Zm0,13.94h6.97v6.97h-6.97v-6.97Zm-34.85-27.88h6.97v6.97h-6.97v-6.97Zm0,13.94h6.97v6.97h-6.97v-6.97Zm0,13.94h6.97v6.97h-6.97v-6.97Z" transform="translate(-2698 -814)"/>
  </g>
  <g id="location_bubble" data-name="location bubble">
    <path id="Shape_1_copy_2-3" data-name="Shape 1 copy 2" class="cls-4" d="M2698.01,1166.9v131.6a11.349,11.349,0,0,0,11.49,11.17l168.41,0.05-22.98-22.45V1166.9a11.391,11.391,0,0,0-11.49-11.22H2709.5A11.391,11.391,0,0,0,2698.01,1166.9Z" transform="translate(-2698 -814)"/>
    <path class="cls-3" d="M2775.88,1187.27a31.978,31.978,0,0,0-32.02,31.98c0,23.99,32.02,59.39,32.02,59.39s32.02-35.4,32.02-59.39A31.978,31.978,0,0,0,2775.88,1187.27Zm0,43.4a11.42,11.42,0,1,1,11.43-11.42A11.433,11.433,0,0,1,2775.88,1230.67Z" transform="translate(-2698 -814)"/>
  </g>
  <g id="emoji_bubble" data-name="emoji bubble">
    <path id="Shape_1_copy_2-4" data-name="Shape 1 copy 2" class="cls-1" d="M3150.55,897v108.7a13.758,13.758,0,0,1-13.91,13.56l-146.48.07,27.82-27.264V897a13.822,13.822,0,0,1,13.92-13.63h104.74A13.813,13.813,0,0,1,3150.55,897Z" transform="translate(-2698 -814)"/>
    <path class="cls-3" d="M3091.67,970.617a15.932,15.932,0,0,1-19.2,0,1.781,1.781,0,0,0-2.17,2.824,19.017,19.017,0,0,0,11.77,3.967,19.434,19.434,0,0,0,11.82-3.932,1.784,1.784,0,0,0,.32-2.5A1.825,1.825,0,0,0,3091.67,970.617ZM3069.58,950.6a3.574,3.574,0,1,1-3.57,3.574A3.573,3.573,0,0,1,3069.58,950.6Zm12.49-41.1a42.886,42.886,0,1,0,42.83,42.886A42.84,42.84,0,0,0,3082.07,909.505Zm28.41,52.964c-3.89,13.367-15.24,23.087-28.69,23.087-13.49,0-24.84-9.72-28.69-23.123a9.162,9.162,0,0,1-.58-17.94c7.46-5.218,13.57-12.473,14.6-18.048v-0.036c4.82,9.4,22.48,18.549,42.22,18.084l1.07-.107c4.57,0,8.24,4.074,8.24,9.077C3118.65,958.4,3115.01,962.433,3110.48,962.469ZM3094.56,950.6a3.574,3.574,0,1,1-3.56,3.574A3.567,3.567,0,0,1,3094.56,950.6Z" transform="translate(-2698 -814)"/>
  </g>
  <g id="friends_bubble" data-name="friends bubble">
    <path id="Shape_1_copy_2-5" data-name="Shape 1 copy 2" class="cls-4" d="M3197,1191.96V1052.33a10.469,10.469,0,0,0-10.63-10.27l-196.17-.05,21.26,20.65v129.3a10.519,10.519,0,0,0,10.63,10.33h164.28A10.519,10.519,0,0,0,3197,1191.96Z" transform="translate(-2698 -814)"/>
    <path class="cls-3" d="M3164.41,1107.52h-6.73v10.09h-10.11v6.72h10.11v10.08h6.73v-10.08h10.1v-6.72h-10.1v-10.09Z" transform="translate(-2698 -814)"/>
    <path id="Shape_12_copy_3" data-name="Shape 12 copy 3" class="cls-3" d="M3122.46,1073.5h-69.67a9.961,9.961,0,0,0-9.96,9.96v69.76a9.963,9.963,0,0,0,9.96,9.97h19.9l14.93,14.95,14.93-14.95h19.91a9.955,9.955,0,0,0,9.95-9.97v-69.76A9.952,9.952,0,0,0,3122.46,1073.5Zm-34.84,16.44a13.455,13.455,0,1,1-13.43,13.45A13.452,13.452,0,0,1,3087.62,1089.94Zm29.86,53.32h-59.72v-4.49c0-9.96,19.91-15.44,29.86-15.44s29.86,5.48,29.86,15.44v4.49Z" transform="translate(-2698 -814)"/>
  </g>
  <g id="photo_bubble" data-name="photo bubble">
    <path id="Shape_1_copy_2-6" data-name="Shape 1 copy 2" class="cls-1" d="M2778.47,1114.61V1000.68a17.71,17.71,0,0,1,17.92-17.44l205.31-.087-35.84,35.057v96.4a17.787,17.787,0,0,1-17.93,17.53H2796.39A17.785,17.785,0,0,1,2778.47,1114.61Z" transform="translate(-2698 -814)"/>
    <path id="Shape_30_copy_3" data-name="Shape 30 copy 3" class="cls-3" d="M2913.96,1009.65h-96.52a8.44,8.44,0,0,0-8.44,8.43v66.87c0,7.05,6.18,8.43,8.44,8.43l96.52,0.13c5.54,0,8.44-4.16,8.44-8.56v-66.87A8.44,8.44,0,0,0,2913.96,1009.65Zm0.12,75.67h-96.64v-67.24h96.64v67.24Zm-92.48-4.66v0.13l0.1-.13h-0.1Zm87.95-16.11-20.67-29.72-16.63,21.66-8.19-8.69-21.17,24.81-8.69-7.94-12.5,15.99h87.85v-16.11Zm-67.54-21.53a10.744,10.744,0,0,0,8.7-8.69,10.585,10.585,0,0,0-12.23-12.22,10.441,10.441,0,0,0-8.69,8.69A10.582,10.582,0,0,0,2842.01,1043.02Zm84.67,43.31-0.12-63.96c2.26,0,8.44,6.04,8.44,8.43v66.86a8.711,8.711,0,0,1-8.7,8.69h-96.26c-2.26,0-8.44-6.04-8.44-8.44h98.28C2928.57,1097.79,2926.68,1086.33,2926.68,1086.33Z" transform="translate(-2698 -814)"/>
  </g>
  <g id="text_bubble" data-name="text bubble">
    <path id="Shape_1_copy_2-7" data-name="Shape 1 copy 2" class="cls-4" d="M2706.22,827.589V947.946a13.749,13.749,0,0,0,13.94,13.519l283,0.068-27.89-27.173V827.589A13.805,13.805,0,0,0,2961.33,814H2720.16A13.805,13.805,0,0,0,2706.22,827.589Z" transform="translate(-2698 -814)"/>
    <path id="Shape_28_copy" data-name="Shape 28 copy" class="cls-3" d="M2903.77,930.934l-12.78-13.04-4.35,4.409,17.13,17.481,36.76-37.526-4.32-4.408Z" transform="translate(-2698 -814)"/>
    <path class="cls-3" d="M2853.88,912.629h-87.11v11.313h87.11V912.629Zm52.26-45.253H2766.77V878.69h139.37V867.376Zm-139.37,33.939h139.37V890H2766.77v11.312Zm0-56.565v11.313h139.37V844.75H2766.77Z" transform="translate(-2698 -814)"/>
  </g>
</svg>
