<?xml version="1.0" encoding="utf-8"?>
<!-- Generator: Adobe Illustrator 19.2.1, SVG Export Plug-In . SVG Version: 6.00 Build 0)  -->
<svg version="1.1" id="home_diagram_eco_2x.svg_50_home_diagram_eco.svg"
	 xmlns="http://www.w3.org/2000/svg" xmlns:xlink="http://www.w3.org/1999/xlink" x="0px" y="0px" viewBox="0 0 801 364.1"
	 style="enable-background:new 0 0 801 364.1;" xml:space="preserve">
<style type="text/css">
	.st0{opacity:0.5;fill:#FFFFFF;stroke:#F3D72B;stroke-width:5;stroke-dasharray:20,10;enable-background:new    ;}
	.st1{fill:#FFFFFF;}
	.st2{fill:#757575;}
	.st3{fill:#CAD8DC;}
	.st4{fill:#FFD600;}
	.st5{fill:#FFECB3;}
	.st6{fill:#EAEFF1;}
	.st7{fill:#EBEFF1;}
	.st8{opacity:0.3;fill:#757575;enable-background:new    ;}
</style>
<path id="Rounded_Rectangle_1" class="st0" d="M476.4,9.4h313.3c5.5,0,10,4.5,10,10v333.4c0,5.5-4.5,10-10,10H476.4
	c-5.5,0-10-4.5-10-10V19.4C466.4,13.9,470.9,9.4,476.4,9.4z"/>
<rect x="521.7" class="st1" width="223" height="24"/>
<path id="Google_hosted_Jibe_platform" class="st2" d="M550.2,10.3h-3.5V11h2.6v2.6c-0.3,0.3-0.6,0.5-0.9,0.6
	c-0.5,0.2-1.1,0.3-1.7,0.3c-0.9,0-1.7-0.3-2.3-1c-0.6-0.7-0.9-1.6-0.9-2.6V9.1c0-0.9,0.3-1.8,0.8-2.5c0.5-0.6,1.3-1,2.2-1
	c0.7,0,1.4,0.2,2,0.6c0.5,0.4,0.7,1,0.8,1.6h0.8l0,0c-0.1-0.8-0.4-1.6-1-2.1c-0.7-0.6-1.6-0.9-2.5-0.8c-1,0-2,0.4-2.7,1.2
	c-0.7,0.8-1.1,1.9-1.1,3V11c0,1.1,0.4,2.2,1.1,3.1c0.7,0.8,1.8,1.2,2.8,1.2c0.8,0,1.5-0.1,2.2-0.4c0.5-0.2,0.9-0.5,1.2-0.9V10.3z
	 M552.4,11.5c0,1,0.3,1.9,0.9,2.7c0.6,0.7,1.5,1.1,2.4,1c0.9,0,1.8-0.4,2.4-1c0.6-0.8,0.9-1.7,0.9-2.7v-0.2c0-1-0.3-1.9-0.9-2.7
	c-1.2-1.3-3.2-1.4-4.6-0.2c-0.1,0.1-0.1,0.1-0.2,0.2c-0.6,0.8-0.9,1.7-0.9,2.7V11.5z M553.2,11.3c0-0.8,0.2-1.5,0.7-2.1
	c0.8-1,2.2-1.2,3.2-0.4c0.1,0.1,0.3,0.2,0.4,0.4c0.4,0.6,0.7,1.4,0.7,2.1v0.2c0,0.8-0.2,1.5-0.7,2.2c-0.4,0.6-1.1,0.9-1.8,0.9
	c-0.7,0-1.4-0.3-1.8-0.9c-0.4-0.6-0.7-1.4-0.7-2.2V11.3z M560.5,11.5c0,1,0.3,1.9,0.9,2.7c1.2,1.3,3.2,1.4,4.6,0.2
	c0.1-0.1,0.1-0.1,0.2-0.2c0.6-0.8,0.9-1.7,0.9-2.7v-0.2c0-1-0.3-1.9-0.9-2.7c-1.2-1.3-3.2-1.4-4.6-0.2c-0.1,0.1-0.1,0.1-0.2,0.2
	c-0.6,0.8-0.9,1.7-0.9,2.7V11.5z M561.3,11.3c0-0.8,0.2-1.5,0.7-2.1c0.4-0.6,1.1-0.9,1.8-0.9c0.7,0,1.4,0.3,1.8,0.9
	c0.4,0.6,0.7,1.4,0.7,2.1v0.2c0,0.8-0.2,1.5-0.7,2.2c-0.8,1-2.2,1.2-3.2,0.4c-0.1-0.1-0.3-0.2-0.4-0.4c-0.4-0.6-0.7-1.4-0.7-2.2
	V11.3z M568.8,11.6c0,0.9,0.2,1.9,0.8,2.6c0.5,0.7,1.3,1,2.1,1c0.5,0,0.9-0.1,1.3-0.3c0.4-0.2,0.7-0.5,1-0.9V15
	c0,0.6-0.2,1.2-0.5,1.7c-0.4,0.4-1,0.7-1.6,0.6c-0.3,0-0.7,0-1-0.1c-0.3-0.1-0.6-0.2-0.9-0.3l-0.2,0.7c0.3,0.2,0.7,0.3,1.1,0.4
	c0.4,0.1,0.8,0.1,1.1,0.1c0.8,0,1.6-0.3,2.2-0.8c0.6-0.6,0.8-1.4,0.8-2.3V7.7h-0.7L574,8.9c-0.2-0.4-0.6-0.7-1-1
	c-0.4-0.2-0.9-0.4-1.4-0.3c-0.8,0-1.6,0.4-2.1,1.1c-0.5,0.8-0.8,1.8-0.8,2.8L568.8,11.6L568.8,11.6z M569.6,11.4
	c0-0.8,0.2-1.6,0.5-2.3c0.3-0.6,1-0.9,1.6-0.9c0.5,0,1,0.1,1.3,0.4c0.3,0.3,0.6,0.6,0.8,1.1v3.4c-0.2,0.4-0.5,0.8-0.8,1
	c-0.4,0.3-0.9,0.4-1.3,0.4c-0.6,0-1.3-0.3-1.6-0.8c-0.4-0.6-0.6-1.4-0.5-2.1V11.4z M578.2,4.4h-0.8v10.7h0.8V4.4z M585.1,15
	c0.4-0.2,0.8-0.4,1.1-0.7l-0.3-0.6c-0.3,0.3-0.6,0.5-0.9,0.6c-0.4,0.2-0.9,0.2-1.3,0.2c-0.7,0-1.3-0.3-1.7-0.8
	c-0.5-0.6-0.7-1.3-0.7-2.1v-0.2h5.2v-0.7c0-0.8-0.2-1.7-0.8-2.3c-0.6-0.6-1.3-0.9-2.1-0.9c-0.9,0-1.7,0.4-2.2,1
	c-0.6,0.7-0.9,1.7-0.9,2.6v0.4c0,1,0.3,1.9,0.9,2.6c0.6,0.7,1.4,1,2.3,1C584.1,15.2,584.6,15.1,585.1,15z M585,8.9
	c0.4,0.4,0.6,1,0.6,1.6v0.2h-4.3l0,0c0-0.6,0.3-1.2,0.7-1.7c0.8-0.9,2.1-0.9,3-0.2C584.9,8.8,585,8.8,585,8.9L585,8.9z M592.9,4.4
	h-0.8v10.7h0.8V9.9c0.2-0.5,0.4-0.9,0.8-1.2c0.4-0.3,0.9-0.5,1.4-0.4c0.5,0,1,0.2,1.3,0.5c0.4,0.5,0.5,1.1,0.5,1.7v4.6h0.8v-4.6
	c0.1-0.8-0.2-1.6-0.6-2.2c-0.5-0.5-1.1-0.8-1.8-0.7c-0.5,0-1,0.1-1.4,0.4c-0.4,0.3-0.8,0.6-1,1L592.9,4.4L592.9,4.4z M599.8,11.5
	c0,1,0.3,1.9,0.9,2.7c0.6,0.7,1.5,1.1,2.4,1c0.9,0,1.8-0.4,2.4-1c0.6-0.8,0.9-1.7,0.9-2.7v-0.2c0-1-0.3-1.9-0.9-2.7
	c-1.2-1.3-3.2-1.4-4.6-0.2c-0.1,0.1-0.1,0.1-0.2,0.2c-0.6,0.8-0.9,1.7-0.9,2.7V11.5z M600.6,11.3c0-0.8,0.2-1.5,0.7-2.1
	c0.8-1,2.2-1.2,3.2-0.4c0.1,0.1,0.3,0.2,0.4,0.4c0.4,0.6,0.7,1.4,0.7,2.1v0.2c0,0.8-0.2,1.5-0.7,2.2c-0.4,0.6-1.1,0.9-1.8,0.9
	c-0.7,0-1.4-0.3-1.8-0.9c-0.4-0.6-0.7-1.4-0.7-2.2V11.3z M612.3,14.1c-0.4,0.3-0.9,0.4-1.4,0.4c-0.5,0-1-0.1-1.4-0.4
	c-0.4-0.2-0.7-0.7-0.7-1.2h-0.8l0,0c0,0.6,0.2,1.2,0.7,1.5c0.6,0.5,1.4,0.7,2.1,0.6c0.7,0,1.4-0.2,2-0.6c0.5-0.3,0.8-0.9,0.8-1.5
	c0-0.5-0.2-1.1-0.7-1.4c-0.6-0.4-1.3-0.7-2-0.8c-0.6-0.1-1.1-0.3-1.5-0.6c-0.2-0.2-0.4-0.5-0.4-0.8c0-0.4,0.2-0.7,0.5-0.9
	c0.8-0.5,1.9-0.5,2.7,0.1c0.3,0.3,0.5,0.6,0.5,1.1h0.8l0,0c0-0.6-0.2-1.2-0.7-1.6c-0.6-0.4-1.3-0.7-2-0.6c-0.7,0-1.3,0.2-1.9,0.6
	c-0.5,0.3-0.7,0.9-0.7,1.4c0,0.5,0.2,1,0.6,1.3c0.6,0.4,1.3,0.6,2,0.8c0.6,0.1,1.1,0.3,1.5,0.6c0.3,0.2,0.4,0.6,0.4,0.9
	C612.8,13.6,612.6,13.9,612.3,14.1L612.3,14.1z M616.3,5.8v1.9h-1.3v0.7h1.3v4.8c0,0.6,0.1,1.1,0.4,1.6c0.3,0.3,0.8,0.5,1.2,0.5
	c0.2,0,0.4,0,0.6-0.1c0.2,0,0.3-0.1,0.5-0.1l-0.1-0.6c-0.2,0-0.3,0.1-0.4,0.1s-0.3,0-0.4,0c-0.3,0-0.5-0.1-0.7-0.3
	c-0.2-0.3-0.3-0.7-0.3-1V8.3h1.6V7.7h-1.6V5.8H616.3z M625.2,15c0.4-0.2,0.8-0.4,1.1-0.7l-0.3-0.6c-0.3,0.3-0.6,0.5-0.9,0.6
	c-0.4,0.1-0.9,0.2-1.3,0.2c-0.7,0-1.3-0.3-1.7-0.8c-0.5-0.6-0.7-1.3-0.7-2.1v-0.2h5.2v-0.7c0-0.8-0.2-1.7-0.8-2.3
	c-0.6-0.6-1.3-0.9-2.1-0.9c-0.9,0-1.7,0.4-2.2,1c-0.6,0.7-0.9,1.7-0.9,2.6v0.4c0,1,0.3,1.9,0.9,2.6c0.6,0.7,1.4,1,2.3,1
	C624.2,15.2,624.7,15.1,625.2,15L625.2,15z M625.1,8.9c0.4,0.4,0.6,1,0.6,1.6v0.2h-4.3l0,0c0-0.6,0.3-1.2,0.7-1.7
	c0.8-0.9,2.1-0.9,2.9-0.2C625,8.8,625.1,8.8,625.1,8.9L625.1,8.9z M628.1,11.6c0,0.9,0.2,1.9,0.8,2.6c0.5,0.7,1.3,1,2.1,1
	c0.5,0,0.9-0.1,1.4-0.3c0.4-0.2,0.7-0.5,1-0.9l0.1,1.1h0.7V4.4h-0.8v4.4c-0.2-0.4-0.6-0.7-0.9-0.9c-0.4-0.2-0.9-0.3-1.3-0.3
	c-0.8,0-1.6,0.4-2.1,1.1c-0.5,0.8-0.8,1.8-0.8,2.8L628.1,11.6L628.1,11.6z M628.9,11.4c0-0.8,0.2-1.6,0.5-2.3c0.3-0.6,1-0.9,1.6-0.9
	c0.5,0,1,0.1,1.3,0.4c0.3,0.3,0.6,0.6,0.8,1.1v3.5c-0.2,0.4-0.5,0.7-0.8,1c-0.4,0.2-0.9,0.4-1.3,0.4c-0.6,0-1.3-0.3-1.6-0.8
	c-0.4-0.6-0.6-1.4-0.5-2.1V11.4L628.9,11.4z M644.9,12.2c0,0.6-0.2,1.2-0.6,1.7c-0.4,0.4-0.9,0.6-1.5,0.6c-0.6,0-1.2-0.2-1.6-0.6
	c-0.4-0.4-0.6-1-0.6-1.6h-0.8l0,0c-0.1,0.8,0.2,1.6,0.8,2.1c0.6,0.5,1.4,0.8,2.2,0.7c0.8,0,1.5-0.3,2.1-0.8c0.6-0.6,0.9-1.4,0.8-2.2
	V5.1h-0.8L644.9,12.2L644.9,12.2z M649.3,7.7h-0.8v7.4h0.8V7.7z M649.3,4.4h-0.8v1.1h0.8V4.4z M657.9,11.4c0-1-0.2-2-0.8-2.8
	c-0.5-0.7-1.3-1.1-2.1-1.1c-0.5,0-1,0.1-1.4,0.3c-0.4,0.2-0.7,0.6-0.9,1V4.4h-0.8v10.7h0.7l0.1-1.1c0.2,0.4,0.6,0.7,1,0.9
	c0.4,0.2,0.9,0.3,1.4,0.3c0.8,0,1.6-0.3,2.1-1c0.5-0.8,0.8-1.7,0.8-2.6L657.9,11.4L657.9,11.4z M657,11.6c0,0.8-0.1,1.5-0.5,2.1
	c-0.4,0.5-1,0.8-1.6,0.8c-0.5,0-1-0.1-1.3-0.4c-0.4-0.3-0.6-0.6-0.8-1V9.8c0.2-0.4,0.4-0.8,0.8-1.1c0.4-0.3,0.9-0.5,1.4-0.4
	c0.7,0,1.3,0.3,1.6,0.9c0.4,0.7,0.6,1.5,0.5,2.3L657,11.6L657,11.6z M664.4,15c0.4-0.2,0.8-0.4,1.1-0.7l-0.3-0.6
	c-0.3,0.3-0.6,0.5-0.9,0.6c-0.4,0.1-0.9,0.2-1.3,0.2c-0.7,0-1.3-0.3-1.7-0.8c-0.5-0.6-0.7-1.3-0.7-2.1v-0.2h5.2v-0.7
	c0-0.8-0.2-1.7-0.8-2.3c-0.6-0.6-1.3-0.9-2.1-0.9c-0.9,0-1.7,0.4-2.2,1c-0.6,0.7-0.9,1.7-0.9,2.6v0.4c0,1,0.3,1.9,0.9,2.6
	c0.6,0.7,1.4,1,2.3,1C663.4,15.2,663.9,15.1,664.4,15z M664.3,8.9c0.4,0.4,0.6,1,0.6,1.6v0.2h-4.3l0,0c0-0.6,0.3-1.2,0.7-1.7
	c0.4-0.4,0.9-0.7,1.5-0.7C663.3,8.2,663.9,8.4,664.3,8.9L664.3,8.9z M677.3,11.4c0-1-0.2-2-0.8-2.8c-0.5-0.7-1.3-1.1-2.1-1.1
	c-0.5,0-1,0.1-1.4,0.3c-0.4,0.2-0.7,0.6-1,1l-0.1-1.1h-0.7v10.2h0.8v-3.8c0.2,0.4,0.6,0.6,1,0.8c0.4,0.2,0.9,0.3,1.4,0.3
	c0.8,0,1.6-0.3,2.1-1c0.5-0.8,0.8-1.7,0.8-2.6V11.4L677.3,11.4z M676.5,11.6c0,0.8-0.2,1.5-0.6,2.1c-0.4,0.5-1,0.8-1.6,0.8
	c-0.5,0-0.9-0.1-1.3-0.3c-0.4-0.2-0.6-0.6-0.8-1V9.6c0.2-0.4,0.4-0.8,0.8-1c0.4-0.3,0.9-0.4,1.3-0.4c0.7,0,1.3,0.3,1.6,0.9
	c0.4,0.7,0.6,1.5,0.6,2.3V11.6L676.5,11.6z M680.4,4.4h-0.8v10.7h0.8V4.4z M688.6,15.1c-0.1-0.2-0.1-0.5-0.2-0.7c0-0.3,0-0.5,0-0.8
	V9.9c0-0.7-0.2-1.3-0.7-1.8c-0.6-0.4-1.3-0.7-2-0.6c-0.7,0-1.5,0.2-2,0.6c-0.5,0.3-0.8,0.9-0.8,1.5l0,0l0.8,0c0-0.4,0.2-0.8,0.6-1.1
	c0.4-0.3,0.9-0.4,1.4-0.4c0.5,0,1,0.1,1.4,0.4c0.3,0.3,0.5,0.8,0.5,1.2v0.9h-1.6c-0.8,0-1.7,0.2-2.4,0.6c-0.6,0.4-0.9,1-0.9,1.6
	c0,0.6,0.2,1.1,0.6,1.5c0.5,0.4,1.1,0.6,1.7,0.6c0.5,0,1.1-0.1,1.5-0.4c0.4-0.2,0.8-0.6,1.1-1c0,0.2,0,0.4,0,0.6
	c0,0.2,0.1,0.4,0.1,0.6H688.6L688.6,15.1z M683.9,14.1c-0.3-0.3-0.4-0.6-0.4-1c0-0.5,0.3-0.9,0.7-1.2c0.5-0.3,1.2-0.5,1.8-0.5h1.7
	V13c-0.2,0.4-0.6,0.8-1,1.1c-0.5,0.3-1,0.4-1.6,0.4C684.6,14.5,684.2,14.4,683.9,14.1z M691.4,5.8v1.9h-1.3v0.7h1.3v4.8
	c0,0.6,0.1,1.1,0.4,1.6c0.3,0.3,0.8,0.5,1.2,0.5c0.2,0,0.4,0,0.6-0.1c0.2,0,0.3-0.1,0.5-0.1l-0.1-0.6c-0.1,0-0.3,0-0.4,0.1
	c-0.1,0-0.3,0-0.4,0c-0.3,0-0.5-0.1-0.7-0.3c-0.2-0.3-0.3-0.7-0.3-1V8.3h1.6V7.7h-1.6V5.8H691.4z M697.3,15.1V8.3h1.8V7.7h-1.8V6.6
	c0-0.4,0.1-0.8,0.4-1.2c0.3-0.3,0.6-0.4,1-0.4c0.1,0,0.3,0,0.4,0c0.1,0,0.2,0,0.3,0.1l0.1-0.7c-0.2,0-0.3-0.1-0.5-0.1
	c-0.2,0-0.3,0-0.5,0c-0.6,0-1.2,0.2-1.6,0.6c-0.4,0.5-0.6,1.1-0.6,1.7v1.1h-1.2v0.7h1.2v6.7L697.3,15.1L697.3,15.1z M700.4,11.5
	c0,1,0.3,1.9,0.9,2.7c1.2,1.3,3.2,1.4,4.6,0.2c0.1-0.1,0.1-0.1,0.2-0.2c0.6-0.8,0.9-1.7,0.9-2.7v-0.2c0-1-0.3-1.9-0.9-2.7
	c-1.2-1.3-3.2-1.4-4.6-0.2c-0.1,0.1-0.1,0.1-0.2,0.2c-0.6,0.8-0.9,1.7-0.9,2.7V11.5z M701.2,11.3c0-0.8,0.2-1.5,0.7-2.1
	c0.4-0.6,1.1-0.9,1.8-0.9c0.7,0,1.4,0.3,1.8,0.9c0.4,0.6,0.7,1.4,0.7,2.1v0.2c0,0.8-0.2,1.5-0.7,2.2c-0.8,1-2.2,1.2-3.2,0.4
	c-0.1-0.1-0.3-0.2-0.4-0.4c-0.4-0.6-0.7-1.4-0.7-2.2V11.3z M712.5,7.6c-0.1,0-0.2,0-0.2-0.1c-0.1,0-0.2,0-0.3,0
	c-0.5,0-0.9,0.1-1.3,0.4c-0.4,0.3-0.7,0.6-0.9,1.1V8.9l-0.1-1.2H709v7.4h0.8V10c0.1-0.5,0.4-0.9,0.7-1.2c0.4-0.3,0.8-0.5,1.3-0.4
	l0.6,0L712.5,7.6z M714.1,7.7v7.4h0.8V9.9c0.1-0.5,0.4-0.9,0.7-1.2c0.4-0.3,0.9-0.5,1.4-0.4c0.5,0,1,0.2,1.3,0.6
	c0.4,0.6,0.6,1.2,0.5,1.9v4.3h0.8v-4.4c0,0,0-0.1,0-0.1v-0.1c0.1-0.6,0.3-1.1,0.6-1.5c0.4-0.4,0.9-0.6,1.5-0.6c0.5,0,1,0.2,1.3,0.6
	c0.4,0.6,0.5,1.3,0.5,1.9v4.3h0.8v-4.3c0.1-0.9-0.2-1.7-0.6-2.4c-0.5-0.5-1.1-0.8-1.8-0.8c-0.5,0-1.1,0.1-1.5,0.4
	c-0.4,0.3-0.8,0.7-1,1.2c-0.1-0.5-0.4-0.9-0.8-1.2c-0.4-0.3-0.9-0.4-1.4-0.4c-0.5,0-1,0.1-1.4,0.4c-0.4,0.2-0.7,0.6-0.9,1l-0.1-1.2
	H714.1L714.1,7.7z"/>
<g id="Google_dots">
	<path class="st3" d="M656.5,90.5c-1.7-1.7-4.4-1.8-6.2-0.1c-1.7,1.7-1.8,4.4-0.1,6.2c1.7,1.7,4.4,1.8,6.2,0.1c0,0,0,0,0.1-0.1
		C658.2,94.9,658.2,92.2,656.5,90.5z M641,106c-1.7-1.7-4.4-1.8-6.2-0.1c-1.7,1.7-1.8,4.4-0.1,6.2c1.7,1.7,4.4,1.8,6.2,0.1
		c0,0,0,0,0.1-0.1C642.6,110.4,642.7,107.7,641,106z M625.5,121.5c-1.7-1.7-4.4-1.8-6.2-0.1c-1.7,1.7-1.8,4.4-0.1,6.2
		c1.7,1.7,4.4,1.8,6.2,0.1c0,0,0,0,0.1-0.1C627.1,125.9,627.1,123.2,625.5,121.5L625.5,121.5z M610.3,136.8
		c-1.7-1.7-4.4-1.8-6.2-0.1c-1.7,1.7-1.8,4.4-0.1,6.2s4.4,1.8,6.2,0.1c0,0,0,0,0.1-0.1C611.9,141.2,612,138.5,610.3,136.8z
		 M656.5,90.5c-1.7-1.7-4.4-1.8-6.2-0.1c-1.7,1.7-1.8,4.4-0.1,6.2c1.7,1.7,4.4,1.8,6.2,0.1c0,0,0,0,0.1-0.1
		C658.2,94.9,658.2,92.2,656.5,90.5L656.5,90.5z"/>
	<path class="st3" d="M656.6,282.2c1.7-1.7,1.8-4.4,0.1-6.2c-1.7-1.7-4.4-1.8-6.2-0.1c-1.7,1.7-1.8,4.4-0.1,6.2c0,0,0,0,0.1,0.1
		C652.1,283.8,654.9,283.8,656.6,282.2z M641.1,266.7c1.7-1.7,1.8-4.4,0.1-6.2c-1.7-1.7-4.4-1.8-6.2-0.1s-1.8,4.4-0.1,6.2
		c0,0,0,0,0.1,0.1C636.7,268.3,639.4,268.3,641.1,266.7z M625.6,251.1c1.7-1.7,1.8-4.4,0.1-6.2c-1.7-1.7-4.4-1.8-6.2-0.1
		c-1.7,1.7-1.8,4.4-0.1,6.2c0,0,0,0,0.1,0.1C621.2,252.8,623.9,252.8,625.6,251.1z M610.3,236c1.7-1.7,1.8-4.4,0.1-6.2
		c-1.7-1.7-4.4-1.8-6.2-0.1c-1.7,1.7-1.8,4.4-0.1,6.2c0,0,0,0,0.1,0.1C605.8,237.6,608.6,237.6,610.3,236z M656.6,282.2
		c1.7-1.7,1.8-4.4,0.1-6.2c-1.7-1.7-4.4-1.8-6.2-0.1c-1.7,1.7-1.8,4.4-0.1,6.2c0,0,0,0,0.1,0.1C652.1,283.8,654.9,283.8,656.6,282.2
		z"/>
	<path id="Ellipse_2_copy" class="st3" d="M677.1,186c0-2.4-1.9-4.4-4.3-4.4c-2.4,0-4.4,1.9-4.4,4.3c0,2.4,1.9,4.4,4.3,4.4
		c0,0,0.1,0,0.1,0C675.2,190.3,677.1,188.4,677.1,186z M655.2,186c0-2.4-1.9-4.4-4.3-4.4s-4.4,1.9-4.4,4.3c0,2.4,1.9,4.4,4.3,4.4
		c0,0,0.1,0,0.1,0C653.2,190.3,655.2,188.3,655.2,186z M633.3,186c0-2.4-1.9-4.4-4.3-4.4s-4.4,1.9-4.4,4.3c0,2.4,1.9,4.4,4.3,4.4
		c0,0,0.1,0,0.1,0C631.3,190.2,633.2,188.3,633.3,186L633.3,186z M611.7,186.1c0-2.4-1.9-4.4-4.3-4.4s-4.4,1.9-4.4,4.3
		c0,2.4,1.9,4.4,4.3,4.4c0,0,0.1,0,0.1,0C609.7,190.3,611.7,188.4,611.7,186.1L611.7,186.1z M677.1,186c0-2.4-1.9-4.4-4.3-4.4
		c-2.4,0-4.4,1.9-4.4,4.3c0,2.4,1.9,4.4,4.3,4.4c0,0,0.1,0,0.1,0C675.2,190.3,677.1,188.4,677.1,186L677.1,186z"/>
</g>
<g id="Google_Hub">
	<g>
		<path class="st4" d="M496.8,142.2h68.1c5.5,0,10,4.5,10,10v68.1c0,5.5-4.5,10-10,10h-68.1c-5.5,0-10-4.5-10-10v-68.1
			C486.8,146.7,491.3,142.2,496.8,142.2z"/>
		<path class="st1" d="M530.8,195.2l8.4,5.1c-0.7,3.9,1,7.9,4.4,10c4.2,2.5,9.7,1.2,12.3-3.1c0.1-0.1,0.2-0.3,0.2-0.4
			c2.5-4.5,1.1-10.3-3.4-13.1c-3.4-2-7.6-1.6-10.5,1l-8.4-5.1v-10.1c3.7-1.4,6.1-5,6.1-9c0-5.3-4.1-9.6-9.2-9.6s-9.2,4.3-9.2,9.6
			c0,4,2.4,7.5,6.1,9v10.1l-8.4,5.1c-2.9-2.6-7.2-3-10.5-1c-4.4,2.8-5.9,8.5-3.3,13.1c2.3,4.4,7.7,6,12.1,3.7
			c0.1-0.1,0.3-0.2,0.4-0.2c3.4-2.1,5.1-6.1,4.4-10L530.8,195.2z"/>
	</g>
</g>
<g id="clouds">
	<path id="Shape_25_copy_2" class="st5" d="M648.5,322.4c0-6.6,5.3-11.9,11.9-11.9c1.6,0,3.2,0.3,4.7,1c1.9-10.5,12-17.5,22.6-15.6
		c5.8,1.1,10.8,4.7,13.6,9.9c7.7-2.2,15.8,2.3,18,10c2.2,7.7-2.3,15.8-10,18c-1.3,0.4-2.6,0.6-3.9,0.6h-44.9
		C653.8,334.2,648.5,328.9,648.5,322.4z"/>
	<path id="Shape_25_copy" class="st5" d="M769.5,188.6c0-6.6-5.3-11.9-11.9-11.9c0,0,0,0,0,0c-1.6,0-3.2,0.3-4.7,1
		c-1.9-10.5-12-17.5-22.6-15.6c-5.8,1.1-10.8,4.7-13.6,9.9c-1.3-0.4-2.6-0.6-4-0.6c-8,0-14.6,6.5-14.6,14.5c0,8,6.5,14.6,14.5,14.6
		c0,0,0,0,0.1,0v0h44.9v0C764.2,200.5,769.5,195.2,769.5,188.6z"/>
	<path class="st5" d="M719.7,61.3c0-6.6-5.3-11.9-11.9-11.9c-1.6,0-3.2,0.3-4.7,1c-1.9-10.5-12-17.5-22.6-15.6
		c-5.8,1.1-10.8,4.7-13.6,9.9c-1.3-0.4-2.6-0.6-4-0.6c-8,0-14.6,6.5-14.6,14.5c0,8,6.5,14.6,14.5,14.6H708v0
		C714.5,73.2,719.7,67.9,719.7,61.3z"/>
</g>
<g id="DOTS_middle">
	<path class="st3" d="M392.2,90.5c1.7-1.7,4.4-1.8,6.2-0.1c1.7,1.7,1.8,4.4,0.1,6.2c-1.7,1.7-4.4,1.8-6.2,0.1c0,0,0,0-0.1-0.1
		C390.6,94.9,390.5,92.2,392.2,90.5z M407.7,106c1.7-1.7,4.4-1.8,6.2-0.1s1.8,4.4,0.1,6.2s-4.4,1.8-6.2,0.1c0,0,0,0-0.1-0.1
		C406.1,110.4,406.1,107.7,407.7,106z M423.2,121.5c1.7-1.7,4.4-1.8,6.2-0.1c1.7,1.7,1.8,4.4,0.1,6.2c-1.7,1.7-4.4,1.8-6.2,0.1
		c0,0,0,0-0.1-0.1C421.6,125.9,421.6,123.2,423.2,121.5L423.2,121.5z M438.4,136.8c1.7-1.7,4.4-1.8,6.2-0.1c1.7,1.7,1.8,4.4,0.1,6.2
		s-4.4,1.8-6.2,0.1c0,0,0,0-0.1-0.1C436.8,141.2,436.8,138.5,438.4,136.8L438.4,136.8z M392.2,90.5c1.7-1.7,4.4-1.8,6.2-0.1
		c1.7,1.7,1.8,4.4,0.1,6.2c-1.7,1.7-4.4,1.8-6.2,0.1c0,0,0,0-0.1-0.1C390.6,94.9,390.5,92.2,392.2,90.5L392.2,90.5z"/>
	<path class="st3" d="M392.2,282.2c-1.7-1.7-1.8-4.4-0.1-6.2c1.7-1.7,4.4-1.8,6.2-0.1c1.7,1.7,1.8,4.4,0.1,6.2c0,0,0,0-0.1,0.1
		C396.6,283.8,393.9,283.9,392.2,282.2z M407.7,266.7c-1.7-1.7-1.8-4.4-0.1-6.2c1.7-1.7,4.4-1.8,6.2-0.1c1.7,1.7,1.8,4.4,0.1,6.2
		c0,0,0,0-0.1,0.1C412.1,268.3,409.4,268.3,407.7,266.7z M423.1,251.1c-1.7-1.7-1.8-4.4-0.1-6.2c1.7-1.7,4.4-1.8,6.2-0.1
		c1.7,1.7,1.8,4.4,0.1,6.2c0,0,0,0-0.1,0.1C427.6,252.8,424.8,252.8,423.1,251.1z M438.5,236c-1.7-1.7-1.8-4.4-0.1-6.2
		c1.7-1.7,4.4-1.8,6.2-0.1s1.8,4.4,0.1,6.2c0,0,0,0-0.1,0.1C442.9,237.6,440.2,237.6,438.5,236z M392.2,282.2
		c-1.7-1.7-1.8-4.4-0.1-6.2c1.7-1.7,4.4-1.8,6.2-0.1c1.7,1.7,1.8,4.4,0.1,6.2c0,0,0,0-0.1,0.1C396.6,283.8,393.9,283.9,392.2,282.2z
		"/>
	<path id="Ellipse_2_copy_3" class="st3" d="M284.8,186c0-2.4,1.9-4.4,4.3-4.4c2.4,0,4.4,1.9,4.4,4.3s-1.9,4.4-4.3,4.4
		c0,0-0.1,0-0.1,0C286.8,190.3,284.8,188.4,284.8,186z M306.7,186c0-2.4,1.9-4.4,4.3-4.4c2.4,0,4.4,1.9,4.4,4.3
		c0,2.4-1.9,4.4-4.3,4.4c0,0-0.1,0-0.1,0C308.7,190.2,306.8,188.3,306.7,186L306.7,186z M328.7,186c0-2.4,1.9-4.4,4.3-4.4
		s4.4,1.9,4.4,4.3c0,2.4-1.9,4.4-4.3,4.4c0,0-0.1,0-0.1,0C330.6,190.2,328.7,188.3,328.7,186L328.7,186z M350.2,186.1
		c0-2.4,1.9-4.4,4.3-4.4s4.4,1.9,4.4,4.3c0,2.4-1.9,4.4-4.3,4.4c0,0-0.1,0-0.1,0C352.2,190.3,350.3,188.4,350.2,186.1L350.2,186.1z
		 M284.8,186c0-2.4,1.9-4.4,4.3-4.4c2.4,0,4.4,1.9,4.4,4.3s-1.9,4.4-4.3,4.4c0,0-0.1,0-0.1,0C286.8,190.3,284.8,188.4,284.8,186
		L284.8,186z"/>
	<path id="Ellipse_2_copy-2" class="st3" d="M371.6,186c0-2.4,1.9-4.4,4.3-4.4c2.4,0,4.4,1.9,4.4,4.3c0,2.4-1.9,4.4-4.3,4.4
		c0,0-0.1,0-0.1,0C373.6,190.3,371.6,188.4,371.6,186z M393.5,186c0-2.4,1.9-4.4,4.3-4.4s4.4,1.9,4.4,4.3c0,2.4-1.9,4.4-4.3,4.4
		c0,0-0.1,0-0.1,0C395.5,190.3,393.6,188.3,393.5,186z M415.5,186c0-2.4,1.9-4.4,4.3-4.4s4.4,1.9,4.4,4.3c0,2.4-1.9,4.4-4.3,4.4
		c0,0-0.1,0-0.1,0C417.4,190.2,415.5,188.3,415.5,186L415.5,186z M437,186.1c0-2.4,1.9-4.4,4.3-4.4s4.4,1.9,4.4,4.3
		c0,2.4-1.9,4.4-4.3,4.4c0,0-0.1,0-0.1,0C439,190.3,437.1,188.4,437,186.1L437,186.1z M371.6,186c0-2.4,1.9-4.4,4.3-4.4
		c2.4,0,4.4,1.9,4.4,4.3c0,2.4-1.9,4.4-4.3,4.4c0,0-0.1,0-0.1,0C373.6,190.3,371.6,188.4,371.6,186L371.6,186z"/>
</g>
<g id="other_hub_1">
	<path class="st6" d="M215,159.8h38.3c5.5,0,10,4.5,10,10v38.3c0,5.5-4.5,10-10,10H215c-5.5,0-10-4.5-10-10v-38.3
		C205,164.2,209.4,159.8,215,159.8z"/>
	<path class="st1" d="M234.1,194.8l5.6,3.4c-0.5,2.6,0.7,5.2,2.9,6.6c2.8,1.7,6.4,0.8,8.1-2c0.1-0.1,0.1-0.2,0.2-0.3
		c1.7-3,0.7-6.8-2.2-8.6c-2.2-1.3-5-1-7,0.7l-5.6-3.4v-6.7c2.5-1,4.1-3.3,4-5.9c0.1-3.3-2.5-6.2-5.8-6.3c-3.3-0.1-6.2,2.5-6.3,5.8
		c0,0.2,0,0.3,0,0.5c0,2.6,1.6,5,4,5.9v6.7l-5.6,3.4c-1.9-1.7-4.7-2-7-0.7c-2.9,1.8-3.9,5.6-2.2,8.6c1.5,2.9,5.1,4,8,2.5
		c0.1-0.1,0.2-0.1,0.3-0.2c2.2-1.4,3.4-4,2.9-6.6L234.1,194.8z"/>
</g>
<path id="Shape_25_copy-2" class="st7" d="M0,188.6c0-6.6,5.3-11.9,11.9-11.9c1.6,0,3.2,0.3,4.7,1c1.9-10.5,12-17.5,22.6-15.6
	c5.8,1.1,10.8,4.7,13.6,9.9c1.3-0.4,2.6-0.6,4-0.6c8,0,14.6,6.5,14.6,14.5s-6.5,14.6-14.5,14.6l0,0c0,0,0,0-0.1,0v0H11.8v0
	C5.3,200.5,0,195.2,0,188.6z"/>
<path id="bilateral_2" class="st7" d="M310.1,310.8c0-6.6,5.3-11.9,11.9-11.9c1.6,0,3.2,0.3,4.7,1c1.9-10.5,12-17.5,22.6-15.6
	c5.8,1.1,10.8,4.7,13.6,9.9c7.7-2.2,15.8,2.3,18,10c2.2,7.7-2.3,15.8-10,18c-1.3,0.4-2.6,0.6-3.9,0.6h-44.9
	C315.4,322.6,310.2,317.3,310.1,310.8z"/>
<path id="bilateral_1" class="st7" d="M310.8,71c0-6.6,5.3-11.9,11.9-11.9c1.6,0,3.2,0.3,4.7,1c1.9-10.5,12-17.5,22.6-15.6
	c5.8,1.1,10.8,4.7,13.6,9.9c7.7-2.2,15.8,2.3,18,10c2.2,7.7-2.3,15.8-10,18c-1.3,0.4-2.6,0.6-3.9,0.6h-44.9v0
	C316.1,82.8,310.8,77.5,310.8,71z"/>
<g id="dots">
	<path class="st3" d="M122,90.5c1.7-1.7,4.4-1.8,6.2-0.1c1.7,1.7,1.8,4.4,0.1,6.2c-1.7,1.7-4.4,1.8-6.2,0.1c0,0,0,0-0.1-0.1
		C120.4,94.9,120.4,92.2,122,90.5z M137.6,106c1.7-1.7,4.4-1.8,6.2-0.1c1.7,1.7,1.8,4.4,0.1,6.2c-1.7,1.7-4.4,1.8-6.2,0.1
		c0,0,0,0-0.1-0.1C135.9,110.4,135.9,107.7,137.6,106z M153.1,121.5c1.7-1.7,4.4-1.8,6.2-0.1c1.7,1.7,1.8,4.4,0.1,6.2
		c-1.7,1.7-4.4,1.8-6.2,0.1c0,0,0,0-0.1-0.1C151.5,125.9,151.4,123.2,153.1,121.5z M168.3,136.8c1.7-1.7,4.4-1.8,6.2-0.1
		c1.7,1.7,1.8,4.4,0.1,6.2c-1.7,1.7-4.4,1.8-6.2,0.1c0,0,0,0-0.1-0.1C166.6,141.2,166.6,138.5,168.3,136.8L168.3,136.8z M122,90.5
		c1.7-1.7,4.4-1.8,6.2-0.1c1.7,1.7,1.8,4.4,0.1,6.2c-1.7,1.7-4.4,1.8-6.2,0.1c0,0,0,0-0.1-0.1C120.4,94.9,120.4,92.2,122,90.5z"/>
	<path class="st3" d="M122,282.2c-1.7-1.7-1.8-4.4-0.1-6.2c1.7-1.7,4.4-1.8,6.2-0.1c1.7,1.7,1.8,4.4,0.1,6.2c0,0,0,0-0.1,0.1
		C126.4,283.8,123.7,283.9,122,282.2z M137.5,266.7c-1.7-1.7-1.8-4.4-0.1-6.2s4.4-1.8,6.2-0.1c1.7,1.7,1.8,4.4,0.1,6.2
		c0,0,0,0-0.1,0.1C141.9,268.3,139.2,268.3,137.5,266.7z M153,251.1c-1.7-1.7-1.8-4.4-0.1-6.2c1.7-1.7,4.4-1.8,6.2-0.1
		c1.7,1.7,1.8,4.4,0.1,6.2c0,0,0,0-0.1,0.1C157.4,252.8,154.7,252.8,153,251.1z M168.3,236c-1.7-1.7-1.8-4.4-0.1-6.2
		c1.7-1.7,4.4-1.8,6.2-0.1c1.7,1.7,1.8,4.4,0.1,6.2c0,0,0,0-0.1,0.1C172.7,237.6,170,237.6,168.3,236z M122,282.2
		c-1.7-1.7-1.8-4.4-0.1-6.2c1.7-1.7,4.4-1.8,6.2-0.1c1.7,1.7,1.8,4.4,0.1,6.2c0,0,0,0-0.1,0.1C126.4,283.8,123.7,283.9,122,282.2z"
		/>
	<path id="Ellipse_2_copy-3" class="st3" d="M101.4,186c0-2.4,1.9-4.4,4.3-4.4c2.4,0,4.4,1.9,4.4,4.3s-1.9,4.4-4.3,4.4
		c0,0-0.1,0-0.1,0C103.4,190.3,101.5,188.4,101.4,186z M123.4,186c0-2.4,1.9-4.4,4.3-4.4s4.4,1.9,4.4,4.3c0,2.4-1.9,4.4-4.3,4.4
		c0,0-0.1,0-0.1,0C125.3,190.3,123.4,188.3,123.4,186z M145.3,186c0-2.4,1.9-4.4,4.3-4.4s4.4,1.9,4.4,4.3c0,2.4-1.9,4.4-4.3,4.4
		c0,0-0.1,0-0.1,0C147.3,190.2,145.3,188.3,145.3,186L145.3,186z M166.9,186.1c0-2.4,1.9-4.4,4.3-4.4s4.4,1.9,4.4,4.3
		c0,2.4-1.9,4.4-4.3,4.4c0,0-0.1,0-0.1,0C168.8,190.3,166.9,188.4,166.9,186.1L166.9,186.1z M101.4,186c0-2.4,1.9-4.4,4.3-4.4
		c2.4,0,4.4,1.9,4.4,4.3s-1.9,4.4-4.3,4.4c0,0-0.1,0-0.1,0C103.4,190.3,101.5,188.4,101.4,186L101.4,186z"/>
</g>
<path class="st8" d="M93.7,44H71.8c-4.1,0-7.5,3.4-7.5,7.5v34.5c0,4.1,3.4,7.5,7.5,7.5h21.9c4.1,0,7.5-3.4,7.5-7.5V51.5
	C101.2,47.4,97.8,44,93.7,44z M71.8,86.3c-1.5,0-2.6-1.3-2.6-2.6s1.3-2.6,2.6-2.6c1.4,0,2.6,1.3,2.6,2.6
	C74.4,85.2,73.1,86.3,71.8,86.3z M71.8,76.2c-1.5,0-2.6-1.3-2.6-2.6c0-1.4,1.3-2.6,2.6-2.6c1.4,0,2.6,1.3,2.6,2.6
	C74.4,75,73.1,76.2,71.8,76.2z M71.8,66L71.8,66c-1.5,0-2.6-1.3-2.6-2.6s1.3-2.6,2.6-2.6c1.4,0,2.6,1.3,2.6,2.6
	C74.4,64.9,73.3,66,71.8,66z M71.8,55.9L71.8,55.9c-1.5,0-2.6-1.3-2.6-2.6c0-1.4,1.3-2.6,2.6-2.6c1.4,0,2.6,1.3,2.6,2.6
	C74.4,54.7,73.3,55.9,71.8,55.9z M94.8,85.4H80.4c-1,0-1.8-0.8-1.8-1.8s0.8-1.8,1.8-1.8h14.4c1,0,1.8,0.8,1.8,1.8
	S95.8,85.4,94.8,85.4z M94.8,75H80.4c-1,0-1.8-0.8-1.8-1.8s0.8-1.8,1.8-1.8h14.4c1,0,1.8,0.8,1.8,1.8S95.8,75,94.8,75z M94.8,64.8
	H80.4c-1,0-1.8-0.8-1.8-1.8s0.8-1.8,1.8-1.8h14.4c1,0,1.8,0.8,1.8,1.8S95.8,64.8,94.8,64.8z M94.8,54.4H80.4c-1,0-1.8-0.8-1.8-1.8
	c0-1,0.8-1.8,1.8-1.8h14.4c1,0,1.8,0.8,1.8,1.8C96.6,53.6,95.8,54.4,94.8,54.4z"/>
<path class="st8" d="M93.7,285.6H71.8c-4.1,0-7.5,3.4-7.5,7.5v34.5c0,4.1,3.4,7.5,7.5,7.5h21.9c4.1,0,7.5-3.4,7.5-7.5v-34.5
	C101.2,289,97.8,285.6,93.7,285.6z M71.8,328c-1.5,0-2.6-1.3-2.6-2.6c0-1.4,1.3-2.6,2.6-2.6c1.4,0,2.6,1.3,2.6,2.6
	C74.4,326.9,73.1,328,71.8,328z M71.8,317.8c-1.5,0-2.6-1.3-2.6-2.6s1.3-2.6,2.6-2.6c1.4,0,2.6,1.3,2.6,2.6
	C74.4,316.7,73.1,317.8,71.8,317.8z M71.8,307.7L71.8,307.7c-1.5,0-2.6-1.3-2.6-2.6s1.3-2.6,2.6-2.6c1.4,0,2.6,1.3,2.6,2.6
	C74.4,306.6,73.3,307.7,71.8,307.7z M71.8,297.5L71.8,297.5c-1.5,0-2.6-1.3-2.6-2.6c0-1.4,1.3-2.6,2.6-2.6c1.4,0,2.6,1.3,2.6,2.6
	C74.4,296.4,73.3,297.5,71.8,297.5z M94.8,327.1H80.4c-1,0-1.8-0.8-1.8-1.8c0-1,0.8-1.8,1.8-1.8h14.4c1,0,1.8,0.8,1.8,1.8
	C96.6,326.4,95.8,327.1,94.8,327.1z M94.8,316.7H80.4c-1,0-1.8-0.8-1.8-1.8c0-1,0.8-1.8,1.8-1.8h14.4c1,0,1.8,0.8,1.8,1.8
	C96.6,316,95.8,316.7,94.8,316.7z M94.8,306.4H80.4c-1,0-1.8-0.8-1.8-1.8c0-1,0.8-1.8,1.8-1.8h14.4c1,0,1.8,0.8,1.8,1.8
	C96.6,305.7,95.8,306.4,94.8,306.4z M94.8,296H80.4c-1,0-1.8-0.8-1.8-1.8c0-1,0.8-1.8,1.8-1.8h14.4c1,0,1.8,0.8,1.8,1.8
	C96.6,295.3,95.8,296,94.8,296z"/>
</svg>
