<svg id="home_diagram03_mobile_2x.svg_50_home_diagram03_mobile.svg" data-name="home_diagram03_mobile_2x.svg, 50% home_diagram03_mobile.svg" xmlns="http://www.w3.org/2000/svg" width="188.5" height="349" viewBox="0 0 377 698">
  <defs>
    <style>
      .cls-1, .cls-2 {
        fill: #dfe6e8;
      }

      .cls-1, .cls-3, .cls-4, .cls-5 {
        fill-rule: evenodd;
      }

      .cls-3 {
        fill: #ffb74d;
      }

      .cls-4, .cls-6 {
        fill: #fff;
      }

      .cls-5 {
        fill: #ffd600;
      }
    </style>
  </defs>
  <path id="phone_icon_15" data-name="phone icon 15" class="cls-1" d="M2764,7263h369a4,4,0,0,1,4,4v690a4,4,0,0,1-4,4H2764a4,4,0,0,1-4-4V7267A4,4,0,0,1,2764,7263Zm19.25,84.87h330.5v509.35h-330.5V7347.87Zm179.44,547.1h84.97v28.25h-84.97v-28.25Zm-103.88,0h84.98v28.3h-84.98v-28.3Zm46.95-603.67,84.81,0.02v28.27h-84.81V7291.3Z" transform="translate(-2760 -7263)"/>
  <rect class="cls-2" x="33.41" y="102.31" width="310.21" height="64.57"/>
  <g id="emoji_bubble" data-name="emoji bubble">
    <path id="Shape_1_copy_2" data-name="Shape 1 copy 2" class="cls-3" d="M3098.57,7539.13v-70.46a17.2,17.2,0,0,0-17.41-16.93l-228.32-.09,34.81,34.03v53.45a17.265,17.265,0,0,0,17.41,17.01h176.1A17.271,17.271,0,0,0,3098.57,7539.13Z" transform="translate(-2760 -7263)"/>
    <path id="cake" class="cls-4" d="M2991.76,7485.13a5.915,5.915,0,0,0,5.1-8.97l-5.1-8.79-5.09,8.79A5.915,5.915,0,0,0,2991.76,7485.13Zm13.65,29.56-3.19-3.18-3.21,3.18a10.531,10.531,0,0,1-14.52,0l-3.2-3.18-3.2,3.18a10.108,10.108,0,0,1-7.24,3.01,10.271,10.271,0,0,1-5.82-1.82v13.66a2.975,2.975,0,0,0,2.97,2.96h47.53a2.975,2.975,0,0,0,2.97-2.96v-13.66A10.255,10.255,0,0,1,3005.41,7514.69Zm4.18-20.68h-14.85v-5.92h-5.95v5.92h-14.85a8.9,8.9,0,0,0-8.91,8.88v4.56a5.827,5.827,0,0,0,9.94,4.11l6.35-6.33,6.35,6.31a5.963,5.963,0,0,0,8.22,0l6.36-6.31,6.34,6.31a5.827,5.827,0,0,0,9.94-4.1v-4.55A8.95,8.95,0,0,0,3009.59,7494.01Z" transform="translate(-2760 -7263)"/>
  </g>
  <g id="location_bubble" data-name="location bubble">
    <path id="Shape_1_copy_2-2" data-name="Shape 1 copy 2" class="cls-5" d="M2802.82,7693v-94.53a14.185,14.185,0,0,1,14.35-13.98l226.31-.07-28.7,28.09V7693a14.244,14.244,0,0,1-14.35,14.05H2817.17A14.244,14.244,0,0,1,2802.82,7693Z" transform="translate(-2760 -7263)"/>
    <path class="cls-4" d="M2907.35,7610.47a24.649,24.649,0,0,0-24.7,24.63c0,18.47,24.7,45.73,24.7,45.73s24.7-27.26,24.7-45.73A24.642,24.642,0,0,0,2907.35,7610.47Zm0,33.42a8.8,8.8,0,1,1,8.82-8.79A8.809,8.809,0,0,1,2907.35,7643.89Z" transform="translate(-2760 -7263)"/>
  </g>
  <g id="talking_bubble" data-name="talking bubble">
    <path id="Shape_1_copy_2-3" data-name="Shape 1 copy 2" class="cls-3" d="M3098.55,7820.73v-71.35a14.164,14.164,0,0,0-14.34-13.95l-224.12-.07,28.69,28.03v57.34a14.223,14.223,0,0,0,14.34,14.02h181.09A14.223,14.223,0,0,0,3098.55,7820.73Z" transform="translate(-2760 -7263)"/>
    <circle class="cls-6" cx="202.94" cy="524.545" r="6.5"/>
    <circle class="cls-6" cx="235.955" cy="524.545" r="6.515"/>
    <circle class="cls-6" cx="268.97" cy="524.545" r="6.5"/>
  </g>
  <path id="person_icon" data-name="person icon" class="cls-1" d="M2823.51,7451.95a30.04,30.04,0,1,0,30,30.04A30.007,30.007,0,0,0,2823.51,7451.95Zm0,9.01a9.015,9.015,0,1,1-9,9.01A9.009,9.009,0,0,1,2823.51,7460.96Zm0,42.66a21.586,21.586,0,0,1-18-9.67c0.07-5.97,12.02-9.26,18-9.26s17.91,3.29,18,9.26A21.573,21.573,0,0,1,2823.51,7503.62Z" transform="translate(-2760 -7263)"/>
  <path id="person_icon-2" data-name="person icon" class="cls-1" d="M2823.51,7734.13a30.04,30.04,0,1,0,30,30.04A30.007,30.007,0,0,0,2823.51,7734.13Zm0,9.01a9.015,9.015,0,1,1-9,9.01A9.009,9.009,0,0,1,2823.51,7743.14Zm0,42.66a21.586,21.586,0,0,1-18-9.67c0.07-5.96,12.02-9.25,18-9.25s17.91,3.29,18,9.25A21.573,21.573,0,0,1,2823.51,7785.8Z" transform="translate(-2760 -7263)"/>
  <path id="person_icon-3" data-name="person icon" class="cls-1" d="M3073.52,7583.52a30.045,30.045,0,1,0,30,30.05A30.015,30.015,0,0,0,3073.52,7583.52Zm0,9.02a9.01,9.01,0,1,1-9,9.01A9.009,9.009,0,0,1,3073.52,7592.54Zm0,42.66a21.582,21.582,0,0,1-18-9.68c0.07-5.96,12.01-9.25,18-9.25s17.91,3.29,18,9.25A21.582,21.582,0,0,1,3073.52,7635.2Z" transform="translate(-2760 -7263)"/>
  <path class="cls-4" d="M2827.76,7397.6a9.245,9.245,0,1,0-9.2-9.25A9.225,9.225,0,0,0,2827.76,7397.6Zm0,4.62c-6.13,0-18.41,3.09-18.41,9.25v4.62h36.82v-4.62C2846.17,7405.31,2833.89,7402.22,2827.76,7402.22Z" transform="translate(-2760 -7263)"/>
  <path class="cls-4" d="M2878.21,7397.6a9.245,9.245,0,1,0-9.2-9.25A9.233,9.233,0,0,0,2878.21,7397.6Zm0,4.62c-6.13,0-18.4,3.09-18.4,9.25v4.62h36.81v-4.62C2896.62,7405.31,2884.35,7402.22,2878.21,7402.22Z" transform="translate(-2760 -7263)"/>
  <path class="cls-4" d="M2928.67,7397.6a9.245,9.245,0,1,0-9.21-9.25A9.231,9.231,0,0,0,2928.67,7397.6Zm0,4.62c-6.14,0-18.41,3.09-18.41,9.25v4.62h36.81v-4.62C2947.07,7405.31,2934.8,7402.22,2928.67,7402.22Z" transform="translate(-2760 -7263)"/>
</svg>
