<svg id="home_diagram03_2x.svg_50_home_diagram03.svg" data-name="home_diagram03_2x.svg, 50% home_diagram03.svg" xmlns="http://www.w3.org/2000/svg" width="260.06" height="481" viewBox="0 0 520.12 962">
  <defs>
    <style>
      .cls-1, .cls-2 {
        fill: #dfe6e8;
      }

      .cls-1, .cls-3, .cls-4, .cls-5 {
        fill-rule: evenodd;
      }

      .cls-3 {
        fill: #ffb74d;
      }

      .cls-4, .cls-6 {
        fill: #fff;
      }

      .cls-5 {
        fill: #ffd600;
      }
    </style>
  </defs>
  <path id="phone_icon_15" data-name="phone icon 15" class="cls-1" d="M1578.91,5995h512.12a4,4,0,0,1,4,4v954a4,4,0,0,1-4,4H1578.91a4,4,0,0,1-4-4V5999A4,4,0,0,1,1578.91,5995ZM1607,6111.97h455.97v702H1607v-702ZM1854.53,6866h117.22v38.94H1854.53V6866Zm-143.3,0h117.25v39H1711.23v-39ZM1776,6034l117.01,0.03V6073H1776v-39Z" transform="translate(-1574.91 -5995)"/>
  <rect class="cls-2" x="46.09" y="141" width="428" height="89"/>
  <g id="emoji_bubble" data-name="emoji bubble">
    <path id="Shape_1_copy_2" data-name="Shape 1 copy 2" class="cls-3" d="M2042.01,6375.56v-97.11c0-12.89-10.81-23.33-24.02-23.33l-315-.11,48.03,46.89v73.66c0,12.9,10.8,23.45,24.01,23.45h242.96C2031.2,6399.01,2042.01,6388.46,2042.01,6375.56Z" transform="translate(-1574.91 -5995)"/>
    <path id="cake" class="cls-4" d="M1894.66,6301.14a8.152,8.152,0,0,0,7.03-12.36l-7.03-12.12-7.03,12.12A8.152,8.152,0,0,0,1894.66,6301.14Zm18.83,40.75-4.41-4.39-4.42,4.39a14.577,14.577,0,0,1-20.04,0l-4.41-4.39-4.42,4.39a13.949,13.949,0,0,1-9.98,4.14,14.215,14.215,0,0,1-8.04-2.51v18.83a4.1,4.1,0,0,0,4.1,4.08h65.58a4.093,4.093,0,0,0,4.09-4.08v-18.83A14.154,14.154,0,0,1,1913.49,6341.89Zm5.76-28.5h-20.49v-8.16h-8.2v8.16h-20.49a12.278,12.278,0,0,0-12.3,12.24v6.28a8.033,8.033,0,0,0,13.71,5.65l8.77-8.71,8.75,8.69a8.242,8.242,0,0,0,11.35,0l8.78-8.69,8.75,8.69a8.026,8.026,0,0,0,13.7-5.65v-6.26A12.33,12.33,0,0,0,1919.25,6313.39Z" transform="translate(-1574.91 -5995)"/>
  </g>
  <g id="location_bubble" data-name="location bubble">
    <path id="Shape_1_copy_2-2" data-name="Shape 1 copy 2" class="cls-5" d="M1633.98,6587.64V6457.35c0-10.65,8.91-19.26,19.8-19.26l312.22-.1-39.59,38.72v110.93a19.631,19.631,0,0,1-19.79,19.36H1653.78A19.64,19.64,0,0,1,1633.98,6587.64Z" transform="translate(-1574.91 -5995)"/>
    <path class="cls-4" d="M1778.2,6473.89a33.989,33.989,0,0,0-34.08,33.94c0,25.46,34.08,63.04,34.08,63.04s34.08-37.58,34.08-63.04A33.989,33.989,0,0,0,1778.2,6473.89Zm0,46.06a12.12,12.12,0,1,1,12.17-12.12A12.148,12.148,0,0,1,1778.2,6519.95Z" transform="translate(-1574.91 -5995)"/>
  </g>
  <g id="talking_bubble" data-name="talking bubble">
    <path id="Shape_1_copy_2-3" data-name="Shape 1 copy 2" class="cls-3" d="M2041.99,6763.68v-98.35c0-10.62-8.91-19.22-19.79-19.22l-309.2-.1,39.58,38.64v79.03a19.615,19.615,0,0,0,19.78,19.32H2022.2C2033.08,6783,2041.99,6774.3,2041.99,6763.68Z" transform="translate(-1574.91 -5995)"/>
    <circle class="cls-6" cx="279.985" cy="722.955" r="8.985"/>
    <circle class="cls-6" cx="325.53" cy="722.955" r="8.97"/>
    <path class="cls-4" d="M1945.98,6708.97a8.985,8.985,0,1,1-8.95,8.98A8.969,8.969,0,0,1,1945.98,6708.97Z" transform="translate(-1574.91 -5995)"/>
  </g>
  <path id="person_icon" data-name="person icon" class="cls-1" d="M1662.53,6255.41a41.405,41.405,0,1,0,41.39,41.41A41.387,41.387,0,0,0,1662.53,6255.41Zm0,12.42a12.425,12.425,0,1,1-12.42,12.42A12.423,12.423,0,0,1,1662.53,6267.83Zm0,58.8a29.813,29.813,0,0,1-24.84-13.33c0.11-8.22,16.58-12.76,24.84-12.76s24.71,4.54,24.83,12.76A29.8,29.8,0,0,1,1662.53,6326.63Z" transform="translate(-1574.91 -5995)"/>
  <path id="person_icon-2" data-name="person icon" class="cls-1" d="M1662.53,6644.32a41.405,41.405,0,1,0,41.39,41.41A41.387,41.387,0,0,0,1662.53,6644.32Zm0,12.42a12.425,12.425,0,1,1-12.42,12.42A12.423,12.423,0,0,1,1662.53,6656.74Zm0,58.8a29.813,29.813,0,0,1-24.84-13.33c0.11-8.22,16.58-12.76,24.84-12.76s24.71,4.54,24.83,12.76A29.8,29.8,0,0,1,1662.53,6715.54Z" transform="translate(-1574.91 -5995)"/>
  <path id="person_icon-3" data-name="person icon" class="cls-1" d="M2007.45,6436.75a41.41,41.41,0,1,0,41.39,41.41A41.387,41.387,0,0,0,2007.45,6436.75Zm0,12.43a12.42,12.42,0,1,1-12.42,12.42A12.426,12.426,0,0,1,2007.45,6449.18Zm0,58.79a29.8,29.8,0,0,1-24.83-13.33c0.1-8.22,16.57-12.75,24.83-12.75s24.71,4.53,24.84,12.75A29.813,29.813,0,0,1,2007.45,6507.97Z" transform="translate(-1574.91 -5995)"/>
  <path class="cls-4" d="M1668.39,6180.51a12.745,12.745,0,1,0-12.7-12.74A12.727,12.727,0,0,0,1668.39,6180.51Zm0,6.37c-8.46,0-25.4,4.26-25.4,12.75V6206h50.8v-6.37C1693.79,6191.14,1676.85,6186.88,1668.39,6186.88Z" transform="translate(-1574.91 -5995)"/>
  <path class="cls-4" d="M1738,6180.51a12.745,12.745,0,1,0-12.7-12.74A12.733,12.733,0,0,0,1738,6180.51Zm0,6.37c-8.46,0-25.4,4.26-25.4,12.75V6206h50.8v-6.37C1763.4,6191.14,1746.46,6186.88,1738,6186.88Z" transform="translate(-1574.91 -5995)"/>
  <path class="cls-4" d="M1807.6,6180.51a12.745,12.745,0,1,0-12.69-12.74A12.727,12.727,0,0,0,1807.6,6180.51Zm0,6.37c-8.46,0-25.39,4.26-25.39,12.75V6206H1833v-6.37C1833,6191.14,1816.07,6186.88,1807.6,6186.88Z" transform="translate(-1574.91 -5995)"/>
</svg>
