<?xml version="1.0" encoding="utf-8"?>
<!-- Generator: Adobe Illustrator 19.2.1, SVG Export Plug-In . SVG Version: 6.00 Build 0)  -->
<svg version="1.1" id="_50_home_diagram_eco_mobile.svg"
	 xmlns="http://www.w3.org/2000/svg" xmlns:xlink="http://www.w3.org/1999/xlink" x="0px" y="0px" viewBox="0 0 255.6 461.6"
	 style="enable-background:new 0 0 255.6 461.6;" xml:space="preserve">
<style type="text/css">
	.st0{opacity:0.5;fill:#FFFFFF;stroke:#F3D72B;stroke-width:5;stroke-dasharray:20,10;enable-background:new    ;}
	.st1{fill:#757575;}
	.st2{fill:#CAD8DC;}
	.st3{fill:#FFD600;}
	.st4{fill:#FFFFFF;}
	.st5{fill:#FFECB3;}
	.st6{fill:#EAEFF1;}
	.st7{fill:#EBEFF1;}
	.st8{opacity:0.3;fill:#757575;enable-background:new    ;}
</style>
<path id="Rounded_Rectangle_1" class="st0" d="M11.2,24.6h233.1c5.5,0,10,4.5,10,10l0,0v192.2c0,5.5-4.5,10-10,10l0,0H11.2
	c-5.5,0-10-4.5-10-10l0,0V34.6C1.2,29.1,5.7,24.6,11.2,24.6L11.2,24.6z"/>
<path id="Google_hosted_Jibe_platform_" class="st1" d="M54.7,5.2h-3v0.6H54V8c-0.2,0.2-0.5,0.4-0.8,0.5c-0.5,0.2-1,0.3-1.4,0.2
	c-0.7,0-1.5-0.3-1.9-0.9C49.2,7.3,49,6.5,49,5.7V4.2c0-0.8,0.2-1.5,0.7-2.1c0.5-0.5,1.1-0.9,1.8-0.8c1.2-0.1,2.3,0.7,2.4,1.9l0,0
	h0.7l0,0c-0.1-0.7-0.4-1.3-0.9-1.8c-0.6-0.5-1.4-0.7-2.2-0.7c-0.9,0-1.7,0.3-2.3,1s-0.9,1.6-0.9,2.6v1.6c0,1,0.3,1.9,0.9,2.6
	c0.6,0.7,1.5,1,2.4,1c0.7,0,1.3-0.1,1.9-0.4c0.4-0.2,0.8-0.4,1-0.8L54.7,5.2L54.7,5.2z M56.5,6.2c0,0.8,0.2,1.7,0.8,2.3
	c1,1.1,2.8,1.2,3.9,0.2c0.1,0,0.1-0.1,0.2-0.2c0.5-0.6,0.8-1.5,0.8-2.3V6c0-0.8-0.2-1.6-0.8-2.3c-1-1.1-2.8-1.2-3.9-0.2
	c-0.1,0.1-0.1,0.1-0.2,0.2c-0.5,0.6-0.8,1.5-0.8,2.3V6.2z M57.2,6c0-0.7,0.2-1.3,0.6-1.8c0.7-0.9,1.9-1,2.7-0.3
	c0.1,0.1,0.2,0.2,0.3,0.3c0.4,0.5,0.6,1.2,0.6,1.8v0.2c0,0.7-0.2,1.3-0.6,1.9c-0.7,0.9-1.9,1-2.8,0.3c0-0.1-0.2-0.2-0.3-0.4
	C57.3,7.5,57.1,6.8,57.2,6L57.2,6L57.2,6z M63.5,6.2c0,0.8,0.2,1.7,0.8,2.3c1,1.1,2.8,1.2,3.9,0.2c0.1,0,0.1-0.1,0.2-0.2
	c0.5-0.6,0.8-1.5,0.8-2.3V6c0-0.8-0.2-1.7-0.8-2.3c-1-1.1-2.8-1.2-3.9-0.2c-0.1,0.1-0.1,0.1-0.2,0.2c-0.5,0.6-0.8,1.5-0.8,2.3
	C63.5,6,63.5,6.2,63.5,6.2z M64.2,6c0-0.7,0.2-1.3,0.6-1.8c0.7-0.9,1.9-1,2.7-0.3c0.1,0.1,0.2,0.2,0.3,0.3c0.4,0.5,0.6,1.2,0.6,1.8
	v0.2c0,0.7-0.2,1.3-0.6,1.9c-0.7,0.9-1.9,1-2.8,0.3c-0.1-0.1-0.2-0.2-0.3-0.3c-0.4-0.5-0.6-1.2-0.6-1.9V6H64.2z M70.6,6.3
	c0,0.8,0.2,1.6,0.7,2.3c0.4,0.6,1.1,0.9,1.8,0.9c0.4,0,0.8-0.1,1.1-0.3C74.5,9,74.8,8.8,75,8.5v0.8c0,0.5-0.1,1.1-0.5,1.5
	s-0.9,0.6-1.4,0.5c-0.3,0-0.6,0-0.9-0.1s-0.5-0.2-0.8-0.3l-0.2,0.6c0.3,0.1,0.6,0.2,0.9,0.3s0.6,0.1,1,0.1c0.7,0,1.4-0.2,1.9-0.7
	s0.7-1.2,0.7-1.9V2.9h-0.6l-0.1,1c-0.2-0.3-0.5-0.6-0.8-0.8c-0.4-0.2-0.8-0.3-1.2-0.3c-0.7,0-1.4,0.3-1.8,0.9
	c-0.5,0.7-0.7,1.6-0.7,2.4L70.6,6.3L70.6,6.3z M71.3,6.1c0-0.7,0.1-1.4,0.5-2c0.3-0.5,0.8-0.8,1.4-0.8c0.4,0,0.8,0.1,1.2,0.4
	c0.2,0.3,0.4,0.6,0.6,1v2.9c-0.1,0.3-0.4,0.6-0.7,0.9c-0.3,0.2-0.7,0.3-1.1,0.3c-0.6,0-1.1-0.2-1.4-0.7c-0.3-0.6-0.5-1.2-0.5-1.8
	V6.1L71.3,6.1z M78.6,0.1h-0.7v9.1h0.7V0.1z M84.5,9.2c0.3-0.1,0.6-0.3,0.9-0.6l-0.3-0.5c-0.2,0.2-0.5,0.4-0.8,0.5
	c-0.4,0.1-0.7,0.2-1.1,0.2c-0.6,0-1.1-0.3-1.5-0.7c-0.4-0.5-0.6-1.1-0.6-1.8V6.1h4.5V5.5c0-0.7-0.2-1.4-0.7-2
	c-0.5-0.5-1.1-0.8-1.8-0.7c-0.7,0-1.4,0.3-1.9,0.9S80.4,5.1,80.4,6v0.3c0,0.8,0.2,1.6,0.8,2.2c0.5,0.6,1.2,0.9,2,0.9
	C83.7,9.4,84.1,9.3,84.5,9.2L84.5,9.2z M84.5,4C84.8,4.3,85,4.8,85,5.3v0.2h-3.7l0,0c0-0.6,0.3-1.1,0.6-1.5
	C82.5,3.3,83.6,3.2,84.5,4C84.4,3.9,84.4,3.9,84.5,4L84.5,4z M91.3,0.1h-0.7v9.1h0.7V4.8c0.1-0.4,0.4-0.7,0.7-1
	c0.3-0.3,0.8-0.4,1.2-0.4c0.4,0,0.8,0.1,1.1,0.4c0.3,0.4,0.5,1,0.4,1.5v3.9h0.7V5.3c0.1-0.7-0.1-1.4-0.5-1.9c-0.4-0.4-1-0.7-1.5-0.6
	c-0.4,0-0.9,0.1-1.2,0.3c-0.4,0.2-0.6,0.5-0.8,0.9L91.3,0.1L91.3,0.1z M97.2,6.2c0,0.8,0.2,1.7,0.8,2.3c1,1.1,2.8,1.2,3.9,0.1
	c0.1,0,0.1-0.1,0.1-0.1c0.5-0.6,0.8-1.5,0.8-2.3V6c0-0.8-0.2-1.7-0.8-2.3c-1-1.1-2.8-1.2-3.9-0.2C98,3.6,98,3.6,97.9,3.7
	c-0.5,0.6-0.8,1.5-0.8,2.3L97.2,6.2L97.2,6.2z M97.9,6c0-0.7,0.2-1.3,0.6-1.8c0.7-0.9,1.9-1,2.7-0.3c0.1,0.1,0.2,0.2,0.3,0.3
	c0.4,0.5,0.6,1.2,0.6,1.8v0.2c0,0.7-0.2,1.3-0.6,1.9c-0.7,0.9-1.9,1-2.8,0.3c-0.1-0.1-0.2-0.2-0.3-0.3c-0.4-0.5-0.6-1.2-0.6-1.9
	L97.9,6L97.9,6z M107.9,8.4c-0.4,0.2-0.8,0.4-1.2,0.3c-0.4,0-0.8-0.1-1.2-0.3c-0.4-0.2-0.6-0.6-0.6-1h-0.6l0,0c0,0.5,0.2,1,0.6,1.3
	c0.5,0.4,1.2,0.6,1.8,0.6c0.6,0,1.2-0.1,1.7-0.5c0.4-0.3,0.7-0.8,0.6-1.3c0-0.5-0.2-0.9-0.6-1.2c-0.5-0.3-1.1-0.6-1.7-0.7
	c-0.5-0.1-0.9-0.2-1.3-0.5c-0.2-0.2-0.3-0.4-0.3-0.7c0-0.3,0.1-0.6,0.4-0.8s0.7-0.4,1.2-0.3c0.4,0,0.9,0.1,1.2,0.4
	c0.3,0.2,0.4,0.6,0.4,0.9h0.7l0,0c0-0.5-0.2-1-0.6-1.3c-0.5-0.4-1.1-0.6-1.7-0.5c-0.6,0-1.2,0.2-1.6,0.5s-0.6,0.7-0.6,1.2
	c0,0.4,0.2,0.9,0.5,1.1c0.5,0.3,1.1,0.6,1.7,0.7c0.5,0.1,0.9,0.3,1.3,0.5c0.2,0.2,0.4,0.5,0.4,0.8C108.3,8,108.2,8.3,107.9,8.4z
	 M111.3,1.3v1.6h-1.1v0.6h1.1v4.1c0,0.5,0.1,0.9,0.4,1.3c0.3,0.3,0.7,0.4,1,0.4c0.2,0,0.3,0,0.5,0c0.1,0,0.3-0.1,0.4-0.1l-0.1-0.5
	c-0.1,0-0.3,0-0.4,0.1s-0.2,0-0.3,0c-0.2,0-0.5-0.1-0.6-0.3c-0.2-0.3-0.3-0.6-0.2-0.9V3.5h1.4V2.9H112V1.3H111.3L111.3,1.3z
	 M118.9,9.2c0.3-0.1,0.7-0.3,0.9-0.6l-0.3-0.5c-0.2,0.2-0.5,0.4-0.8,0.5c-0.4,0.1-0.7,0.2-1.1,0.2c-0.6,0-1.1-0.3-1.5-0.7
	c-0.4-0.5-0.6-1.1-0.6-1.8V6.1h4.5V5.5c0-0.7-0.2-1.4-0.7-2c-0.5-0.5-1.1-0.8-1.8-0.7c-0.7,0-1.4,0.3-1.9,0.9s-0.8,1.4-0.8,2.3v0.3
	c0,0.8,0.3,1.6,0.8,2.2s1.2,0.9,2,0.9C118.1,9.4,118.5,9.3,118.9,9.2L118.9,9.2z M118.8,4c0.3,0.4,0.5,0.9,0.5,1.4v0.2h-3.7l0,0
	c0-0.6,0.3-1.1,0.6-1.5C116.9,3.3,118,3.2,118.8,4C118.8,3.9,118.8,3.9,118.8,4L118.8,4z M121.4,6.3c0,0.8,0.2,1.6,0.6,2.3
	c0.4,0.6,1.1,0.9,1.8,0.8c0.4,0,0.8-0.1,1.2-0.3c0.3-0.2,0.6-0.4,0.8-0.8l0.1,0.9h0.6V0.1h-0.7v3.8c-0.2-0.3-0.5-0.6-0.8-0.8
	c-0.4-0.2-0.7-0.3-1.2-0.3c-0.7,0-1.4,0.3-1.8,0.9c-0.5,0.7-0.7,1.6-0.6,2.4V6.3L121.4,6.3z M122.1,6.1c0-0.7,0.1-1.4,0.5-2
	c0.3-0.5,0.8-0.8,1.4-0.8c0.4,0,0.8,0.1,1.2,0.3c0.3,0.2,0.5,0.5,0.7,0.9v3c-0.2,0.3-0.4,0.6-0.7,0.9c-0.3,0.2-0.7,0.3-1.1,0.3
	c-0.6,0-1.1-0.2-1.4-0.7C122.4,7.4,122.2,6.8,122.1,6.1L122.1,6.1L122.1,6.1z M135.8,6.8c0,0.5-0.2,1-0.5,1.4s-0.8,0.5-1.3,0.5
	s-1-0.1-1.4-0.5c-0.4-0.4-0.5-0.9-0.5-1.4h-0.7l0,0c-0.1,0.7,0.2,1.3,0.7,1.8c0.5,0.4,1.2,0.7,1.9,0.6c0.7,0,1.3-0.2,1.8-0.7
	s0.7-1.2,0.7-1.9V0.7h-0.7V6.8z M139.6,2.9h-0.7v6.3h0.7V2.9z M139.6,0.1h-0.7v1h0.7V0.1z M147,6.1c0-0.9-0.2-1.7-0.6-2.4
	c-0.4-0.6-1.1-0.9-1.8-0.9c-0.8,0-1.6,0.4-2,1.1V0.1h-0.7v9.1h0.6l0.1-1c0.2,0.3,0.5,0.6,0.8,0.8c0.4,0.2,0.8,0.3,1.2,0.3
	c0.7,0,1.4-0.3,1.8-0.8c0.5-0.7,0.7-1.5,0.6-2.3L147,6.1L147,6.1z M146.3,6.3c0,0.6-0.1,1.3-0.5,1.8c-0.3,0.5-0.8,0.7-1.4,0.7
	c-0.4,0-0.8-0.1-1.2-0.3c-0.3-0.2-0.6-0.5-0.7-0.9V4.7c0.1-0.4,0.4-0.7,0.7-0.9c0.3-0.3,0.8-0.4,1.2-0.4c0.6,0,1.1,0.3,1.4,0.8
	c0.3,0.6,0.5,1.3,0.5,2V6.3L146.3,6.3z M152.5,9.2c0.3-0.1,0.6-0.3,0.9-0.6l-0.3-0.5c-0.2,0.2-0.5,0.4-0.8,0.5
	c-0.4,0.1-0.7,0.2-1.1,0.2c-0.6,0-1.1-0.3-1.5-0.7c-0.4-0.5-0.6-1.1-0.6-1.8V6.1h4.5V5.5c0-0.7-0.2-1.4-0.7-2
	c-0.5-0.5-1.1-0.8-1.8-0.7c-0.7,0-1.4,0.3-1.9,0.9s-0.8,1.4-0.8,2.3v0.3c0,0.8,0.3,1.6,0.8,2.2s1.2,0.9,2,0.9
	C151.7,9.4,152.1,9.3,152.5,9.2L152.5,9.2z M152.4,4c0.3,0.4,0.5,0.9,0.5,1.4v0.2h-3.7l0,0c0-0.6,0.3-1.1,0.6-1.5
	C150.5,3.3,151.6,3.2,152.4,4C152.4,3.9,152.4,3.9,152.4,4L152.4,4z M163.6,6.1c0-0.9-0.2-1.7-0.6-2.4c-0.4-0.6-1.1-0.9-1.8-0.9
	c-0.4,0-0.8,0.1-1.2,0.3c-0.3,0.2-0.6,0.5-0.8,0.8l-0.1-1h-0.6v8.8h0.7V8.4c0.2,0.3,0.5,0.6,0.8,0.7c0.4,0.2,0.8,0.3,1.2,0.2
	c0.7,0,1.4-0.3,1.8-0.8C163.5,7.8,163.7,7,163.6,6.1L163.6,6.1L163.6,6.1z M162.9,6.3c0,0.6-0.1,1.3-0.5,1.8
	c-0.3,0.5-0.8,0.7-1.4,0.7c-0.4,0-0.8-0.1-1.1-0.3s-0.5-0.5-0.7-0.8V4.6c0.1-0.3,0.4-0.7,0.7-0.9s0.7-0.4,1.2-0.3
	c0.6,0,1.1,0.3,1.4,0.8c0.3,0.6,0.5,1.3,0.5,2L162.9,6.3L162.9,6.3z M166.3,0.1h-0.7v9.1h0.7V0.1z M173.3,9.3
	c-0.1-0.2-0.1-0.4-0.1-0.6c0-0.2,0-0.4,0-0.6V4.9c0-0.6-0.2-1.1-0.6-1.5c-0.5-0.4-1.1-0.6-1.7-0.5c-0.6,0-1.2,0.2-1.7,0.6
	c-0.4,0.3-0.7,0.8-0.7,1.3l0,0h0.6c0-0.4,0.2-0.7,0.5-0.9c0.4-0.3,0.8-0.4,1.2-0.4s0.9,0.1,1.2,0.4s0.5,0.7,0.4,1.1v0.8H171
	c-0.7,0-1.4,0.1-2,0.5c-0.5,0.3-0.8,0.8-0.8,1.4c0,0.5,0.2,1,0.5,1.3c0.4,0.3,0.9,0.5,1.4,0.5s0.9-0.1,1.3-0.3
	c0.4-0.2,0.7-0.5,0.9-0.8c0,0.2,0,0.3,0,0.5s0.1,0.3,0.1,0.6L173.3,9.3L173.3,9.3z M169.3,8.4c-0.2-0.2-0.4-0.5-0.4-0.8
	c0-0.4,0.2-0.8,0.6-1c0.5-0.3,1-0.4,1.5-0.4h1.4v1.3c-0.2,0.4-0.5,0.7-0.8,0.9c-0.4,0.2-0.9,0.4-1.3,0.4
	C169.9,8.8,169.5,8.7,169.3,8.4L169.3,8.4z M175.7,1.3v1.6h-1.1v0.6h1.1v4.1c0,0.5,0.1,0.9,0.4,1.3c0.3,0.3,0.6,0.4,1,0.4
	c0.2,0,0.3,0,0.5,0c0.1,0,0.3-0.1,0.4-0.1l-0.1-0.5c-0.1,0-0.3,0-0.4,0.1s-0.2,0-0.3,0c-0.2,0-0.5-0.1-0.6-0.3
	c-0.2-0.3-0.3-0.6-0.2-0.9V3.5h1.4V2.9h-1.4V1.3H175.7L175.7,1.3z M180.8,9.3V3.5h1.5V2.9h-1.5V2c0-0.4,0.1-0.7,0.3-1
	s0.5-0.4,0.9-0.4c0.1,0,0.2,0,0.3,0s0.2,0,0.3,0.1l0.1-0.6c-0.1,0-0.3-0.1-0.4-0.1c-0.1,0-0.3,0-0.4,0c-0.5,0-1,0.2-1.3,0.5
	c-0.3,0.4-0.5,0.9-0.5,1.5v0.9H179v0.6h1.1v5.8H180.8L180.8,9.3z M183.4,6.2c0,0.8,0.2,1.7,0.8,2.3c1,1.1,2.8,1.2,3.9,0.1
	c0.1,0,0.1-0.1,0.1-0.1c0.5-0.6,0.8-1.5,0.8-2.3V6c0-0.8-0.2-1.7-0.8-2.3c-1-1.1-2.8-1.2-3.9-0.2c-0.1,0.1-0.1,0.1-0.2,0.2
	c-0.5,0.6-0.8,1.5-0.8,2.3L183.4,6.2L183.4,6.2z M184.1,6c0-0.7,0.2-1.3,0.6-1.8c0.4-0.5,0.9-0.8,1.5-0.8s1.2,0.3,1.6,0.8
	c0.4,0.5,0.6,1.2,0.6,1.8v0.2c0,0.7-0.2,1.3-0.6,1.9c-0.7,0.9-1.9,1-2.8,0.3c-0.1-0.1-0.2-0.2-0.3-0.3c-0.4-0.5-0.6-1.2-0.6-1.9V6
	L184.1,6z M193.8,2.9c-0.1,0-0.1,0-0.2,0c-0.1,0-0.2,0-0.3,0c-0.4,0-0.8,0.1-1.1,0.3s-0.6,0.6-0.7,0.9V4l-0.1-1.1h-0.6v6.3h0.7V4.9
	c0.1-0.4,0.3-0.7,0.6-1s0.7-0.4,1.1-0.4h0.5L193.8,2.9z M195.2,2.9v6.3h0.7V4.8c0.1-0.4,0.3-0.7,0.6-1s0.8-0.4,1.2-0.4
	s0.9,0.2,1.2,0.5c0.3,0.5,0.5,1.1,0.4,1.6v3.7h0.7V5.5V5.4V5.3c0-0.5,0.2-0.9,0.6-1.3c0.3-0.4,0.8-0.5,1.3-0.5
	c0.4,0,0.9,0.2,1.2,0.5c0.3,0.5,0.5,1.1,0.4,1.7v3.7h0.7V5.6c0.1-0.7-0.1-1.5-0.6-2.1c-0.4-0.5-1-0.7-1.6-0.7
	c-0.5,0-0.9,0.1-1.3,0.4c-0.4,0.3-0.7,0.6-0.8,1c-0.1-0.4-0.4-0.8-0.7-1.1c-0.4-0.2-0.8-0.4-1.2-0.4s-0.8,0.1-1.2,0.3
	c-0.3,0.2-0.6,0.5-0.8,0.9l-0.1-1L195.2,2.9L195.2,2.9z"/>
<g id="Google_dots">
	<path class="st2" d="M53.8,100.1c-1.3,1.3-1.4,3.4-0.1,4.7c1.3,1.3,3.4,1.4,4.7,0.1s1.4-3.4,0.1-4.7c0,0,0,0,0-0.1
		C57.2,98.8,55.1,98.8,53.8,100.1z M65.7,112.1c-1.3,1.3-1.4,3.4-0.1,4.7c1.3,1.3,3.4,1.4,4.7,0.1s1.4-3.4,0.1-4.7l0,0
		C69.1,110.8,67,110.8,65.7,112.1L65.7,112.1z M77.6,124.1c-1.3,1.3-1.4,3.4-0.1,4.7s3.4,1.4,4.7,0.1s1.4-3.4,0.1-4.7c0,0,0,0,0-0.1
		C81,122.8,79,122.8,77.6,124.1L77.6,124.1z M89.5,135.8c-1.3,1.3-1.4,3.4-0.1,4.7s3.4,1.4,4.7,0.1s1.4-3.4,0.1-4.7c0,0,0,0,0-0.1
		C92.9,134.5,90.8,134.5,89.5,135.8L89.5,135.8z M53.7,100.1c-1.3,1.3-1.4,3.4-0.1,4.7c1.3,1.3,3.4,1.4,4.7,0.1s1.4-3.4,0.1-4.7
		c0,0,0,0,0-0.1C57.2,98.8,55.1,98.8,53.7,100.1L53.7,100.1z"/>
	<path class="st2" d="M201.6,100.1c-1.3-1.3-3.4-1.4-4.7-0.1s-1.4,3.4-0.1,4.7c1.3,1.3,3.4,1.4,4.7,0.1l0,0
		C202.9,103.5,202.9,101.4,201.6,100.1z M189.6,112c-1.3-1.3-3.4-1.4-4.7-0.1s-1.4,3.4-0.1,4.7s3.4,1.4,4.7,0.1l0,0
		C190.9,115.4,190.9,113.3,189.6,112L189.6,112z M177.7,124c-1.3-1.3-3.4-1.4-4.7-0.1s-1.4,3.4-0.1,4.7s3.4,1.4,4.7,0.1l0,0
		C178.9,127.4,178.9,125.3,177.7,124L177.7,124z M165.9,135.8c-1.3-1.3-3.4-1.4-4.7-0.1c-1.3,1.3-1.4,3.4-0.1,4.7
		c1.3,1.3,3.4,1.4,4.7,0.1l0,0C167.2,139.2,167.2,137.1,165.9,135.8L165.9,135.8z M201.6,100.1c-1.3-1.3-3.4-1.4-4.7-0.1
		s-1.4,3.4-0.1,4.7c1.3,1.3,3.4,1.4,4.7,0.1l0,0C202.9,103.5,202.9,101.4,201.6,100.1L201.6,100.1z"/>
	<path id="Ellipse_2_copy" class="st2" d="M127.4,84.2c-1.9,0-3.4,1.4-3.4,3.3s1.4,3.4,3.3,3.4c1.9,0,3.4-1.4,3.4-3.3c0,0,0,0,0-0.1
		C130.7,85.7,129.2,84.2,127.4,84.2z M127.4,101.1c-1.9,0-3.4,1.4-3.4,3.3s1.4,3.4,3.3,3.4c1.9,0,3.4-1.4,3.4-3.3c0,0,0,0,0-0.1
		C130.7,102.7,129.2,101.2,127.4,101.1z M127.4,118.1c-1.9,0-3.4,1.4-3.4,3.3s1.4,3.4,3.3,3.4c1.9,0,3.4-1.4,3.4-3.3c0,0,0,0,0-0.1
		C130.7,119.6,129.2,118.1,127.4,118.1z M127.5,134.7c-1.9,0-3.4,1.4-3.4,3.3c0,1.9,1.4,3.4,3.3,3.4s3.4-1.4,3.4-3.3c0,0,0,0,0-0.1
		C130.8,136.2,129.3,134.7,127.5,134.7L127.5,134.7z M127.4,84.2c-1.9,0-3.4,1.4-3.4,3.3s1.4,3.4,3.3,3.4c1.9,0,3.4-1.4,3.4-3.3
		c0,0,0,0,0-0.1C130.7,85.7,129.2,84.2,127.4,84.2L127.4,84.2z"/>
</g>
<g id="Google_Hub">
	<g>
		<path class="st3" d="M103.8,153.1h48c5.5,0,10,4.5,10,10v48c0,5.5-4.5,10-10,10h-48c-5.5,0-10-4.5-10-10v-48
			C93.8,157.6,98.3,153.1,103.8,153.1z"/>
		<path class="st4" d="M127.8,194l6.5,3.9c-0.6,3,0.8,6.1,3.4,7.7c3.3,2,7.5,0.9,9.5-2.4c0.1-0.1,0.1-0.2,0.2-0.3
			c2-3.5,0.8-7.9-2.6-10.1c-2.6-1.5-5.9-1.2-8.1,0.8l-6.5-3.9v-7.8c2.9-1.1,4.7-3.9,4.7-6.9c0-4.1-3.2-7.4-7.1-7.4s-7.1,3.3-7.1,7.4
			c0,3.1,1.9,5.8,4.7,6.9v7.8l-6.5,3.9c-2.2-2-5.5-2.3-8.1-0.8c-3.4,2.1-4.6,6.6-2.6,10.1c1.8,3.4,6,4.7,9.4,2.9
			c0.1-0.1,0.2-0.1,0.3-0.2c2.6-1.6,4-4.7,3.4-7.7L127.8,194z"/>
	</g>
</g>
<g id="clouds">
	<path id="Shape_25_copy_2" class="st5" d="M180.8,79.4c0-5.1,4.1-9.2,9.2-9.2l0,0c1.2,0,2.5,0.2,3.6,0.7
		c1.5-8.1,9.2-13.5,17.4-12.1c4.5,0.8,8.4,3.6,10.5,7.7c6-1.7,12.2,1.8,13.9,7.8s-1.8,12.2-7.8,13.9c-1,0.3-2,0.4-3,0.4
		c0,0,0,0-0.1,0l0,0h-34.6l0,0C184.9,88.6,180.8,84.5,180.8,79.4z"/>
	<path id="Shape_25_copy" class="st5" d="M154.8,64.4c0-5.1-4.1-9.2-9.1-9.2c-1.3,0-2.5,0.2-3.7,0.7c-1.5-8.1-9.2-13.5-17.3-12.1
		c-4.5,0.8-8.4,3.6-10.5,7.7c-6-1.7-12.2,1.8-13.9,7.8c-1.7,6,1.8,12.2,7.8,13.9c1,0.3,2,0.4,3,0.4h34.7
		C150.7,73.6,154.8,69.5,154.8,64.4z"/>
	<path class="st5" d="M74.3,79.4c0-5.1-4.1-9.2-9.2-9.2c-1.3,0-2.5,0.2-3.7,0.7c-1.5-8.1-9.2-13.5-17.3-12.1
		c-4.5,0.8-8.4,3.6-10.5,7.7c-6-1.7-12.2,1.8-13.9,7.8c-1.7,6,1.8,12.2,7.8,13.9c1,0.3,2,0.4,3,0.4h34.7l0,0
		C70.2,88.6,74.3,84.5,74.3,79.4z"/>
</g>
<g id="dots">
	<path class="st2" d="M53.8,294c-1.3-1.3-1.4-3.4-0.1-4.7c1.3-1.3,3.4-1.4,4.7-0.1s1.4,3.4,0.1,4.7c0,0,0,0,0,0.1
		C57.2,295.3,55.1,295.3,53.8,294z M65.7,282.1c-1.3-1.3-1.4-3.4-0.1-4.7c1.3-1.3,3.4-1.4,4.7-0.1s1.4,3.4,0.1,4.7l0,0
		C69.1,283.3,67,283.3,65.7,282.1L65.7,282.1z M77.6,270.1c-1.3-1.3-1.4-3.4-0.1-4.7c1.3-1.3,3.4-1.4,4.7-0.1s1.4,3.4,0.1,4.7
		c0,0,0,0,0,0.1C81,271.3,79,271.4,77.6,270.1L77.6,270.1z M89.5,258.4c-1.3-1.3-1.4-3.4-0.1-4.7s3.4-1.4,4.7-0.1s1.4,3.4,0.1,4.7
		l0,0C92.9,259.6,90.8,259.6,89.5,258.4L89.5,258.4z M53.7,294c-1.3-1.3-1.4-3.4-0.1-4.7c1.3-1.3,3.4-1.4,4.7-0.1s1.4,3.4,0.1,4.7
		c0,0,0,0,0,0.1C57.2,295.3,55.1,295.3,53.7,294L53.7,294z"/>
	<path class="st2" d="M201.6,294.1c-1.3,1.3-3.4,1.4-4.7,0.1s-1.4-3.4-0.1-4.7c1.3-1.3,3.4-1.4,4.7-0.1l0,0
		C202.9,290.7,202.9,292.8,201.6,294.1z M189.6,282.1c-1.3,1.3-3.4,1.4-4.7,0.1s-1.4-3.4-0.1-4.7s3.4-1.4,4.7-0.1l0,0
		C190.9,278.7,190.9,280.8,189.6,282.1L189.6,282.1z M177.7,270.2c-1.3,1.3-3.4,1.4-4.7,0.1s-1.4-3.4-0.1-4.7
		c1.3-1.3,3.4-1.4,4.7-0.1l0,0C178.9,266.8,178.9,268.9,177.7,270.2L177.7,270.2z M165.9,258.3c-1.3,1.3-3.4,1.4-4.7,0.1
		s-1.4-3.4-0.1-4.7c1.3-1.3,3.4-1.4,4.7-0.1l0,0C167.2,254.9,167.2,257,165.9,258.3L165.9,258.3z M201.6,294.1
		c-1.3,1.3-3.4,1.4-4.7,0.1s-1.4-3.4-0.1-4.7c1.3-1.3,3.4-1.4,4.7-0.1l0,0C202.9,290.7,202.9,292.8,201.6,294.1L201.6,294.1z"/>
	<path id="Ellipse_2_copy-2" class="st2" d="M127.4,293c-1.9,0-3.4-1.4-3.4-3.3s1.4-3.4,3.3-3.4c1.9,0,3.4,1.4,3.4,3.3
		c0,0,0,0,0,0.1C130.7,291.5,129.2,293,127.4,293z M127.4,276.1c-1.9,0-3.4-1.4-3.4-3.3s1.4-3.4,3.3-3.4c1.9,0,3.4,1.4,3.4,3.3
		c0,0,0,0,0,0.1C130.7,274.6,129.2,276.1,127.4,276.1z M127.5,259.4c-1.9,0-3.4-1.4-3.4-3.3s1.4-3.4,3.3-3.4s3.4,1.4,3.4,3.3
		c0,0,0,0,0,0.1C130.8,257.9,129.3,259.4,127.5,259.4L127.5,259.4z"/>
</g>
<g id="hub_2">
	<path class="st6" d="M115.3,305.6h25c5.5,0,10,4.5,10,10v25c0,5.5-4.5,10-10,10h-25c-5.5,0-10-4.5-10-10v-25
		C105.3,310.1,109.8,305.6,115.3,305.6z"/>
	<path class="st4" d="M127.8,332.7l4.3,2.6c-0.4,2,0.5,4,2.2,5.1c2.2,1.3,5,0.6,6.3-1.6c0-0.1,0.1-0.1,0.1-0.2
		c1.3-2.3,0.5-5.3-1.7-6.7c-1.7-1-3.9-0.8-5.4,0.5l-4.3-2.6v-5.2c1.9-0.7,3.1-2.6,3.1-4.6c0.1-2.6-1.9-4.8-4.5-4.9s-4.8,1.9-4.9,4.5
		c0,0.1,0,0.3,0,0.4c0,2,1.2,3.9,3.1,4.6v5.2l-4.3,2.6c-1.5-1.3-3.7-1.5-5.4-0.5c-2.3,1.4-3,4.3-1.7,6.7c1.2,2.2,3.9,3.1,6.2,1.9
		c0.1,0,0.1-0.1,0.2-0.1c1.7-1.1,2.6-3.1,2.2-5.1L127.8,332.7z"/>
</g>
<path id="Shape_25_copy-2" class="st7" d="M103.3,452.4c0-5.1,4.1-9.2,9.1-9.2c1.3,0,2.5,0.2,3.7,0.7c1.5-8.1,9.2-13.5,17.4-12.1
	c4.5,0.8,8.4,3.6,10.5,7.7c6-1.7,12.2,1.8,13.9,7.8s-1.8,12.2-7.8,13.9c-1,0.3-2,0.4-3,0.4h-34.7
	C107.4,461.6,103.3,457.5,103.3,452.4z"/>
<path id="bilateral_2" class="st7" d="M188.8,328c0-5.1,4.1-9.2,9.2-9.2c1.3,0,2.5,0.2,3.7,0.7c1.5-8.1,9.3-13.5,17.4-12
	c4.5,0.8,8.3,3.6,10.5,7.6c1-0.3,2-0.4,3.1-0.4c6.2,0,11.3,5,11.3,11.2s-5,11.3-11.2,11.3c0,0,0,0-0.1,0l0,0h-34.6l0,0
	C192.9,337.1,188.8,333,188.8,328z"/>
<path id="bilateral_1" class="st7" d="M11.8,327.8c0-5.1,4.1-9.2,9.2-9.2c1.2,0,2.5,0.3,3.6,0.7c1.5-8.1,9.3-13.5,17.4-12
	c4.5,0.8,8.3,3.6,10.5,7.6c1-0.3,2-0.4,3.1-0.4c6.2,0,11.2,5,11.2,11.2s-5,11.2-11.2,11.2l0,0H20.9l0,0
	C15.9,337,11.8,332.9,11.8,327.8z"/>
<g id="dots-2">
	<path class="st2" d="M53.8,404.5c-1.3-1.3-1.4-3.4-0.1-4.7c1.3-1.3,3.4-1.4,4.7-0.1s1.4,3.4,0.1,4.7l0,0
		C57.2,405.7,55.1,405.8,53.8,404.5z M65.7,392.5c-1.3-1.3-1.4-3.4-0.1-4.7c1.3-1.3,3.4-1.4,4.7-0.1s1.4,3.4,0.1,4.7l0,0
		C69.1,393.8,67,393.8,65.7,392.5L65.7,392.5z M77.6,380.5c-1.3-1.3-1.4-3.4-0.1-4.7c1.3-1.3,3.4-1.4,4.7-0.1s1.4,3.4,0.1,4.7
		c0,0,0,0,0,0.1C81,381.8,79,381.8,77.6,380.5L77.6,380.5z M89.5,368.8c-1.3-1.3-1.4-3.4-0.1-4.7c1.3-1.3,3.4-1.4,4.7-0.1
		s1.4,3.4,0.1,4.7c0,0,0,0,0,0.1C92.9,370.1,90.8,370.1,89.5,368.8L89.5,368.8z M53.7,404.5c-1.3-1.3-1.4-3.4-0.1-4.7
		c1.3-1.3,3.4-1.4,4.7-0.1s1.4,3.4,0.1,4.7l0,0C57.2,405.7,55.1,405.8,53.7,404.5L53.7,404.5z"/>
	<path class="st2" d="M201.6,404.5c-1.3,1.3-3.4,1.4-4.7,0.1s-1.4-3.4-0.1-4.7c1.3-1.3,3.4-1.4,4.7-0.1l0,0
		C202.9,401.1,202.9,403.2,201.6,404.5z M189.6,392.6c-1.3,1.3-3.4,1.4-4.7,0.1s-1.4-3.4-0.1-4.7s3.4-1.4,4.7-0.1l0,0
		C190.9,389.1,190.9,391.2,189.6,392.6L189.6,392.6z M177.7,380.6c-1.3,1.3-3.4,1.4-4.7,0.1s-1.4-3.4-0.1-4.7s3.4-1.4,4.7-0.1l0,0
		C178.9,377.2,178.9,379.3,177.7,380.6L177.7,380.6z M165.9,368.8c-1.3,1.3-3.4,1.4-4.7,0.1s-1.4-3.4-0.1-4.7
		c1.3-1.3,3.4-1.4,4.7-0.1l0,0C167.2,365.4,167.2,367.5,165.9,368.8L165.9,368.8z M201.6,404.5c-1.3,1.3-3.4,1.4-4.7,0.1
		s-1.4-3.4-0.1-4.7c1.3-1.3,3.4-1.4,4.7-0.1l0,0C202.9,401.1,202.9,403.2,201.6,404.5L201.6,404.5z"/>
	<path id="Ellipse_2_copy-3" class="st2" d="M127.4,420.4c-1.9,0-3.4-1.4-3.4-3.3s1.4-3.4,3.3-3.4c1.9,0,3.4,1.4,3.4,3.3
		c0,0,0,0,0,0.1C130.7,418.9,129.3,420.4,127.4,420.4z M127.4,403.5c-1.9,0-3.4-1.4-3.4-3.3s1.4-3.4,3.3-3.4c1.9,0,3.4,1.4,3.4,3.3
		c0,0,0,0,0,0.1C130.7,401.9,129.2,403.4,127.4,403.5L127.4,403.5z M127.4,386.5c-1.9,0-3.4-1.4-3.4-3.3s1.4-3.4,3.3-3.4
		c1.9,0,3.4,1.4,3.4,3.3c0,0,0,0,0,0.1C130.7,385,129.2,386.5,127.4,386.5L127.4,386.5z M127.5,369.9c-1.9,0-3.4-1.4-3.4-3.3
		s1.4-3.4,3.3-3.4s3.4,1.4,3.4,3.3v0.1C130.8,368.4,129.3,369.9,127.5,369.9L127.5,369.9z M127.4,420.4c-1.9,0-3.4-1.4-3.4-3.3
		s1.4-3.4,3.3-3.4c1.9,0,3.4,1.4,3.4,3.3c0,0,0,0,0,0.1C130.7,418.9,129.3,420.4,127.4,420.4L127.4,420.4z"/>
</g>
<path class="st8" d="M230.4,415.3h-17.5c-3.3,0-6,2.7-6,6v27.5c0,3.3,2.7,6,6,6h17.5c3.3,0,6-2.7,6-6v-27.5
	C236.4,418,233.7,415.3,230.4,415.3z M212.9,449.1c-1.2,0-2.1-1-2.1-2.1s1-2.1,2.1-2.1s2.1,1,2.1,2.1
	C215,448.2,214,449.1,212.9,449.1z M212.9,441c-1.2,0-2.1-1-2.1-2.1s1-2.1,2.1-2.1s2.1,1,2.1,2.1C215,440.1,214,441,212.9,441z
	 M212.9,432.9L212.9,432.9c-1.2,0-2.1-1-2.1-2.1s1-2.1,2.1-2.1s2.1,1,2.1,2.1C215,432,214.1,432.9,212.9,432.9z M212.9,424.8
	L212.9,424.8c-1.2,0-2.1-1-2.1-2.1s1-2.1,2.1-2.1s2.1,1,2.1,2.1C215,423.9,214.1,424.8,212.9,424.8z M231.3,448.4h-11.5
	c-0.8,0-1.4-0.6-1.4-1.4s0.6-1.4,1.4-1.4h11.5c0.8,0,1.4,0.6,1.4,1.4S232.1,448.4,231.3,448.4z M231.3,440.1h-11.5
	c-0.8,0-1.4-0.6-1.4-1.4s0.6-1.4,1.4-1.4h11.5c0.8,0,1.4,0.6,1.4,1.4S232.1,440.1,231.3,440.1z M231.3,431.9h-11.5
	c-0.8,0-1.4-0.6-1.4-1.4s0.6-1.4,1.4-1.4h11.5c0.8,0,1.4,0.6,1.4,1.4S232.1,431.9,231.3,431.9z M231.3,423.6h-11.5
	c-0.8,0-1.4-0.6-1.4-1.4s0.6-1.4,1.4-1.4h11.5c0.8,0,1.4,0.6,1.4,1.4S232.1,423.6,231.3,423.6z"/>
<path class="st8" d="M48.4,415.3H30.9c-3.3,0-6,2.7-6,6v27.5c0,3.3,2.7,6,6,6h17.5c3.3,0,6-2.7,6-6v-27.5
	C54.4,418,51.7,415.3,48.4,415.3z M30.9,449.1c-1.2,0-2.1-1-2.1-2.1s1-2.1,2.1-2.1s2.1,1,2.1,2.1C33,448.2,32,449.1,30.9,449.1z
	 M30.9,441c-1.2,0-2.1-1-2.1-2.1s1-2.1,2.1-2.1s2.1,1,2.1,2.1C33,440.1,32,441,30.9,441z M30.9,432.9L30.9,432.9
	c-1.2,0-2.1-1-2.1-2.1s1-2.1,2.1-2.1s2.1,1,2.1,2.1C33,432,32.1,432.9,30.9,432.9z M30.9,424.8L30.9,424.8c-1.2,0-2.1-1-2.1-2.1
	s1-2.1,2.1-2.1s2.1,1,2.1,2.1C33,423.9,32.1,424.8,30.9,424.8z M49.3,448.4H37.8c-0.8,0-1.4-0.6-1.4-1.4s0.6-1.4,1.4-1.4h11.5
	c0.8,0,1.4,0.6,1.4,1.4S50.1,448.4,49.3,448.4z M49.3,440.1H37.8c-0.8,0-1.4-0.6-1.4-1.4s0.6-1.4,1.4-1.4h11.5
	c0.8,0,1.4,0.6,1.4,1.4S50.1,440.1,49.3,440.1z M49.3,431.9H37.8c-0.8,0-1.4-0.6-1.4-1.4s0.6-1.4,1.4-1.4h11.5
	c0.8,0,1.4,0.6,1.4,1.4S50.1,431.9,49.3,431.9z M49.3,423.6H37.8c-0.8,0-1.4-0.6-1.4-1.4s0.6-1.4,1.4-1.4h11.5
	c0.8,0,1.4,0.6,1.4,1.4S50.1,423.6,49.3,423.6z"/>
</svg>
