<svg id="home_diagram02_mobile_2x.svg_50_home_diagram02_mobile.svg" data-name="home_diagram02_mobile_2x.svg, 50% home_diagram02_mobile.svg" xmlns="http://www.w3.org/2000/svg" xmlns:xlink="http://www.w3.org/1999/xlink" width="242.5" height="267" viewBox="0 0 485 534">
  <defs>
    <style>
      .cls-1 {
        fill: #cad8dc;
        opacity: 0.5;
      }

      .cls-1, .cls-2, .cls-3, .cls-5 {
        fill-rule: evenodd;
      }

      .cls-2 {
        fill: #ffb74d;
      }

      .cls-3 {
        fill: #ffd600;
      }

      .cls-4 {
        filter: url(#filter);
      }

      .cls-5 {
        fill: #ebeff1;
      }
    </style>
    <filter id="filter" filterUnits="userSpaceOnUse">
      <feFlood result="flood" flood-color="#cad8dc"/>
      <feComposite result="composite" operator="in" in2="SourceGraphic"/>
      <feBlend result="blend" in2="SourceGraphic"/>
    </filter>
  </defs>
  <g id="fave_bubble" data-name="fave bubble">
    <path id="phone_icon_17" data-name="phone icon 17" class="cls-1" d="M3078.59,2501.83h101.05a10.375,10.375,0,0,1,10.36,10.39v210.39a10.375,10.375,0,0,1-10.36,10.39H3078.59a10.375,10.375,0,0,1-10.36-10.39V2512.22A10.375,10.375,0,0,1,3078.59,2501.83Zm0,25.98h101.07v176.6H3078.59v-176.6Zm38.86-15.59h25.91v7.79h-25.91v-7.79Zm-10.36,202.6h46.64v7.79h-46.64v-7.79Z" transform="translate(-2705 -2199)"/>
    <path id="Shape_28_copy_3" data-name="Shape 28 copy 3" class="cls-2" d="M3119.71,2631.86l-14.7-14.93-5,5.05,19.7,20.01,42.29-42.95-4.97-5.05Z" transform="translate(-2705 -2199)"/>
  </g>
  <g id="video_bubble" data-name="video bubble">
    <path id="phone_icon_16" data-name="phone icon 16" class="cls-1" d="M2895.75,2532.72h103.19a4,4,0,0,1,4,4V2729a4,4,0,0,1-4,4H2895.75a4,4,0,0,1-4-4V2536.72A4,4,0,0,1,2895.75,2532.72Zm6.34,31.22h90.5v150.87h-90.5V2563.94Zm72.4-23.41a7.8,7.8,0,1,1-7.76,7.8A7.774,7.774,0,0,1,2974.49,2540.53Zm-38.77,5.22h20.66v7.75h-20.66v-7.75Z" transform="translate(-2705 -2199)"/>
    <path class="cls-3" d="M2927.44,2653.48v-6.62h6.53v6.62h26.15v-6.62h6.54v6.62h6.54v-59.63h-6.54v6.62h-6.54v-6.62h-26.15v6.62h-6.53v-6.62h-6.54v59.63h6.54Zm32.68-46.38h6.54v6.63h-6.54v-6.63Zm0,13.25h6.54v6.63h-6.54v-6.63Zm0,13.25h6.54v6.63h-6.54v-6.63Zm-32.68-26.5h6.53v6.63h-6.53v-6.63Zm0,13.25h6.53v6.63h-6.53v-6.63Zm0,13.25h6.53v6.63h-6.53v-6.63Z" transform="translate(-2705 -2199)"/>
  </g>
  <g id="location_bubble" data-name="location bubble">
    <path id="phone_icon_14" data-name="phone icon 14" class="cls-1" d="M2826.94,2501.83V2733H2705V2501.83h121.94Zm-111.56,10.36h101.15v202.65H2715.38V2512.19Z" transform="translate(-2705 -2199)"/>
    <path class="cls-2" d="M2765.21,2588.27a24.629,24.629,0,0,0-24.64,24.66c0,18.49,24.64,45.79,24.64,45.79s24.64-27.3,24.64-45.79A24.636,24.636,0,0,0,2765.21,2588.27Zm0,33.46a8.805,8.805,0,1,1,8.8-8.8A8.8,8.8,0,0,1,2765.21,2621.73Z" transform="translate(-2705 -2199)"/>
  </g>
  <g id="emoji_bubble" data-name="emoji bubble">
    <path id="phone_icon_12" data-name="phone icon 12" class="cls-1" d="M3179.16,2198.99v210.39a10.386,10.386,0,0,1-10.38,10.39h-90.81a10.386,10.386,0,0,1-10.38-10.39V2198.99h111.57ZM3078,2224.97h90.78v166.22H3078V2224.97Zm33.7-15.59h20.76v7.8H3111.7v-7.8Z" transform="translate(-2705 -2199)"/>
    <path class="cls-3" d="M3129.58,2323.88a11.91,11.91,0,0,1-14.34,0,1.333,1.333,0,0,0-1.63,2.11,14.236,14.236,0,0,0,8.8,2.96,14.549,14.549,0,0,0,8.83-2.93,1.336,1.336,0,0,0,.24-1.87A1.359,1.359,0,0,0,3129.58,2323.88Zm-16.5-14.94a2.67,2.67,0,1,1-2.67,2.67A2.661,2.661,0,0,1,3113.08,2308.94Zm9.33-30.69a32.02,32.02,0,1,0,32,32.02A32,32,0,0,0,3122.41,2278.25Zm21.23,39.55c-2.91,9.98-11.39,17.24-21.44,17.24-10.08,0-18.56-7.26-21.44-17.27a6.523,6.523,0,0,1-5.68-6.72,6.594,6.594,0,0,1,5.25-6.68c5.57-3.89,10.13-9.31,10.91-13.47v-0.03c3.6,7.02,16.8,13.85,31.55,13.5l0.8-.07c3.41,0,6.16,3.04,6.16,6.77A6.468,6.468,0,0,1,3143.64,2317.8Zm-11.9-8.86a2.67,2.67,0,1,1-2.66,2.67A2.663,2.663,0,0,1,3131.74,2308.94Z" transform="translate(-2705 -2199)"/>
  </g>
  <g id="photo_bubble" data-name="photo bubble">
    <path id="phone_icon_8" data-name="phone icon 8" class="cls-1" d="M2895.75,2227.44h103.19a4,4,0,0,1,4,4v184.34a4,4,0,0,1-4,4H2895.75a4,4,0,0,1-4-4V2231.44A4,4,0,0,1,2895.75,2227.44Zm6.38,23.37h90.5v140.35h-90.5V2250.81Zm33.59,150.78h23.25v7.82h-23.25v-7.82Zm28.43-.01h23.28v7.8h-23.28v-7.8Zm-56.89,0h23.27v7.8h-23.27v-7.8Z" transform="translate(-2705 -2199)"/>
    <path id="Shape_30_copy" data-name="Shape 30 copy" class="cls-3" d="M2966.98,2292.98h-45.96a4.012,4.012,0,0,0-4.02,4.01v31.84a3.912,3.912,0,0,0,4.02,4.02l45.96,0.06a3.884,3.884,0,0,0,4.02-4.08v-31.84A4.012,4.012,0,0,0,2966.98,2292.98Zm0.06,36.03h-46.02v-32.02h46.02v32.02Zm-44.04-2.22v0.06l0.05-.06H2923Zm41.88-7.67-9.84-14.15-7.92,10.31-3.9-4.14-10.08,11.82-4.14-3.78-5.95,7.61h41.83v-7.67Zm-32.16-10.26a5.094,5.094,0,0,0,4.14-4.13,5.038,5.038,0,0,0-5.82-5.82,4.966,4.966,0,0,0-4.14,4.14A5.031,5.031,0,0,0,2932.72,2308.86Zm40.32,20.63-0.06-30.46c1.08,0,4.02,2.88,4.02,4.02v31.84a4.14,4.14,0,0,1-4.14,4.13h-45.84c-1.08,0-4.02-2.87-4.02-4.01h46.8C2973.94,2334.95,2973.04,2329.49,2973.04,2329.49Z" transform="translate(-2705 -2199)"/>
  </g>
  <g id="text_bubble" data-name="text bubble">
    <path id="phone_icon_7" data-name="phone icon 7" class="cls-1" d="M2826.82,2198.99v210.39a10.386,10.386,0,0,1-10.38,10.39h-90.8a10.379,10.379,0,0,1-10.38-10.39V2198.99h111.56Zm-101.19,25.98h90.84v166.22h-90.84V2224.97Zm33.73-15.59h20.76v7.8h-20.76v-7.8Z" transform="translate(-2705 -2199)"/>
    <path class="cls-2" d="M2779.49,2324.91H2735.1v5.86h44.39v-5.86Zm26.63-23.42H2735.1v5.86h71.02v-5.86Zm-71.02,17.57h71.02v-5.86H2735.1v5.86Zm0-29.28v5.85h71.02v-5.85H2735.1Z" transform="translate(-2705 -2199)"/>
  </g>
  <g id="dots" class="cls-4">
    <path class="cls-5" d="M3011.36,2308.21a4.842,4.842,0,0,1,4.82-4.82A4.81,4.81,0,1,1,3011.36,2308.21Zm19.22-.04a4.805,4.805,0,1,1,4.79,4.8A4.774,4.774,0,0,1,3030.58,2308.17Zm19.21-.04a4.835,4.835,0,0,1,4.82-4.82A4.81,4.81,0,1,1,3049.79,2308.13Z" transform="translate(-2705 -2199)"/>
    <path class="cls-5" d="M2834.88,2308.21a4.833,4.833,0,0,1,4.81-4.82A4.81,4.81,0,1,1,2834.88,2308.21Zm19.22-.04a4.827,4.827,0,0,1,4.81-4.82A4.81,4.81,0,1,1,2854.1,2308.17Zm19.21-.04a4.805,4.805,0,1,1,4.79,4.8A4.774,4.774,0,0,1,2873.31,2308.13Z" transform="translate(-2705 -2199)"/>
    <path class="cls-5" d="M3011.36,2623.2a4.842,4.842,0,0,1,4.82-4.82A4.81,4.81,0,1,1,3011.36,2623.2Zm19.22-.04a4.805,4.805,0,1,1,4.79,4.8A4.774,4.774,0,0,1,3030.58,2623.16Zm19.21-.04a4.835,4.835,0,0,1,4.82-4.82A4.81,4.81,0,1,1,3049.79,2623.12Z" transform="translate(-2705 -2199)"/>
    <path class="cls-5" d="M2834.88,2623.2a4.833,4.833,0,0,1,4.81-4.82A4.81,4.81,0,1,1,2834.88,2623.2Zm19.22-.04a4.827,4.827,0,0,1,4.81-4.82A4.81,4.81,0,1,1,2854.1,2623.16Zm19.21-.04a4.805,4.805,0,1,1,4.79,4.8A4.774,4.774,0,0,1,2873.31,2623.12Z" transform="translate(-2705 -2199)"/>
    <path class="cls-5" d="M2947.73,2432.7a4.84,4.84,0,0,1,4.82,4.81A4.815,4.815,0,1,1,2947.73,2432.7Zm0.03,19.18a4.842,4.842,0,0,1,4.83,4.81A4.815,4.815,0,1,1,2947.76,2451.88Zm0.04,19.18a4.842,4.842,0,0,1,4.83,4.81A4.815,4.815,0,1,1,2947.8,2471.06Zm-0.07,19a4.8,4.8,0,1,1-4.81,4.78A4.825,4.825,0,0,1,2947.73,2490.06Zm0.03,19.18a4.8,4.8,0,1,1-4.8,4.78A4.778,4.778,0,0,1,2947.76,2509.24Z" transform="translate(-2705 -2199)"/>
    <path class="cls-5" d="M3125.09,2437.12a4.8,4.8,0,1,1-4.8,4.78A4.812,4.812,0,0,1,3125.09,2437.12Zm0.04,19.18a4.8,4.8,0,1,1-4.8,4.78A4.812,4.812,0,0,1,3125.13,2456.3Zm0.04,19.18a4.8,4.8,0,1,1-4.8,4.78A4.812,4.812,0,0,1,3125.17,2475.48Z" transform="translate(-2705 -2199)"/>
    <path class="cls-5" d="M2770.36,2434.77a4.827,4.827,0,0,1,4.82,4.81A4.81,4.81,0,1,1,2770.36,2434.77Zm0.04,19.18a4.833,4.833,0,0,1,4.82,4.81A4.81,4.81,0,1,1,2770.4,2453.95Zm0.04,19.18a4.833,4.833,0,0,1,4.82,4.81A4.81,4.81,0,1,1,2770.44,2473.13Z" transform="translate(-2705 -2199)"/>
  </g>
</svg>
