<svg xmlns="http://www.w3.org/2000/svg" width="78.5" height="25.19" viewBox="0 0 157 50.38">
  <defs>
    <style>
      .cls-1 {
        fill: #90a4ae;
        fill-rule: evenodd;
      }
    </style>
  </defs>
  <path id="_50_google-logo.svg" data-name="50% google-logo.svg" class="cls-1" d="M245.181,7715.67a19.531,19.531,0,1,1,0-39.06,18.423,18.423,0,0,1,13.3,5.38l-3.739,3.76a13.49,13.49,0,0,0-9.561-3.81,14.2,14.2,0,0,0,0,28.4,12.938,12.938,0,0,0,9.8-3.91,11.2,11.2,0,0,0,2.886-6.72H245.558v-5.33h17.467a17.463,17.463,0,0,1,.283,3.33c0,4-1.088,8.96-4.59,12.48C255.31,7713.76,250.956,7715.67,245.181,7715.67Zm46.157-12.56a12.5,12.5,0,1,1-12.5-12.58A12.368,12.368,0,0,1,291.338,7703.11Zm-5.471,0c0-4.52-3.255-7.62-7.028-7.62s-7.027,3.1-7.027,7.62c0,4.48,3.253,7.62,7.027,7.62S285.867,7707.59,285.867,7703.11Zm33.575-.02a12.5,12.5,0,1,1-12.5-12.57A12.361,12.361,0,0,1,319.442,7703.09Zm-5.472,0c0-4.52-3.254-7.62-7.027-7.62s-7.028,3.1-7.028,7.62c0,4.48,3.255,7.63,7.028,7.63S313.97,7707.57,313.97,7703.09Zm32.17-11.81v22.58c0,9.29-5.443,13.1-11.879,13.1a11.916,11.916,0,0,1-11.075-7.43l4.78-2a6.918,6.918,0,0,0,6.3,4.48c4.118,0,6.673-2.58,6.673-7.39v-1.81h-0.189a8.478,8.478,0,0,1-6.579,2.86c-6.248,0-11.692-5.48-11.692-12.53,0-7.1,5.444-12.62,11.692-12.62a8.623,8.623,0,0,1,6.579,2.81h0.189v-2.05h5.206Zm-4.827,11.86c0-4.43-2.934-7.67-6.674-7.67-3.786,0-6.675,3.24-6.675,7.67,0,4.38,2.889,7.58,6.675,7.58C338.379,7710.72,341.313,7707.52,341.313,7703.14Zm14.755-25.18v36.97h-5.49v-36.97h5.49Zm21.937,29.28,4.26,2.86a12.407,12.407,0,0,1-10.413,5.57,12.271,12.271,0,0,1-12.4-12.58c0-7.48,5.347-12.57,11.784-12.57,6.484,0,9.656,5.19,10.7,8l0.569,1.43-16.708,6.96a6.359,6.359,0,0,0,6.058,3.81A7.139,7.139,0,0,0,378.005,7707.24Zm-13.11-4.53,11.169-4.67a4.83,4.83,0,0,0-4.638-2.66A6.873,6.873,0,0,0,364.9,7702.71Z" transform="translate(-225.5 -7676.59)"/>
</svg>
