<svg xmlns="http://www.w3.org/2000/svg" width="82" height="34.953" viewBox="0 0 164 69.906">
  <defs>
    <style>
      .cls-1 {
        fill: #ff6e40;
        fill-rule: evenodd;
      }
    </style>
  </defs>
  <path id="_50_jibe-logo.svg" data-name="50% jibe-logo.svg" class="cls-1" d="M146.363,89.836q0,6.714-3.8,10.712a12.769,12.769,0,0,1-9.676,4q-6.892,0-10.6-3.591T118.572,90.4h-4.949l-0.088.265q-0.222,9.017,5.037,13.7t14.315,4.685q8.307,0,13.542-5.194t5.236-13.99v-46.1h-5.3v46.07ZM173.875,60.3h-5.258v47.828h5.258V60.3Zm0-21.129h-5.258V46.6h5.258V39.169ZM228.294,84.61q0-11.448-4.86-18.322a15.593,15.593,0,0,0-13.476-6.874,16.342,16.342,0,0,0-14.934,8.4V39.169h-5.3v68.957h4.551l0.575-7.2a16.177,16.177,0,0,0,6.141,6.034,18.461,18.461,0,0,0,9.058,2.1,15.894,15.894,0,0,0,13.387-6.387q4.86-6.387,4.86-17.129V84.61Zm-5.346.934q0,8.7-3.49,13.852t-10.428,5.149a14.827,14.827,0,0,1-8.726-2.463,15.1,15.1,0,0,1-5.28-6.637V73.735a16.434,16.434,0,0,1,5.015-7.059,13.66,13.66,0,0,1,8.9-2.753,11.523,11.523,0,0,1,10.472,5.749q3.534,5.75,3.534,14.939v0.932Zm46.224,21.836A19.178,19.178,0,0,0,276,102.866l-2.253-3.625a16.6,16.6,0,0,1-5.965,3.934,23.117,23.117,0,0,1-8.439,1.37,13.663,13.663,0,0,1-11.267-5.425,21.1,21.1,0,0,1-4.286-13.5V84.345h33.756V79.836q0-9.283-5.037-14.852t-13.829-5.57a18.3,18.3,0,0,0-14.293,6.763q-5.9,6.763-5.9,17.018v2.431q0,10.167,5.943,16.8a19.181,19.181,0,0,0,14.912,6.63A26.125,26.125,0,0,0,269.172,107.38Zm-0.553-39.269a15.222,15.222,0,0,1,3.667,10.4v1.323H244.274l-0.088-.22A19.223,19.223,0,0,1,248.825,68.4,13.476,13.476,0,0,1,268.619,68.111Z" transform="translate(-113.531 -39.156)"/>
</svg>
